<svg width="30" height="35" viewBox="0 0 30 35" fill="none" xmlns="http://www.w3.org/2000/svg">
<path d="M27.8106 2.21545H28.0181C28.2726 2.21545 28.4802 2.13244 28.4802 1.90832C28.4802 1.73953 28.3557 1.58459 28.0347 1.58459C27.9323 1.58459 27.8659 1.58459 27.8133 1.59289V2.21545H27.8106ZM27.8106 3.30008H27.4647V1.37983C27.6252 1.3577 27.7884 1.32449 28.0402 1.32449C28.3474 1.32449 28.5383 1.38813 28.6628 1.47944C28.7707 1.56522 28.8316 1.6925 28.8316 1.87788C28.8316 2.12414 28.6711 2.28462 28.4636 2.33996V2.35379C28.6323 2.38423 28.7375 2.53918 28.7762 2.82417C28.8233 3.123 28.8592 3.23921 28.8924 3.30008H28.5383C28.4912 3.23644 28.4525 3.06213 28.4138 2.81033C28.3778 2.57791 28.245 2.4866 28.007 2.4866H27.8078V3.30008H27.8106ZM28.126 0.862418C27.3651 0.862418 26.7508 1.50158 26.7508 2.29845C26.7508 3.0981 27.3651 3.73726 28.1343 3.73726C28.8952 3.74556 29.5039 3.0981 29.5039 2.29845C29.5039 1.49881 28.8952 0.862418 28.1343 0.862418H28.126ZM28.1343 0.571891C29.0861 0.571891 29.847 1.3411 29.847 2.29292C29.847 3.26134 29.0861 4.03055 28.126 4.03055C27.1659 4.03055 26.3884 3.26134 26.3884 2.29292C26.3884 1.3411 27.1659 0.571891 28.126 0.571891H28.1343Z" fill="white"/>
<path d="M3.4588 31.3955L3.17104 29.6855C3.08803 29.193 2.98289 28.421 2.90264 27.8898H2.87221C2.78643 28.4265 2.67022 29.2207 2.58445 29.691L2.27455 31.3982H3.4588V31.3955ZM2.11684 32.5105L1.74054 34.4086H0.354305L2.08363 26.5118H3.78253L5.35414 34.4086H3.95961L3.59161 32.5105H2.11684Z" fill="white"/>
<path d="M8.51123 30.8809C8.51123 30.7758 8.51123 30.6513 8.48909 30.5406C8.43376 30.1504 8.22624 29.799 7.89421 29.799C7.32145 29.799 7.11117 30.6236 7.11117 31.5865C7.11117 32.6932 7.40999 33.3241 7.87484 33.3241C8.08512 33.3241 8.33138 33.2162 8.46419 32.7514C8.4974 32.66 8.514 32.5355 8.514 32.3889V30.8809H8.51123ZM9.93343 26.3016V32.7707C9.93343 33.2826 9.95833 33.9135 9.98047 34.406H8.75195L8.67171 33.7474H8.64128C8.43376 34.1542 7.98551 34.4973 7.44873 34.4973C6.27279 34.4973 5.68896 33.1996 5.68896 31.5588C5.68896 29.5611 6.56055 28.5899 7.50684 28.5899C8.00212 28.5899 8.32308 28.8334 8.48633 29.1848H8.51123V26.3016H9.93343Z" fill="white"/>
<path d="M12.8968 33.4098C13.4391 33.4098 13.5747 32.3861 13.5747 31.5394C13.5747 30.7342 13.4391 29.6828 12.8719 29.6828C12.2715 29.6828 12.1442 30.7314 12.1442 31.5394C12.1442 32.5106 12.3019 33.4098 12.883 33.4098H12.8968ZM12.8691 34.5C11.5576 34.5 10.7358 33.4486 10.7358 31.5615C10.7358 29.5057 11.7928 28.5898 12.9023 28.5898C14.1945 28.5898 15.008 29.6938 15.008 31.5283C15.008 33.883 13.738 34.5 12.883 34.5H12.8691Z" fill="white"/>
<path d="M17.2243 32.364C17.2243 32.5079 17.2519 32.6407 17.2824 32.7292C17.4262 33.2079 17.667 33.3241 17.8607 33.3241C18.4113 33.3241 18.6326 32.6268 18.6326 31.5118C18.6326 30.4963 18.3974 29.7963 17.8551 29.7963C17.5867 29.7963 17.3571 30.0896 17.2796 30.405C17.2519 30.5046 17.227 30.6596 17.227 30.7647V32.364H17.2243ZM17.2243 26.3016V29.2816H17.2464C17.5259 28.8417 17.8994 28.5899 18.4417 28.5899C19.5153 28.5899 20.0521 29.8101 20.0521 31.4039C20.0521 33.4182 19.2497 34.4973 18.2065 34.4973C17.7112 34.4973 17.3792 34.2787 17.0831 33.7198H17.0527L16.9725 34.4032H15.7523C15.7716 33.9301 15.7993 33.2798 15.7993 32.768V26.3016H17.2243Z" fill="white"/>
<path d="M23.4637 30.9998C23.472 30.1974 23.2368 29.6329 22.7831 29.6329C22.2684 29.6329 22.0498 30.3855 22.0332 30.9998H23.4637ZM22.0305 32.007C22.0471 33.0418 22.5921 33.3793 23.2673 33.3793C23.6962 33.3793 24.0614 33.2853 24.3325 33.1829L24.5235 34.2067C24.1472 34.3699 23.5633 34.4723 23.0044 34.4723C21.4771 34.4723 20.6442 33.4291 20.6442 31.6472C20.6442 29.7353 21.6127 28.587 22.8744 28.587C24.0946 28.587 24.7725 29.6025 24.7725 31.2599C24.7725 31.6389 24.7559 31.852 24.731 32.0208L22.0305 32.007Z" fill="white"/>
<path d="M15.6721 0.5H24.7725V22.2896L15.6721 0.5Z" fill="#ED1C24"/>
<path d="M9.2583 0.5H0.152344V22.2896L9.2583 0.5Z" fill="#ED1C24"/>
<path d="M8.48633 17.9068L12.4652 8.52967L18.2646 22.2896H14.4657L12.7308 17.9068H8.48633Z" fill="#ED1C24"/>
</svg>
