<svg width="35" height="33" viewBox="0 0 35 33" fill="none" xmlns="http://www.w3.org/2000/svg">
<path d="M25.3718 32.3203L12.2443 2.01424C12.0181 1.49826 11.6556 0.832504 10.7173 0.832504C9.87879 0.832504 9.47939 1.22827 9.25391 1.65383C9.37047 1.34695 9.72338 0.750807 10.7464 0.750807H19.8066C20.6416 0.750807 21.0421 1.2303 21.2246 1.6693L34.4999 32.3203H25.3718Z" fill="url(#paint0_linear_811_9994)"/>
<path d="M9.25311 1.65727L0.936342 21.0189C0.683073 21.6356 0.5 22.0037 0.5 22.4931C0.5 23.3701 1.18321 24.2492 2.9069 24.2492H8.6138L15.2456 8.94841L12.2435 2.01767C12.0173 1.5017 11.6548 0.835938 10.7165 0.835938C9.87802 0.835938 9.4786 1.23173 9.25311 1.65727Z" fill="url(#paint1_linear_811_9994)"/>
<path d="M2.90695 24.2444L21.8418 24.2444L10.8535 30.8825C10.3179 31.1914 8.28078 32.32 6.85155 32.32C5.93021 32.32 5.45154 31.9811 4.99191 31.194L0.793863 23.605C0.504665 23.0612 0.5 22.88 0.5 22.4883C0.5 23.3652 1.18325 24.2444 2.90695 24.2444Z" fill="url(#paint2_linear_811_9994)"/>
<defs>
<linearGradient id="paint0_linear_811_9994" x1="15.1317" y1="1.33872" x2="17.9475" y2="8.21489" gradientUnits="userSpaceOnUse">
<stop stop-color="#29A5E3"/>
<stop offset="0.515" stop-color="#356EB9"/>
<stop offset="1" stop-color="#394DA5"/>
</linearGradient>
<linearGradient id="paint1_linear_811_9994" x1="13.1119" y1="3.36063" x2="11.1957" y2="7.97526" gradientUnits="userSpaceOnUse">
<stop stop-color="#236736"/>
<stop offset="0.493" stop-color="#6BA443"/>
<stop offset="1" stop-color="#86C146"/>
</linearGradient>
<linearGradient id="paint2_linear_811_9994" x1="3.13858" y1="27.5362" x2="7.16055" y2="26.7144" gradientUnits="userSpaceOnUse">
<stop stop-color="#2B7A77"/>
<stop offset="0.51" stop-color="#4EBAA9"/>
<stop offset="1" stop-color="#5CC2B1"/>
</linearGradient>
</defs>
</svg>
