<svg width="24" height="35" viewBox="0 0 24 35" fill="none" xmlns="http://www.w3.org/2000/svg">
<path fill-rule="evenodd" clip-rule="evenodd" d="M12.084 17.1276C12.084 13.998 14.621 11.4609 17.7507 11.4609C20.8803 11.4609 23.4173 13.998 23.4173 17.1276C23.4173 20.2572 20.8803 22.7943 17.7507 22.7943C14.621 22.7943 12.084 20.2572 12.084 17.1276Z" fill="#1ABCFE"/>
<path fill-rule="evenodd" clip-rule="evenodd" d="M0.75 28.4557C0.75 25.3261 3.28705 22.7891 6.41667 22.7891H12.0833V28.4557C12.0833 31.5853 9.54628 34.1224 6.41667 34.1224C3.28705 34.1224 0.75 31.5853 0.75 28.4557Z" fill="#0ACF83"/>
<path fill-rule="evenodd" clip-rule="evenodd" d="M12.083 0.125V11.4583H17.7497C20.8793 11.4583 23.4163 8.92128 23.4163 5.79167C23.4163 2.66205 20.8793 0.125 17.7497 0.125H12.083Z" fill="#FF7262"/>
<path fill-rule="evenodd" clip-rule="evenodd" d="M0.75 5.79167C0.75 8.92128 3.28705 11.4583 6.41667 11.4583H12.0833V0.125H6.41667C3.28705 0.125 0.75 2.66205 0.75 5.79167Z" fill="#F24E1E"/>
<path fill-rule="evenodd" clip-rule="evenodd" d="M0.75 17.1276C0.75 20.2572 3.28705 22.7943 6.41667 22.7943H12.0833V11.4609H6.41667C3.28705 11.4609 0.75 13.998 0.75 17.1276Z" fill="#A259FF"/>
</svg>
