<svg width="36" height="34" viewBox="0 0 36 34" fill="none" xmlns="http://www.w3.org/2000/svg">
<path d="M29.2612 0H6.73976C3.32923 0 0.564453 2.76478 0.564453 6.17531V27.8247C0.564453 31.2352 3.32923 34 6.73976 34H29.2612C32.6717 34 35.4365 31.2352 35.4365 27.8247V6.17531C35.4365 2.76478 32.6717 0 29.2612 0Z" fill="#330000"/>
<path d="M17.4628 20.4044H12.0587L10.9596 23.8197C10.9451 23.8823 10.9089 23.9377 10.8575 23.9763C10.8061 24.0148 10.7428 24.034 10.6787 24.0304H7.94181C7.78545 24.0304 7.7309 23.9445 7.77817 23.7726L12.4569 10.2956C12.5023 10.1552 12.5491 9.9961 12.5973 9.81837C12.6581 9.50607 12.6893 9.18877 12.6907 8.87063C12.6879 8.85181 12.6889 8.83262 12.6936 8.81418C12.6983 8.79574 12.7065 8.77841 12.718 8.7632C12.7294 8.74798 12.7437 8.73517 12.7601 8.72552C12.7765 8.71588 12.7946 8.70958 12.8135 8.70699C12.827 8.70493 12.8408 8.70493 12.8544 8.70699H16.5737C16.6828 8.70699 16.7449 8.74585 16.7612 8.82358L22.0713 23.7958C22.1184 23.9513 22.0713 24.0297 21.9309 24.0297H18.8899C18.8377 24.0355 18.7852 24.0221 18.7421 23.992C18.6991 23.9619 18.6685 23.9171 18.656 23.8661L17.4628 20.4044ZM12.9014 17.4548H16.5969C16.5037 17.1426 16.3947 16.7916 16.2696 16.4021C16.1446 16.0125 16.0121 15.5953 15.8721 15.1503L15.4508 13.8173C15.3103 13.3727 15.1817 12.9436 15.0649 12.53C14.948 12.1164 14.8419 11.7391 14.7464 11.3982H14.7233C14.5915 12.0298 14.4274 12.6543 14.2317 13.2691C14.0135 13.9714 13.7912 14.6889 13.5648 15.4216C13.3385 16.1544 13.1173 16.8321 12.9014 17.4548Z" fill="#FF9A00"/>
<path d="M25.2289 11.1874C24.9903 11.1969 24.7524 11.156 24.5307 11.0672C24.309 10.9785 24.1085 10.8441 23.9423 10.6726C23.7765 10.4937 23.6478 10.2837 23.5636 10.0548C23.4793 9.82594 23.4412 9.58265 23.4514 9.33896C23.4432 9.09817 23.4859 8.85838 23.5766 8.63518C23.6673 8.41198 23.804 8.21038 23.9777 8.04349C24.1498 7.87832 24.3528 7.74882 24.5752 7.66246C24.7975 7.5761 25.0347 7.53458 25.2732 7.5403C25.8346 7.5403 26.275 7.70803 26.5946 8.04349C26.9187 8.39519 27.0904 8.861 27.0719 9.33896C27.0817 9.58364 27.0422 9.8278 26.9558 10.0569C26.8693 10.286 26.7377 10.4954 26.5687 10.6726C26.3928 10.846 26.183 10.9812 25.9525 11.0698C25.7219 11.1584 25.4756 11.1984 25.2289 11.1874ZM23.615 23.7957V12.6138C23.615 12.4733 23.677 12.4031 23.8018 12.4031H26.6784C26.8025 12.4031 26.8653 12.4713 26.8653 12.6138V23.7957C26.8653 23.9512 26.8032 24.0296 26.6784 24.0296H23.8257C23.6852 24.0303 23.615 23.9519 23.615 23.7957Z" fill="#FF9A00"/>
</svg>
