<svg width="34" height="33" viewBox="0 0 34 33" fill="none" xmlns="http://www.w3.org/2000/svg">
<path d="M6.07209 0H27.9289C31.2421 0 33.9219 2.67977 33.9219 5.99299V27.007C33.9219 30.3202 31.2421 33 27.9289 33H6.07209C2.75887 32.9972 0.0791016 30.3175 0.0791016 27.0043V5.99024C0.0791016 2.67977 2.75887 0 6.07209 0Z" fill="#001E36"/>
<path d="M17.846 23.322H8.90885C8.74911 23.322 8.68576 23.2421 8.68576 23.0713V8.65897C8.67199 8.56809 8.73809 8.47445 8.8455 8.46068C8.85927 8.46068 8.87304 8.46068 8.89783 8.46068H11.6575C11.7236 8.44691 11.8172 8.49923 11.8172 8.5791C11.8172 8.59287 11.8172 8.60665 11.8172 8.61766V20.4577H18.3362C18.4822 20.4577 18.5208 20.5238 18.496 20.656L18.0856 23.1099C18.0856 23.176 18.0471 23.2421 18.0057 23.2807C17.9507 23.3109 17.8983 23.322 17.846 23.322Z" fill="#31A8FF"/>
<path d="M20.1016 12.0383H22.5693C22.7153 12.0383 22.82 12.1319 22.8585 12.2614C22.9109 12.355 22.9522 12.4734 22.977 12.5919C23.0045 12.7378 23.0293 12.8811 23.0431 13.027C23.0568 13.1868 23.0706 13.3575 23.0706 13.5283C23.492 13.0408 24.007 12.6304 24.5744 12.3137C25.2216 11.9584 25.9459 11.7849 26.673 11.8125C26.7666 11.7987 26.8575 11.8648 26.8713 11.9694C26.8713 11.9832 26.8713 11.997 26.8713 12.0218V14.7814C26.8713 14.8998 26.8052 14.9411 26.6482 14.9411C25.7366 14.8888 24.814 15.0596 23.9822 15.4176C23.704 15.5498 23.4286 15.7068 23.2166 15.9464V23.1402C23.2166 23.2862 23.1642 23.3385 23.032 23.3385H20.2862C20.1677 23.3523 20.0741 23.2862 20.0631 23.1677C20.0631 23.154 20.0631 23.1292 20.0631 23.1154V15.2964C20.0631 14.9522 20.0631 14.6107 20.0493 14.2416C20.0355 13.8725 20.0355 13.5035 20.0218 13.1455C20.008 12.8287 19.9832 12.5258 19.9419 12.209C19.9281 12.1429 19.9694 12.0631 20.0355 12.0493C20.0631 12.0245 20.0769 12.0245 20.1016 12.0383Z" fill="#31A8FF"/>
</svg>
