<svg width="35" height="35" viewBox="0 0 35 35" fill="none" xmlns="http://www.w3.org/2000/svg">
<path d="M28.4794 0.925781H6.52056C3.1955 0.925781 0.5 3.62128 0.5 6.94634V28.0555C0.5 31.3806 3.1955 34.076 6.52056 34.076H28.4794C31.8045 34.076 34.5 31.3806 34.5 28.0555V6.94634C34.5 3.62128 31.8045 0.925781 28.4794 0.925781Z" fill="#001E36"/>
<path d="M8.15624 24.1729V9.59789C8.15624 9.49226 8.20142 9.43844 8.2931 9.43844C8.5356 9.43844 8.75816 9.43844 9.09035 9.42715C9.42254 9.41585 9.78595 9.41187 10.1739 9.40456L11.4057 9.38131C11.8389 9.37378 12.2683 9.37001 12.6939 9.37001C13.8495 9.37001 14.8239 9.5144 15.6172 9.80318C16.3303 10.0449 16.9807 10.4423 17.5213 10.9665C17.9796 11.4211 18.3337 11.9699 18.559 12.575C18.7722 13.1641 18.8799 13.7861 18.8772 14.4126C18.8772 15.6297 18.596 16.6334 18.0335 17.4236C17.467 18.2171 16.671 18.8181 15.7527 19.1456C14.7947 19.503 13.7297 19.624 12.559 19.624C12.2269 19.624 11.989 19.6206 11.8522 19.6127C11.7153 19.6047 11.51 19.6014 11.2363 19.6014V24.1517C11.2397 24.1753 11.2385 24.1994 11.2326 24.2225C11.2267 24.2456 11.2163 24.2674 11.202 24.2864C11.1877 24.3055 11.1697 24.3216 11.1491 24.3337C11.1286 24.3458 11.1058 24.3537 11.0821 24.357C11.0652 24.3596 11.0479 24.3596 11.031 24.357H8.31569C8.20673 24.355 8.15624 24.2945 8.15624 24.1729ZM11.2363 12.1757V16.9293C11.4338 16.9448 11.6163 16.9523 11.7837 16.9518H12.5365C13.0903 16.95 13.6406 16.8621 14.1675 16.6914C14.6192 16.5578 15.023 16.2972 15.3308 15.9407C15.6271 15.5912 15.7753 15.104 15.7753 14.479C15.7868 14.0378 15.6715 13.6025 15.4431 13.2247C15.2037 12.8593 14.8576 12.5766 14.4518 12.4148C13.9229 12.2094 13.3581 12.1125 12.7909 12.1298C12.4255 12.1298 12.1024 12.1336 11.8216 12.1411C11.5408 12.1486 11.3468 12.1602 11.2396 12.1757H11.2363Z" fill="#31A8FF"/>
<path d="M27.6961 16.0649C27.2675 15.8444 26.8109 15.6833 26.3388 15.5859C25.8188 15.4664 25.2872 15.4051 24.7536 15.4032C24.4651 15.3955 24.177 15.4302 23.8986 15.5062C23.7211 15.5455 23.5634 15.6465 23.4535 15.7912C23.3791 15.9069 23.3397 16.0416 23.3398 16.1792C23.3439 16.3125 23.392 16.4408 23.4767 16.5439C23.6098 16.6998 23.7727 16.8276 23.9557 16.92C24.2807 17.0945 24.6157 17.2498 24.9589 17.385C25.7244 17.6414 26.456 17.9899 27.1374 18.4228C27.6012 18.716 27.9851 19.1196 28.2549 19.5974C28.4822 20.0505 28.5962 20.5521 28.5871 21.059C28.6005 21.7275 28.4095 22.3842 28.0396 22.9412C27.6433 23.5062 27.0931 23.9455 26.4544 24.2068C25.7608 24.5115 24.9047 24.6639 23.886 24.6639C23.2391 24.6699 22.5934 24.6087 21.9593 24.4812C21.4595 24.3896 20.973 24.2362 20.5109 24.0248C20.461 23.9991 20.4193 23.9597 20.391 23.9113C20.3626 23.8628 20.3487 23.8072 20.3508 23.751V21.2882C20.3479 21.2641 20.3517 21.2396 20.3618 21.2174C20.3719 21.1953 20.3879 21.1763 20.408 21.1626C20.4275 21.1515 20.4501 21.1466 20.4725 21.1486C20.495 21.1506 20.5163 21.1595 20.5335 21.1739C21.0797 21.4959 21.6728 21.7306 22.2915 21.8695C22.8363 22.0063 23.3953 22.079 23.957 22.0861C24.4885 22.0861 24.8801 22.0177 25.1317 21.8808C25.2449 21.829 25.3407 21.7454 25.4074 21.6402C25.4742 21.535 25.509 21.4128 25.5077 21.2882C25.5077 21.0902 25.3936 20.9 25.1655 20.7175C24.9374 20.535 24.4733 20.3158 23.773 20.0598C23.0569 19.8106 22.3779 19.4653 21.7546 19.0333C21.3089 18.7237 20.9417 18.3142 20.6823 17.8375C20.4576 17.3881 20.3436 16.8915 20.3502 16.3891C20.3482 15.7839 20.5143 15.1901 20.8298 14.6737C21.1884 14.1064 21.7034 13.6548 22.3127 13.3735C22.9815 13.0391 23.8177 12.8719 24.8214 12.8719C25.4093 12.867 25.9967 12.9088 26.578 12.9968C26.9988 13.0509 27.4101 13.1627 27.8005 13.329C27.8314 13.3379 27.8599 13.3539 27.8837 13.3757C27.9074 13.3975 27.9258 13.4245 27.9373 13.4546C27.9528 13.5102 27.9604 13.5676 27.9599 13.6253V15.9294C27.9617 15.956 27.9566 15.9826 27.9449 16.0067C27.9333 16.0307 27.9155 16.0512 27.8935 16.0662C27.8627 16.0813 27.8289 16.089 27.7946 16.0888C27.7604 16.0886 27.7267 16.0804 27.6961 16.0649Z" fill="#31A8FF"/>
</svg>
