<svg width="34" height="30" viewBox="0 0 34 30" fill="none" xmlns="http://www.w3.org/2000/svg">
<path fill-rule="evenodd" clip-rule="evenodd" d="M7.41817 0.959499L17 0L26.5818 0.959499L33.9999 10.3919L17 29.1428L0 10.3919L7.41817 0.959499Z" fill="#FDB300"/>
<path d="M6.88576 10.3906L16.9999 29.1416L0 10.3906H6.88576ZM27.1142 10.3906L17.0001 29.1416L34 10.3906" fill="#EA6C00"/>
<path fill-rule="evenodd" clip-rule="evenodd" d="M6.88477 10.3906H27.113L16.9989 29.1416" fill="#FDAD00"/>
<path d="M16.9999 0L7.41806 0.959339L6.88574 10.3918L16.9999 0ZM17 0L26.5818 0.959339L27.1141 10.3918" fill="#FDD231"/>
<path d="M34 10.3934L26.5819 0.960938L27.1142 10.3934H34ZM0 10.3934L7.41808 0.960938L6.88576 10.3934" fill="#FDAD00"/>
<path fill-rule="evenodd" clip-rule="evenodd" d="M16.9999 0L6.88574 10.3918H27.114" fill="#FEEEB7"/>
</svg>
