<svg width="25" height="42" viewBox="0 0 25 42" fill="none" xmlns="http://www.w3.org/2000/svg">
<g clip-path="url(#clip0_29604_5251)">
<path d="M24.5166 21.0742C24.5166 27.0639 20.1282 32.0284 14.3916 32.9284V24.543H17.1877L17.7197 21.0742H14.3916V18.8233C14.3916 17.8741 14.8566 16.9492 16.3472 16.9492H17.8604V13.9961C17.8604 13.9961 16.4869 13.7617 15.1739 13.7617C12.4332 13.7617 10.6416 15.423 10.6416 18.4305V21.0742H7.59473V24.543H10.6416V32.9284C4.90504 32.0284 0.516602 27.0639 0.516602 21.0742C0.516602 14.447 5.88941 9.07422 12.5166 9.07422C19.1438 9.07422 24.5166 14.447 24.5166 21.0742Z" fill="#CECFD2"/>
</g>
<defs>
<clipPath id="clip0_29604_5251">
<rect width="24" height="42" fill="white" transform="translate(0.516602)"/>
</clipPath>
</defs>
</svg>
