<svg width="25" height="24" viewBox="0 0 25 24" fill="none" xmlns="http://www.w3.org/2000/svg">
<g clip-path="url(#clip0_29604_5247)">
<path d="M24.4558 7.05607C24.3996 5.78085 24.1934 4.90416 23.898 4.14449C23.5933 3.33812 23.1244 2.61617 22.5102 2.01602C21.91 1.40652 21.1833 0.932921 20.3863 0.632936C19.6222 0.337529 18.7501 0.131312 17.4749 0.0750879C16.1901 0.0141019 15.7823 0 12.5238 0C9.26538 0 8.85752 0.0141019 7.57755 0.0703262C6.30234 0.126551 5.42564 0.332951 4.66615 0.628174C3.8596 0.932922 3.13766 1.40176 2.5375 2.01602C1.92801 2.61617 1.45459 3.34288 1.15442 4.13991C0.859014 4.90416 0.652797 5.77609 0.596572 7.0513C0.535586 8.33604 0.521484 8.7439 0.521484 12.0023C0.521484 15.2608 0.535586 15.6686 0.591811 16.9486C0.648035 18.2238 0.854435 19.1005 1.14984 19.8602C1.45459 20.6666 1.92801 21.3885 2.5375 21.9887C3.13766 22.5982 3.86436 23.0718 4.66139 23.3718C5.42564 23.6672 6.29758 23.8734 7.57297 23.9296C8.85276 23.986 9.2608 23.9999 12.5193 23.9999C15.7777 23.9999 16.1856 23.986 17.4655 23.9296C18.7407 23.8734 19.6174 23.6672 20.3769 23.3718C21.9899 22.7482 23.2651 21.4729 23.8887 19.8602C24.1839 19.096 24.3903 18.2238 24.4465 16.9486C24.5027 15.6686 24.5168 15.2608 24.5168 12.0023C24.5168 8.7439 24.5121 8.33604 24.4558 7.05607ZM22.2946 16.8549C22.243 18.027 22.0461 18.6599 21.882 19.0819C21.4787 20.1274 20.6489 20.9572 19.6033 21.3605C19.1814 21.5246 18.5439 21.7215 17.3763 21.7729C16.1105 21.8293 15.7308 21.8433 12.5286 21.8433C9.32637 21.8433 8.94195 21.8293 7.68066 21.7729C6.50855 21.7215 5.87562 21.5246 5.45366 21.3605C4.93336 21.1682 4.45975 20.8634 4.07534 20.4649C3.67683 20.0758 3.37208 19.6069 3.17978 19.0866C3.01569 18.6647 2.81881 18.027 2.76735 16.8596C2.71094 15.5937 2.69702 15.2139 2.69702 12.0117C2.69702 8.80946 2.71094 8.42505 2.76735 7.16394C2.81881 5.99183 3.01569 5.3589 3.17978 4.93694C3.37208 4.41645 3.67683 3.94303 4.0801 3.55843C4.46909 3.15992 4.93794 2.85517 5.45842 2.66306C5.88038 2.49896 6.51808 2.30209 7.68542 2.25044C8.95129 2.19422 9.33113 2.18011 12.5332 2.18011C15.7402 2.18011 16.1198 2.19422 17.3811 2.25044C18.5532 2.30209 19.1861 2.49896 19.6081 2.66306C20.1284 2.85517 20.602 3.15992 20.9864 3.55843C21.3849 3.94761 21.6897 4.41645 21.882 4.93694C22.0461 5.3589 22.243 5.99641 22.2946 7.16394C22.3508 8.42981 22.3649 8.80946 22.3649 12.0117C22.3649 15.2139 22.3508 15.589 22.2946 16.8549Z" fill="#CECFD2"/>
<path d="M12.5645 5.83594C9.16144 5.83594 6.40039 8.59733 6.40039 12.0012C6.40039 15.405 9.16144 18.1664 12.5645 18.1664C15.9677 18.1664 18.7285 15.405 18.7285 12.0012C18.7285 8.59733 15.9677 5.83594 12.5645 5.83594ZM12.5645 16.0004C10.3568 16.0004 8.56598 14.2095 8.56598 12.0012C8.56598 9.79288 10.3568 8.00194 12.5645 8.00194C14.7724 8.00194 16.5629 9.79288 16.5629 12.0012C16.5629 14.2095 14.7724 16.0004 12.5645 16.0004Z" fill="#CECFD2"/>
<path d="M20.41 5.59556C20.41 6.39039 19.7656 7.03486 18.9706 7.03486C18.1757 7.03486 17.5312 6.39039 17.5312 5.59556C17.5312 4.80054 18.1757 4.15625 18.9706 4.15625C19.7656 4.15625 20.41 4.80054 20.41 5.59556Z" fill="#CECFD2"/>
</g>
<defs>
<clipPath id="clip0_29604_5247">
<rect width="23.9953" height="23.9999" fill="white" transform="translate(0.521484)"/>
</clipPath>
</defs>
</svg>
