<svg width="25" height="42" viewBox="0 0 25 42" fill="none" xmlns="http://www.w3.org/2000/svg">
<g clip-path="url(#clip0_29604_5254)">
<path d="M21.2466 9H3.78661C2.92016 9.00264 2.08995 9.34802 1.47728 9.96069C0.864607 10.5734 0.519239 11.4036 0.516602 12.27V29.73C0.519239 30.5965 0.864607 31.4267 1.47728 32.0393C2.08995 32.652 2.92016 32.9974 3.78661 33H21.2466C22.1139 33 22.9456 32.6555 23.5588 32.0423C24.1721 31.429 24.5166 30.5973 24.5166 29.73V12.27C24.5166 11.4028 24.1721 10.571 23.5588 9.95776C22.9456 9.34452 22.1139 9 21.2466 9ZM8.69661 28C8.70632 28.0663 8.70632 28.1337 8.69661 28.2C8.66575 28.2571 8.62888 28.3108 8.58661 28.36C8.53903 28.4091 8.4809 28.4467 8.41661 28.47C8.35407 28.4842 8.28915 28.4842 8.22661 28.47H6.03661C5.97415 28.4849 5.90906 28.4849 5.8466 28.47C5.78232 28.4467 5.72418 28.4091 5.67661 28.36C5.63434 28.3108 5.59746 28.2571 5.5666 28.2C5.55629 28.1337 5.55629 28.0663 5.5666 28V19C5.56922 18.8665 5.62411 18.7393 5.71947 18.6458C5.81483 18.5524 5.94305 18.5 6.0766 18.5H8.2366C8.37174 18.5003 8.50121 18.5543 8.5966 18.65C8.68715 18.744 8.73739 18.8695 8.7366 19L8.69661 28ZM8.8166 16.69C8.59442 17.0311 8.27347 17.2962 7.89661 17.45C7.52254 17.6015 7.11222 17.6397 6.7166 17.56C6.33577 17.4749 5.98816 17.2802 5.7166 17C5.424 16.7177 5.22801 16.3503 5.1566 15.95C5.07807 15.5543 5.11629 15.1444 5.2666 14.77C5.4271 14.3972 5.69079 14.078 6.02661 13.85C6.36181 13.6284 6.75475 13.5101 7.1566 13.51C7.69952 13.5141 8.21956 13.7293 8.60661 14.11C8.79695 14.3005 8.94789 14.5265 9.05084 14.7753C9.15379 15.0241 9.20672 15.2908 9.2066 15.56C9.19283 15.9642 9.05685 16.3547 8.8166 16.68V16.69ZM19.9666 28.04C19.9779 28.0995 19.9779 28.1605 19.9666 28.22C19.9416 28.2751 19.9078 28.3258 19.8666 28.37C19.82 28.4156 19.7658 28.4528 19.7066 28.48C19.6504 28.4903 19.5928 28.4903 19.5366 28.48H17.2166H17.0366C16.979 28.455 16.9278 28.4174 16.8866 28.37C16.8392 28.331 16.8043 28.2788 16.7866 28.22C16.7704 28.1611 16.7704 28.0989 16.7866 28.04V23.8C16.7866 23.17 16.9766 21.03 15.1366 21.03C13.7066 21.03 13.4166 22.5 13.3566 23.15V28.04C13.3579 28.1004 13.3473 28.1605 13.3254 28.2168C13.3035 28.2731 13.2708 28.3246 13.229 28.3683C13.1872 28.4119 13.1372 28.4469 13.0819 28.4712C13.0266 28.4955 12.967 28.5087 12.9066 28.51H10.6666C10.6075 28.5248 10.5457 28.5248 10.4866 28.51C10.4305 28.4869 10.3795 28.4529 10.3366 28.41C10.2937 28.3671 10.2597 28.3161 10.2366 28.26C10.2204 28.2011 10.2204 28.1389 10.2366 28.08V18.92C10.2204 18.8611 10.2204 18.7989 10.2366 18.74C10.2543 18.6812 10.2892 18.629 10.3366 18.59C10.3778 18.5426 10.429 18.505 10.4866 18.48C10.5461 18.4695 10.6071 18.4695 10.6666 18.48H12.9066C12.9679 18.48 13.0285 18.4922 13.085 18.516C13.1414 18.5397 13.1926 18.5745 13.2355 18.6183C13.2783 18.662 13.312 18.7139 13.3345 18.7709C13.357 18.8279 13.3679 18.8888 13.3666 18.95V19.73C13.6899 19.2437 14.1409 18.8558 14.6701 18.6088C15.1992 18.3619 15.7862 18.2654 16.3666 18.33C20.0666 18.33 20.0466 21.79 20.0466 23.69L19.9666 28.04Z" fill="#CECFD2"/>
</g>
<defs>
<clipPath id="clip0_29604_5254">
<rect width="24" height="42" fill="white" transform="translate(0.516602)"/>
</clipPath>
</defs>
</svg>
