<svg width="33" height="32" viewBox="0 0 33 32" fill="none" xmlns="http://www.w3.org/2000/svg">
<g clip-path="url(#clip0_29604_5243)">
<path d="M21.4465 14.5606L14.3769 10.6924C13.9705 10.47 13.49 10.4783 13.0916 10.7144C12.6929 10.9507 12.4551 11.3682 12.4551 11.8315V19.5015C12.4551 19.9627 12.6914 20.3794 13.0874 20.616C13.2942 20.7395 13.5234 20.8015 13.7532 20.8015C13.9636 20.8015 14.1746 20.7495 14.3686 20.645L21.4384 16.8435C21.8581 16.6177 22.1201 16.1814 22.122 15.7046C22.1237 15.2278 21.865 14.7896 21.4465 14.5606ZM14.3303 18.5366V12.8042L19.614 15.6953L14.3303 18.5366Z" fill="#CECFD2"/>
<path d="M32.286 9.59546L32.2845 9.58081C32.2574 9.32324 31.9877 7.03223 30.8739 5.86694C29.5866 4.49634 28.1271 4.32983 27.4252 4.25C27.3671 4.24341 27.3139 4.2373 27.2663 4.23096L27.2103 4.2251C22.9799 3.91748 16.591 3.87549 16.527 3.87524L16.5214 3.875L16.5158 3.87524C16.4518 3.87549 10.063 3.91748 5.79441 4.2251L5.73802 4.23096C5.69261 4.23706 5.64256 4.24268 5.58811 4.24902C4.89427 4.3291 3.45043 4.49585 2.15942 5.91602C1.09863 7.06885 0.791991 9.31079 0.760497 9.56274L0.756835 9.59546C0.747314 9.70264 0.521484 12.2542 0.521484 14.8157V17.2102C0.521484 19.7717 0.747314 22.3232 0.756835 22.4307L0.758544 22.4468C0.785643 22.7002 1.05517 24.9492 2.16381 26.115C3.37426 27.4397 4.90477 27.615 5.72801 27.7092C5.85813 27.7241 5.97019 27.7368 6.04661 27.7502L6.12058 27.7605C8.5632 27.9929 16.2216 28.1074 16.5463 28.1121L16.5561 28.1123L16.5659 28.1121C16.6298 28.1118 23.0185 28.0698 27.2489 27.7622L27.3048 27.7563C27.3583 27.7493 27.4184 27.7429 27.4843 27.7361C28.1742 27.6628 29.6102 27.5107 30.8834 26.1099C31.9442 24.9568 32.2511 22.7148 32.2823 22.4631L32.286 22.4304C32.2955 22.323 32.5216 19.7717 32.5216 17.2102V14.8157C32.5214 12.2542 32.2955 9.70288 32.286 9.59546ZM30.6461 17.2102C30.6461 19.5811 30.4391 22.0227 30.4196 22.2468C30.34 22.8643 30.0165 24.2827 29.4996 24.8445C28.7028 25.7212 27.8842 25.8081 27.2865 25.8713C27.2143 25.8789 27.1474 25.8862 27.0868 25.8938C22.995 26.1897 16.8473 26.2351 16.5641 26.2368C16.2465 26.2322 8.70016 26.1167 6.33201 25.8967C6.21067 25.877 6.07957 25.8618 5.94138 25.8462C5.24046 25.7659 4.28099 25.656 3.5432 24.8445L3.52587 24.8259C3.01806 24.2969 2.70385 22.9705 2.62402 22.2542C2.60912 22.0847 2.39672 19.6143 2.39672 17.2102V14.8157C2.39672 12.4475 2.60326 10.0085 2.62328 9.77979C2.71825 9.05249 3.04784 7.71997 3.5432 7.1814C4.36449 6.27808 5.23045 6.17798 5.8032 6.11182C5.85789 6.10547 5.90891 6.09961 5.95603 6.09351C10.1074 5.79614 16.2993 5.75195 16.5214 5.75024C16.7436 5.75171 22.9333 5.79614 27.0477 6.09351C27.0983 6.09985 27.1535 6.1062 27.2128 6.11304C27.8019 6.18018 28.6923 6.28174 29.5094 7.15332L29.517 7.16138C30.0248 7.69043 30.339 9.04004 30.4188 9.77075C30.433 9.93066 30.6461 12.4065 30.6461 14.8157V17.2102Z" fill="#CECFD2"/>
</g>
<defs>
<clipPath id="clip0_29604_5243">
<rect width="32" height="32" fill="white" transform="translate(0.521484)"/>
</clipPath>
</defs>
</svg>
