<svg width="17" height="16" viewBox="0 0 17 16" fill="none" xmlns="http://www.w3.org/2000/svg">
<path d="M2.5 8C2.5 10.5142 2.5 13.1046 3.37868 13.8856C4.25736 14.6667 5.67157 14.6667 8.5 14.6667C11.3284 14.6667 12.7426 14.6667 13.6213 13.8856C14.5 13.1046 14.5 10.5142 14.5 8" stroke="#CECFD2" stroke-width="0.8"/>
<path d="M10.2732 9.46859L14.2781 8.26713C14.6751 8.14803 14.8736 8.08848 14.9995 7.94575C15.0241 7.91795 15.0462 7.88814 15.0658 7.85665C15.1663 7.69499 15.1663 7.48775 15.1663 7.07327C15.1663 5.43983 15.1663 4.62312 14.7177 4.07171C14.6315 3.96573 14.5346 3.86887 14.4286 3.78264C13.8772 3.33398 13.0605 3.33398 11.4271 3.33398H5.57229C3.93886 3.33398 3.12214 3.33398 2.57074 3.78264C2.46476 3.86887 2.36789 3.96573 2.28166 4.07171C1.83301 4.62312 1.83301 5.43983 1.83301 7.07327C1.83301 7.48775 1.83301 7.69499 1.93353 7.85665C1.95311 7.88814 1.97528 7.91795 1.99982 7.94575C2.12577 8.08848 2.32428 8.14803 2.72128 8.26713L6.72613 9.46859" stroke="#CECFD2" stroke-width="0.8"/>
<path d="M4.83398 3.33398C5.38295 3.32007 5.94015 2.97059 6.12695 2.4542C6.13269 2.43831 6.13858 2.42064 6.15036 2.3853L6.16747 2.33398C6.19559 2.24961 6.20966 2.20741 6.22471 2.16999C6.41683 1.69207 6.86706 1.36756 7.38121 1.33642C7.42148 1.33398 7.46595 1.33398 7.55489 1.33398H9.44671C9.53565 1.33398 9.58013 1.33398 9.62039 1.33642C10.1345 1.36756 10.5848 1.69207 10.7769 2.16999C10.7919 2.20741 10.806 2.2496 10.8341 2.33398L10.8512 2.3853C10.863 2.42044 10.8689 2.43836 10.8747 2.4542C11.0615 2.97059 11.6184 3.32007 12.1673 3.33398" stroke="#CECFD2" stroke-width="0.8"/>
<path d="M9.83398 8.33203H7.16732C6.98322 8.33203 6.83398 8.48127 6.83398 8.66536V10.1064C6.83398 10.2427 6.91697 10.3652 7.04352 10.4158L7.51028 10.6025C8.14604 10.8569 8.85526 10.8569 9.49103 10.6025L9.95778 10.4158C10.0843 10.3652 10.1673 10.2427 10.1673 10.1064V8.66536C10.1673 8.48127 10.0181 8.33203 9.83398 8.33203Z" stroke="#CECFD2" stroke-width="0.8" stroke-linecap="round"/>
</svg>
