<svg width="32" height="32" viewBox="0 0 32 32" fill="none" xmlns="http://www.w3.org/2000/svg">
<circle cx="16" cy="16" r="16" fill="url(#paint0_linear_1_14213)"/>
<circle cx="16" cy="16" r="15.5" stroke="white" stroke-opacity="0.2"/>
<path d="M15.8108 7.33168C15.7461 7.39742 14.6754 9.5377 13.4251 12.0797C12.1747 14.6145 11.1543 16.7766 11.1543 16.8789C11.1543 17.0031 11.2118 17.0834 11.3339 17.1346C11.4346 17.1784 12.1819 17.2076 13.0227 17.2076C13.849 17.2076 14.5317 17.2222 14.5317 17.2441C14.5317 17.2661 13.77 19.1141 12.843 21.3567C11.916 23.5919 11.1543 25.4911 11.1543 25.5715C11.1543 25.6518 11.1902 25.7614 11.2405 25.8125C11.2908 25.8637 11.3842 25.9002 11.4417 25.9075C11.4992 25.9075 13.7772 23.2194 16.5079 19.9323C19.4469 16.3895 21.4734 13.884 21.4878 13.7744C21.5093 13.6721 21.4806 13.5626 21.4231 13.5188C21.3656 13.4749 20.532 13.4311 19.4829 13.4092L17.6361 13.3727C20.4099 8.93141 21.2147 7.58004 21.2147 7.50699C21.2147 7.44125 21.1788 7.33898 21.1285 7.28785C21.0566 7.22211 20.4458 7.2002 18.4768 7.2002C16.1342 7.2002 15.9114 7.2075 15.8108 7.32438V7.33168Z" fill="black" fill-opacity="0.2"/>
<path d="M14.7337 6.23109C14.669 6.29684 13.5983 8.43711 12.3479 10.9791C11.0976 13.5139 10.0771 15.6761 10.0771 15.7783C10.0771 15.9025 10.1346 15.9829 10.2568 16.034C10.3574 16.0778 11.1047 16.107 11.9455 16.107C12.7719 16.107 13.4546 16.1216 13.4546 16.1436C13.4546 16.1655 12.6928 18.0136 11.7659 20.2561C10.8389 22.4913 10.0771 24.3905 10.0771 24.4709C10.0771 24.5513 10.1131 24.6608 10.1634 24.712C10.2137 24.7631 10.3071 24.7996 10.3646 24.8069C10.4221 24.8069 12.7 22.1188 15.4307 18.8317C18.3698 15.2889 20.3962 12.7834 20.4106 12.6738C20.4322 12.5716 20.4034 12.462 20.3459 12.4182C20.2884 12.3743 19.4549 12.3305 18.4057 12.3086L16.5589 12.2721C19.3327 7.83082 20.1375 6.47945 20.1375 6.40641C20.1375 6.34066 20.1016 6.2384 20.0513 6.18727C19.9794 6.12152 19.3686 6.09961 17.3997 6.09961C15.057 6.09961 14.8343 6.10691 14.7337 6.22379V6.23109Z" fill="white"/>
<defs>
<linearGradient id="paint0_linear_1_14213" x1="11.2" y1="10.1333" x2="35.7333" y2="37.3333" gradientUnits="userSpaceOnUse">
<stop stop-color="#7046E6"/>
<stop offset="1" stop-color="#FF00C7"/>
</linearGradient>
</defs>
</svg>
