<svg width="17" height="16" viewBox="0 0 17 16" fill="none" xmlns="http://www.w3.org/2000/svg">
<path d="M8.14258 1.08203C8.33872 0.881343 8.66128 0.881343 8.85742 1.08203L10.1699 2.42578C10.4565 2.7192 10.8506 2.88278 11.2607 2.87793L13.1387 2.85547C13.4195 2.85212 13.6479 3.08054 13.6445 3.36133L13.6221 5.23926C13.6172 5.64936 13.7808 6.04352 14.0742 6.33008L15.418 7.64258C15.6187 7.83872 15.6187 8.16128 15.418 8.35742L14.0742 9.66992C13.7808 9.95648 13.6172 10.3506 13.6221 10.7607L13.6445 12.6387C13.6479 12.9195 13.4195 13.1479 13.1387 13.1445L11.2607 13.1221C10.8506 13.1172 10.4565 13.2808 10.1699 13.5742L8.85742 14.918C8.66128 15.1187 8.33872 15.1187 8.14258 14.918L6.83008 13.5742C6.54352 13.2808 6.14936 13.1172 5.73926 13.1221L3.86133 13.1445C3.58054 13.1479 3.35212 12.9195 3.35547 12.6387L3.37793 10.7607C3.38278 10.3506 3.2192 9.95648 2.92578 9.66992L1.58203 8.35742C1.38134 8.16128 1.38134 7.83872 1.58203 7.64258L2.92578 6.33008C3.2192 6.04352 3.38278 5.64936 3.37793 5.23926L3.35547 3.36133C3.35212 3.08054 3.58054 2.85212 3.86133 2.85547L5.73926 2.87793C6.14936 2.88278 6.54352 2.7192 6.83008 2.42578L8.14258 1.08203Z" stroke="#CECFD2"/>
<path fill-rule="evenodd" clip-rule="evenodd" d="M11.0823 6.54536C11.1639 6.44125 11.1912 6.31507 11.1583 6.19458C11.1254 6.07409 11.0349 5.96917 10.9067 5.90288C10.7786 5.8366 10.6233 5.81439 10.475 5.84114C10.3267 5.86789 10.1975 5.94141 10.1159 6.04552L7.87404 8.90752L6.84813 7.86566C6.75328 7.76928 6.61519 7.70746 6.46424 7.69379C6.31329 7.68013 6.16183 7.71574 6.0432 7.7928C5.92457 7.86985 5.84847 7.98204 5.83165 8.10468C5.81483 8.22732 5.85866 8.35036 5.95351 8.44674L7.48016 9.99712C7.53706 10.055 7.61013 10.101 7.69331 10.1312C7.77649 10.1615 7.86736 10.1752 7.95837 10.1712C8.04939 10.1672 8.13791 10.1456 8.21658 10.1082C8.29524 10.0708 8.36178 10.0187 8.41066 9.95619L11.0823 6.54536Z" fill="#CECFD2"/>
</svg>
