<svg width="169" height="112" viewBox="0 0 169 112" fill="none" xmlns="http://www.w3.org/2000/svg">
<g clip-path="url(#clip0_29_3639)">
<path d="M19.1193 75.4559L19.1222 75.5069L19.2482 75.9078L18.7065 79.7018L18.152 70.1275L18.5754 66.155L19.1193 75.4559ZM62.8209 10.7907L62.5003 11.0604L56.4226 12.4964L56.5964 12.4271L64.2774 9.44947L68.8957 8.43993L62.8209 10.7907ZM94.1417 8.06462L93.5949 8.1083L91.8098 7.57622L98.7101 8.88099L99.0492 8.99755L94.1417 8.06462ZM69.813 130.959L70.0972 131.079L81.5134 132.96L76.2849 133.499L65.3576 131.702L69.813 130.959ZM63.6122 131.414L51.7253 126.367L55.7472 124.96L55.7815 124.982L69.1219 130.667L64.1197 131.498L63.6122 131.414ZM29.9941 107.437L32.0288 103.978L42.5408 115.458L39.41 117.875L39.0999 117.656L30.7329 108.523L29.9941 107.437ZM24.0796 90.6136L31.7501 103.668L29.7628 107.04L22.8993 95.3479L22.8388 95.1547L24.0796 90.6136ZM23.7037 89.9539L23.7168 89.9976L23.8064 90.1471L22.6181 94.4549L18.8774 82.632L18.8249 81.7172L19.5295 76.7898L23.7037 89.9539ZM42.0861 21.8738L41.2187 22.5152L42.194 21.6952L42.0861 21.8738ZM73.8823 7.35751L74.4739 7.31747L83.0748 9.19802L75.0652 12.3141L74.9392 12.4198L64.2694 11.0968L73.8823 7.35751ZM129.213 30.7446L123.498 24.5562L124.505 22.4496L131.91 30.4494L129.213 30.7446ZM141.492 50.1846L136.166 45.6654L136.156 45.5451L133.779 38.5585L138.143 40.5338L138.24 40.6942L140.309 46.7332L141.492 50.1846ZM143.992 57.8564L144.822 66.9969L143.487 61.9638L143.558 61.5957L143.568 61.541L142.94 54.6055L143.992 57.8564ZM143.258 80.6129L141.623 71.538L141.739 71.3266L143.316 62.8822L145.038 69.3805L145.138 70.4811L143.258 80.6129ZM109.611 126.133L102.256 129.341L106.494 126.808L106.885 126.767L106.946 126.76L113.099 124.078L109.611 126.133ZM85.7929 132.515L92.5566 128.229L92.7588 128.262L105.539 126.91L99.3461 130.613L97.9687 131.21L85.7929 132.515ZM23.6013 53.8656L24.4294 67.6967L24.4319 67.7477L24.4687 67.857L19.8712 74.5667L19.0956 61.3296L19.2034 60.8595L23.6013 53.8656ZM26.0669 41.7511L23.5565 52.8451L23.5434 52.8998L23.562 53.1913L19.4716 59.6823L22.0006 48.5518L26.0669 41.7511ZM48.2819 27.9857L48.2502 28.044L48.232 28.1205L36.9232 32.115L42.9612 21.9758L43.2217 21.7571L53.7257 18.7868L48.2819 27.9857ZM67.6709 18.8051L63.1575 26.5133L49.2517 27.9274L54.7432 18.6411L54.8113 18.5827L67.6709 18.8051ZM94.3227 15.3646L94.1756 15.4229L85.0016 9.55153L94.0969 8.87734L94.3096 8.92103L100.792 14.8726L94.3227 15.3646ZM116.004 19.3007L109.146 16.2648L108.943 16.2284L105.466 11.2609L114.835 15.3974L114.945 15.4776L116.004 19.3007ZM123.175 24.3083L116.611 19.5667L116.48 19.5085L115.465 15.853L124.203 22.1508L123.175 24.3083ZM137.617 92.0751L129.836 99.171L130.244 85.9595L130.273 85.9486L136.747 80.0808L137.701 91.9183L137.617 92.0751ZM125.609 111.661L114.437 116.508L118.99 104.908L129.21 100.534L125.775 111.511L125.609 111.661ZM29.232 82.8142L29.2422 82.8434L24.311 89.2141L19.916 75.3611L19.908 75.219L24.6185 68.3344L29.232 82.8142ZM32.8594 45.5487L32.8488 45.6071L32.8543 45.7054L24.5161 52.2329L27.3602 39.6592L27.5628 39.3275L35.6092 33.2703L32.8594 45.5487ZM45.648 39.8669L45.6374 39.9143L33.7636 45.1916L36.5473 32.7491L36.6001 32.658L48.1292 28.5833L45.648 39.8669ZM142.759 61.5009L141.11 70.328L135.459 60.0832L135.467 60.0723L136.694 53.6907L142.74 61.3114L142.759 61.5009ZM132.239 65.9545L132.247 65.9473L135.23 60.5023L140.992 70.9476L140.974 71.0496L136.839 78.6668L132.239 65.9545ZM136.576 79.1514L130.139 84.9791L127.321 70.3645L131.915 66.2461L136.584 79.1369L136.576 79.1514ZM129.395 99.5791L119.214 103.953L121.427 89.7061L129.836 86.1344L129.424 99.55L129.395 99.5791ZM113.878 116.749L100.742 118.108L106.622 106.158L118.538 104.962L113.927 116.727L113.878 116.749ZM106.741 125.969L93.4003 127.38L100.235 118.961L100.287 118.972L113.36 117.616L106.975 125.867L106.741 125.969ZM49.2597 109.737L62.4818 119.198L56.1676 124.271L43.4636 115.196L49.2597 109.737ZM37.8646 97.3633L48.9573 109.47L43.1557 114.934L32.5046 103.315L37.8646 97.3633ZM29.4579 83.2152L37.6041 97.0535L32.2707 102.972L24.4607 89.6769L29.4579 83.2152ZM33.7479 60.0285L25.197 67.1063L24.3503 52.9691L24.3766 52.8561L32.8831 46.1829L33.7479 60.0285ZM79.3738 28.3757L78.0066 34.8921L61.9087 36.0984L63.8854 26.9179L79.3738 28.3757ZM79.4868 27.982L64.0774 26.5315L68.5489 18.8998L82.6278 22.5517L79.4868 27.982ZM116.133 20.2301L115.139 27.869L111.583 26.2946L111.535 26.2837L109.335 17.2306L116.133 20.2301ZM122.042 33.817L119.195 30.7264L123.065 25.2705L128.369 31.007L122.042 33.817ZM124.382 37.6437L122.279 34.1522L128.632 31.3204L132.596 37.8696L124.382 37.6437ZM125.756 41.6819L124.537 38.0519L132.83 38.2633L135.191 45.1697L125.756 41.6819ZM136.011 52.9982L134.82 59.2778L125.386 49.2771L126.019 46.0845L136.011 52.9837V52.9982ZM121.472 88.8095L121.038 72.9958L126.95 70.5394L129.789 85.2779L121.472 88.8095ZM118.788 104.124L106.94 105.312L111.265 90.6974L121.014 89.7571L118.788 104.124ZM100.279 118.148L86.1845 115.779L93.4684 103.913L106.207 106.096L100.279 118.148ZM33.8765 60.444L38.4347 74.6432L29.8787 82.1947L25.2283 67.6019L33.8765 60.444ZM46.5941 53.257L50.7395 66.0603L39.1131 74.1257L34.5654 59.9593L46.5941 53.257ZM61.8879 47.2435L65.2946 57.696L51.4415 65.6229L47.3249 52.9107L61.8879 47.2435ZM100.406 27.1547L88.6975 18.4333L94.4411 16.1664L103.331 25.9994L100.406 27.1547ZM131.792 65.1091L123.701 52.375L125.202 49.6671L134.726 59.7552L131.792 65.1091ZM111.444 89.8665L113.809 73.7174L120.644 73.0906L121.078 88.9407L111.444 89.8665ZM106.52 105.327L93.8575 103.169L100.458 88.8387L110.863 90.6536L106.52 105.327ZM85.7718 115.692L71.7741 109.704L80.4329 98.3364L93.0794 103.781L85.7718 115.692ZM71.2433 110.345L85.2723 116.355L77.8755 124.967L63.465 118.822L71.2433 110.345ZM38.6267 75.0076L46.6021 88.5107L38.1877 96.463L30.0258 82.5956L38.6267 75.0076ZM50.9289 66.4174L58.1316 78.583L47.2119 87.964L39.2653 74.5083L50.9289 66.4174ZM65.476 58.0532L71.3748 67.9809L58.7571 78.0654L51.6018 65.9947L65.476 58.0532ZM78.6219 42.8518L81.0296 50.1736L66.0173 57.3206L62.6395 47.0029L78.6219 42.8518ZM95.8739 32.8184L95.2142 36.0547L78.8241 34.8994L80.1622 28.5214L95.8739 32.8184ZM97.5432 29.7387L96.0051 32.4357L80.3199 28.146L83.3954 22.8287L97.5432 29.7387ZM97.7771 29.4034L83.6927 22.5298L88.2691 18.6156L100.08 27.4135L97.7771 29.4034ZM111.924 38.6496L111.635 27.1985L114.974 28.6672L111.924 38.6496ZM113.296 40.3079L124.981 41.9042L125.268 45.2208L113.296 40.3079ZM121.128 54.6893L123.414 52.6629L131.558 65.4844L127.06 69.5189L121.128 54.6893ZM111.038 89.8665L100.758 88.0806L106.123 72.3872L113.41 73.6883L111.038 89.8665ZM93.4633 103.067L80.9036 97.6731L89.7543 84.2538L100.072 88.7184L93.4633 103.067ZM71.4116 109.514L58.5469 100.312L68.4542 89.7972L80.0835 98.1359L71.4116 109.514ZM57.987 100.895L70.891 110.134L63.0891 118.64L49.8378 109.172L57.987 100.895ZM46.8545 88.8241L57.6846 100.629L49.5329 108.906L38.4216 96.7947L46.8545 88.8241ZM58.3811 78.9L68.1492 89.5347L58.242 100.049L47.4483 88.2883L58.3811 78.9ZM71.6244 68.2981L79.6048 76.9793L68.6961 88.9407L58.9961 78.3898L71.6244 68.2981ZM81.2059 50.5344L85.3539 57.4883L72.016 67.4852L66.1831 57.6887L81.2059 50.5344ZM110.253 38.533L98.4947 29.8481L100.684 27.9565L110.253 38.533ZM110.616 38.3325L101.055 27.7633L103.826 26.6591L110.616 38.3325ZM111.06 38.2961L104.257 26.6007L107.427 26.3493L111.06 38.2961ZM112.258 38.923L115.323 28.8932L118.404 31.1127L112.258 38.923ZM112.553 39.2036L118.704 31.3824L121.306 34.196L112.553 39.2036ZM112.834 39.5061L121.561 34.5167L123.501 37.7239L112.834 39.5061ZM123.706 38.1029L124.855 41.4814L113.099 39.8741L123.706 38.1029ZM113.357 40.7708L125.286 45.6654L124.697 48.7122L113.357 40.7708ZM117.842 56.0742L120.775 54.8825L126.729 69.7594L120.943 72.1831L117.842 56.0742ZM100.374 87.9713L90.1777 83.565L98.5104 69.1289L105.736 72.2779L100.374 87.9713ZM85.6009 57.8054L91.1999 63.8918L80.144 76.378L72.2553 67.806L85.6009 57.8054ZM95.5559 40.4173L96.7625 44.0618L81.771 49.8566L79.4052 42.7023L95.5559 40.4173ZM113.252 41.1899L124.587 49.1241L123.162 51.6935L113.252 41.1899ZM114.056 56.4787L117.452 56.1799L120.557 72.2852L113.87 72.8974L114.056 56.4787ZM110.032 55.7972L113.659 56.4641L113.473 72.8792L106.341 71.6145L110.032 55.7972ZM96.9359 44.4298L99.0099 47.9031L86.0057 57.0181L81.9444 50.2211L96.9359 44.4298ZM97.5221 43.8066L96.3705 40.3589L110.24 40.1184L97.5221 43.8066ZM120.41 54.1608L117.623 55.3088L112.613 41.6491L120.41 54.1608ZM112.989 41.4924L122.923 52.0214L120.749 53.9494L112.989 41.4924ZM99.2543 48.2202L102.057 51.267L91.7311 63.2832L86.2501 57.3389L99.2543 48.2202ZM99.6777 47.4512L97.7086 44.1711L110.489 40.4683L99.6777 47.4512ZM114.012 55.6696L112.185 41.6491L117.227 55.389L114.012 55.6696ZM102.58 50.6474L99.9247 47.7719L110.763 40.7708L102.58 50.6474ZM111.764 41.5178L113.604 55.6296L110.171 55.0136L111.764 41.5178ZM106.373 53.3882L111.386 41.3029L109.782 54.8752L106.373 53.3882ZM106.026 53.1767L102.879 50.9135L111.057 41.0478L106.026 53.1767ZM98.5417 68.2251L92.0334 63.5492L102.361 51.5258L105.686 53.9239L98.5417 68.2251ZM105.96 71.4942L98.8889 68.4256L106.042 54.1134L109.645 55.6952L105.96 71.4942ZM89.8279 83.3719L80.446 76.644L91.5048 64.1542L98.1556 68.9394L89.8279 83.3719ZM110.05 39.7175L96.2681 39.9544L96.0025 36.5832L110.05 39.7175ZM96.7676 32.7199L98.2317 30.1578L110.032 38.8719L96.7676 32.7199ZM109.969 39.2874L96.008 36.1713L96.6361 33.1026L109.969 39.2874ZM80.5487 97.4762L69.001 89.2104L79.9097 77.2417L89.4021 84.0571L80.5487 97.4762ZM111.517 38.4236L107.866 26.4149L111.23 27.0417L111.517 38.4236ZM95.1876 36.4556L95.4688 40.02L79.3185 42.3088L78.7979 35.3003L95.1876 36.4556ZM116.503 20.4852L122.768 24.9972L118.883 30.4713L115.521 28.0403L116.503 20.4852ZM77.9935 35.2967L78.5272 42.4655L62.5685 46.6057L61.8613 36.5029L77.9935 35.2967ZM92.7799 127.445L78.3276 125.047L85.6719 116.504L99.78 118.884L92.8484 127.438L92.7799 127.445ZM135.362 45.6654L135.966 52.4734L126.106 45.6508L126.109 45.6398L125.806 42.1302L135.354 45.6471L135.362 45.6654ZM108.875 17.0265L111.104 26.2035L107.532 25.5293L107.513 25.5329L101.994 15.7327L108.867 17.0265H108.875ZM101.478 15.6343L107.072 25.5657L103.778 25.8245L103.733 25.8463L94.9486 16.1263L101.454 15.6343H101.478ZM61.0675 36.6269L61.7826 46.8535L47.2673 52.5026L46.4498 40.0673L61.0675 36.6269ZM45.6636 40.3407L46.4866 52.8597L34.5206 59.5293L33.6558 45.6836L45.6636 40.3407ZM70.318 130.295L56.5698 124.45L62.8366 119.424L77.1866 125.55L70.3966 130.31L70.318 130.295ZM84.3313 9.6026L93.7184 15.6015L87.888 17.883L87.8512 17.9157L76.0641 12.7879L84.1867 9.61355L84.3313 9.6026ZM75.5304 12.9956L87.5146 18.2037L82.846 22.1945L68.9143 18.5754L75.478 13.0175L75.5304 12.9956ZM63.0628 26.9251L61.0624 36.2151L46.5205 39.6409L49.0021 28.3574L63.0628 26.9251ZM70.9646 130.405L77.623 125.736L77.6387 125.74L91.9599 128.127L84.8861 132.613L84.5783 132.642L70.9646 130.405ZM118.822 120.703L107.719 125.543L113.914 117.558L114.02 117.547L124.968 112.82L119.556 120.032L118.822 120.703ZM126.364 110.972L129.697 100.326L129.834 100.268L137.483 93.285L135.075 102.662L134.736 103.293L126.364 110.972ZM138.051 91.2659L137.123 79.7419L137.212 79.6617L141.318 72.1029L143.05 81.7245L142.972 82.1473L138.051 91.2659ZM141.823 51.1541L142.675 60.5825L136.794 53.1732L136.82 53.0383L136.216 46.2376L141.746 50.9317L141.823 51.1541ZM63.4756 11.4066L74.5184 12.7733L67.9915 18.3021L67.939 18.3495L67.9048 18.4042L55.2846 18.1855L63.2337 11.4978L63.4756 11.4066ZM35.7665 27.0782L36.3582 26.5861L41.5575 22.763L35.7931 32.443L35.7432 32.6617L28.1092 38.4091L33.9898 28.5688L35.7665 27.0782ZM51.0735 126.09L48.1216 124.096L39.7517 118.119L42.8406 115.732L55.345 124.672L51.1734 126.133L51.0735 126.09ZM128.249 112.047L122.363 117.452L121.172 118.545L125.712 112.499L126.048 112.353L132.22 106.693L128.249 112.047ZM140.685 92.2427L138.054 97.13L135.866 101.194L138.022 92.793L138.256 92.5816L142.314 85.0557L140.685 92.2427ZM132.26 30.8284L137.772 39.9216L133.6 38.0337L133.569 37.939L129.452 31.1237L132.252 30.8211L132.26 30.8284ZM104.546 10.8527L104.756 10.9474L108.378 16.119L101.499 14.8179L101.331 14.8325L95.0564 9.06322L104.546 10.8527ZM87.8694 6.83271L92.4564 8.19212L84.0686 8.81168L83.7557 8.93562L75.8907 7.21176L85.9718 6.47191L87.8694 6.83271ZM52.4167 14.0489L53.6944 13.5532L61.8143 11.6398L54.1253 18.1089L54.023 18.2802L43.9787 21.123L52.4167 14.0489ZM50.6608 126.786L63.3441 132.18L76.2612 134.312L84.5546 133.459L84.6049 133.455H84.6074L98.1763 132.005L109.95 126.866C109.953 126.866 109.953 126.866 109.953 126.862L119.224 121.41L119.264 121.392L128.816 112.619L135.354 103.821L135.375 103.8L141.415 92.5816C141.447 92.5233 141.458 92.4541 141.46 92.3921L143.734 82.4315L143.737 82.4207L143.75 82.3623V82.3587L145.937 70.5759L145.947 70.5212L144.786 57.7397C144.78 57.6814 144.762 57.6268 144.736 57.5794L142.596 50.9317L138.984 40.3917L132.922 30.3729L124.839 21.626L115.266 14.7159L104.825 10.0946H104.819L104.793 10.08L98.9363 8.1083L98.902 8.09736C98.8966 8.09736 98.8915 8.09371 98.8835 8.09371L86.0162 5.65918L73.7643 6.55937L64.0774 8.66228L64.0406 8.67688C64.0326 8.68052 64.025 8.68052 64.0169 8.68052L52.1668 13.2799L52.067 13.3164V13.32L52.0065 13.3456L51.812 13.5059L43.2822 19.7308C43.2796 19.7308 43.2796 19.7308 43.2796 19.7345L38.8923 23.4118L33.3851 28.0258L33.3745 28.033L33.3221 28.1205L27.7231 37.4105L21.2829 48.1874L21.2486 48.2457L18.3018 61.2057L18.2887 61.2604L18.2912 61.3005L17.3477 70.1057L18.081 82.7304L18.0836 82.7815L22.1503 95.6394L29.3133 107.863L30.3781 109.434L38.2431 118.024L47.6666 124.759L50.6608 126.786Z" fill="url(#paint0_linear_29_3639)"/>
<path d="M144.151 132.512C161.039 115.617 146.665 73.845 112.046 39.2116C77.4264 4.57808 35.6716 -9.80183 18.7836 7.09312C1.89557 23.9881 16.2696 65.7601 50.8888 100.394C85.5081 135.027 127.263 149.407 144.151 132.512Z" stroke="url(#paint1_linear_29_3639)" stroke-width="0.767273"/>
<path d="M160.426 62.2054C155.918 45.3731 118.208 40.8568 76.1981 52.1179C34.1885 63.3789 3.78758 86.1531 8.29592 102.985C12.8043 119.818 50.5146 124.334 92.5243 113.073C134.534 101.812 164.935 79.0376 160.426 62.2054Z" stroke="url(#paint2_linear_29_3639)" stroke-width="0.767273"/>
</g>
<defs>
<linearGradient id="paint0_linear_29_3639" x1="81.6475" y1="5.65918" x2="81.6475" y2="109.817" gradientUnits="userSpaceOnUse">
<stop stop-color="#7046E6"/>
<stop offset="1" stop-color="#FF00C7" stop-opacity="0"/>
</linearGradient>
<linearGradient id="paint1_linear_29_3639" x1="51.5946" y1="6.20597" x2="32.8198" y2="56.6783" gradientUnits="userSpaceOnUse">
<stop stop-color="#FAFAFA"/>
<stop offset="1" stop-color="#A78BFA" stop-opacity="0"/>
</linearGradient>
<linearGradient id="paint2_linear_29_3639" x1="44.4917" y1="62.5142" x2="53.2217" y2="111.641" gradientUnits="userSpaceOnUse">
<stop stop-color="#FAFAFA" stop-opacity="0.7"/>
<stop offset="0.395" stop-color="#A78BFA" stop-opacity="0.1"/>
<stop offset="1" stop-color="#A78BFA" stop-opacity="0"/>
</linearGradient>
<clipPath id="clip0_29_3639">
<rect width="168.589" height="112" fill="white"/>
</clipPath>
</defs>
</svg>