<svg width="88" height="88" viewBox="0 0 88 88" fill="none" xmlns="http://www.w3.org/2000/svg">
<path d="M0 44C0 19.6995 19.6995 0 44 0V0C68.3005 0 88 19.6995 88 44V44C88 68.3005 68.3005 88 44 88V88C19.6995 88 0 68.3005 0 44V44Z" fill="#F5F5F5"/>
<path d="M44 87.4107C20.0249 87.4107 0.589286 67.9751 0.589286 44C0.589286 20.0249 20.0249 0.589286 44 0.589286C67.9751 0.589286 87.4107 20.0249 87.4107 44C87.4107 67.9751 67.9751 87.4107 44 87.4107Z" stroke="black" stroke-opacity="0.08" stroke-width="1.17857"/>
<path d="M60.7582 62.8572C60.7582 59.9331 60.7582 58.4711 60.3973 57.2814C59.5848 54.6029 57.4887 52.5068 54.8101 51.6942C53.6204 51.3334 52.1584 51.3334 49.2344 51.3334H38.7582C35.8341 51.3334 34.3721 51.3334 33.1825 51.6942C30.5039 52.5068 28.4078 54.6029 27.5953 57.2814C27.2344 58.4711 27.2344 59.9331 27.2344 62.8572M53.4249 34.5715C53.4249 39.7787 49.2035 44 43.9963 44C38.789 44 34.5677 39.7787 34.5677 34.5715C34.5677 29.3642 38.789 25.1429 43.9963 25.1429C49.2035 25.1429 53.4249 29.3642 53.4249 34.5715Z" stroke="#717680" stroke-width="4.19048" stroke-linecap="round" stroke-linejoin="round"/>
</svg>