<svg width="24" height="24" viewBox="0 0 24 24" fill="none" xmlns="http://www.w3.org/2000/svg">
<path d="M12 22C17.5228 22 22 17.5228 22 12C22 6.47715 17.5228 2 12 2C6.47715 2 2 6.47715 2 12C2 17.5228 6.47715 22 12 22Z" stroke="url(#paint0_linear_32619_7624)" stroke-width="2" stroke-linecap="round" stroke-linejoin="round"/>
<path d="M12 2C9.43223 4.69615 8 8.27674 8 12C8 15.7233 9.43223 19.3038 12 22C14.5678 19.3038 16 15.7233 16 12C16 8.27674 14.5678 4.69615 12 2Z" stroke="url(#paint1_linear_32619_7624)" stroke-width="2" stroke-linecap="round" stroke-linejoin="round"/>
<path d="M2 12H22" stroke="url(#paint2_linear_32619_7624)" stroke-width="2" stroke-linecap="round" stroke-linejoin="round"/>
<defs>
<linearGradient id="paint0_linear_32619_7624" x1="12" y1="2.46875" x2="12" y2="15.4375" gradientUnits="userSpaceOnUse">
<stop stop-color="white"/>
<stop offset="1" stop-color="white" stop-opacity="0.7"/>
</linearGradient>
<linearGradient id="paint1_linear_32619_7624" x1="12" y1="2.46875" x2="12" y2="15.4375" gradientUnits="userSpaceOnUse">
<stop stop-color="white"/>
<stop offset="1" stop-color="white" stop-opacity="0.7"/>
</linearGradient>
<linearGradient id="paint2_linear_32619_7624" x1="12" y1="12.0234" x2="12" y2="12.6719" gradientUnits="userSpaceOnUse">
<stop stop-color="white"/>
<stop offset="1" stop-color="white" stop-opacity="0.7"/>
</linearGradient>
</defs>
</svg>
