<svg width="81" height="41" viewBox="0 0 81 41" fill="none" xmlns="http://www.w3.org/2000/svg">
<path d="M74.7914 14.3784C74.8129 12.8509 76.1876 11.6319 77.8625 11.6554C79.5374 11.6789 80.8774 12.9363 80.8559 14.4635L80.6662 27.9722C80.6448 29.4997 79.27 30.7186 77.5951 30.6951C75.9203 30.6716 74.5803 29.4143 74.6017 27.887L74.7914 14.3784Z" fill="#CECFD2"/>
<path fill-rule="evenodd" clip-rule="evenodd" d="M18.3698 15.9977C16.7991 12.4799 11.7722 9.96058 8.1858 10.8948L6.55716 11.3193L6.66956 3.31485C6.69123 1.77168 5.44096 0.503135 3.877 0.481174C2.31305 0.459213 1.02736 1.69215 1.00569 3.23532L0.675147 26.7751C0.653482 28.318 1.90375 29.5865 3.468 29.6085C5.03225 29.6305 6.31735 28.3975 6.33902 26.8546L6.37637 24.1945C6.44955 18.9833 6.50087 18.6936 7.53767 17.6885C9.07951 16.1922 11.0307 16.3117 12.564 17.996C13.6677 19.2086 14.0055 19.3208 16.6711 19.3582C19.9074 19.4037 19.8986 19.4212 18.3698 15.9977Z" fill="#CECFD2"/>
<path d="M35.8 13.8309C35.8214 12.3033 37.1961 11.0844 38.871 11.1079C40.5459 11.1314 41.8859 12.3888 41.8644 13.916L41.6756 27.3667C41.6541 28.8943 40.2794 30.1132 38.6045 30.0897C36.9296 30.0662 35.5896 28.8088 35.6111 27.2816L35.8 13.8309Z" fill="#CECFD2"/>
<path d="M32.3173 37.8583C32.3068 39.5256 30.921 40.8649 29.2308 40.8411C27.5407 40.8174 26.206 39.4541 26.2293 37.796L26.3475 29.2779L22.8994 29.2295C19.7612 29.1854 19.2836 29.06 17.5857 27.8321C15.5963 26.3939 13.8103 23.6447 13.8212 22.0359C13.8275 21.1276 14.0949 21.0616 16.4853 21.0951C18.8757 21.1287 19.263 21.265 20.3448 22.4536C21.8777 24.1379 23.8293 24.2574 25.3711 22.7614C26.013 22.1388 26.2775 21.7823 26.4024 20.4146L26.4963 13.7211C26.5178 12.1935 27.882 10.9742 29.5434 10.9975C31.2047 11.0208 32.5341 12.278 32.5127 13.8056L32.426 19.9814L32.3173 37.8583Z" fill="#CECFD2"/>
<path d="M50.9805 27.2773C50.9573 28.9323 49.5785 30.2548 47.9009 30.2312C46.2233 30.2077 44.8822 28.847 44.9055 27.192C44.9287 25.5371 46.3075 24.2145 47.9851 24.2381C49.6626 24.2617 51.0037 25.6224 50.9805 27.2773Z" fill="#CECFD2"/>
<path d="M62.6483 30.4383C61.37 30.4204 60.1539 30.1586 58.9999 29.6531C57.8459 29.1476 56.838 28.4574 55.9761 27.5826C55.1015 26.6946 54.4243 25.6807 53.9445 24.5408C53.478 23.3882 53.2537 22.1747 53.2716 20.9001C53.2895 19.6255 53.5543 18.4188 54.066 17.28C54.578 16.1282 55.277 15.1208 56.1633 14.2576C57.0493 13.4073 58.0762 12.7457 59.2439 12.2728C60.4117 11.7998 61.6347 11.5723 62.9129 11.5903C64.2043 11.6084 65.4204 11.8702 66.5614 12.3755C67.7155 12.8682 68.73 13.5584 69.6046 14.4464C70.4663 15.3341 71.1303 16.3542 71.5969 17.5068C72.0764 18.6596 72.3072 19.8797 72.2891 21.1671L72.1885 28.3317C72.18 28.9368 71.9575 29.4488 71.5211 29.8676C71.0976 30.2994 70.5728 30.511 69.9467 30.5022C69.438 30.495 69.0029 30.3537 68.6415 30.0782C68.2803 29.7899 68.0377 29.413 67.9138 28.9477C66.3078 29.9682 64.5526 30.4651 62.6483 30.4383ZM62.7085 26.1512C63.4128 26.1611 64.0799 26.0417 64.7096 25.793C65.3525 25.5316 65.9186 25.1661 66.4079 24.6965C66.8842 24.2268 67.2571 23.6847 67.5266 23.0704C67.7962 22.4561 67.9358 21.8014 67.9456 21.1062C67.9554 20.4109 67.8341 19.7525 67.5819 19.1309C67.3298 18.5093 66.9722 17.957 66.5093 17.474C66.0463 17.004 65.497 16.6357 64.8615 16.3692C64.2261 16.0899 63.5563 15.9453 62.8519 15.9354C62.1606 15.9257 61.5001 16.0452 60.8704 16.2939C60.2407 16.5426 59.6812 16.9017 59.1919 17.3713C58.7026 17.8408 58.3232 18.3828 58.0536 18.9971C57.7841 19.6114 57.6444 20.2662 57.6347 20.9614C57.6249 21.6566 57.7461 22.315 57.9983 22.9366C58.2505 23.5583 58.6146 24.1107 59.0905 24.5938C59.5534 25.0767 60.0959 25.4578 60.7182 25.7369C61.3407 26.0032 62.0041 26.1413 62.7085 26.1512Z" fill="#CECFD2"/>
</svg>
