<svg width="28" height="28" viewBox="0 0 28 28" fill="none" xmlns="http://www.w3.org/2000/svg">
<path d="M12.79 1.60742C13.4536 0.928119 14.5464 0.928119 15.21 1.60742L17.3047 3.75293C17.7262 4.18446 18.306 4.42415 18.9092 4.41699L21.9072 4.38184C22.8568 4.37065 23.6294 5.14317 23.6182 6.09277L23.583 9.09082C23.5758 9.694 23.8155 10.2738 24.2471 10.6953L26.3926 12.79C27.0719 13.4536 27.0719 14.5464 26.3926 15.21L24.2471 17.3047C23.8155 17.7262 23.5758 18.306 23.583 18.9092L23.6182 21.9072C23.6294 22.8568 22.8568 23.6294 21.9072 23.6182L18.9092 23.583C18.306 23.5758 17.7262 23.8155 17.3047 24.2471L15.21 26.3926C14.5464 27.0719 13.4536 27.0719 12.79 26.3926L10.6953 24.2471C10.2738 23.8155 9.694 23.5758 9.09082 23.583L6.09277 23.6182C5.14317 23.6294 4.37065 22.8568 4.38184 21.9072L4.41699 18.9092C4.42415 18.306 4.18446 17.7262 3.75293 17.3047L1.60742 15.21C0.928119 14.5464 0.928119 13.4536 1.60742 12.79L3.75293 10.6953C4.18446 10.2738 4.42415 9.694 4.41699 9.09082L4.38184 6.09277C4.37065 5.14317 5.14317 4.37065 6.09277 4.38184L9.09082 4.41699C9.694 4.42415 10.2738 4.18446 10.6953 3.75293L12.79 1.60742Z" fill="url(#paint0_linear_31283_5799)" stroke="url(#paint1_linear_31283_5799)" stroke-width="0.514861"/>
<path fill-rule="evenodd" clip-rule="evenodd" d="M18.8554 11.3479C19.0088 11.1585 19.0603 10.929 18.9983 10.7099C18.9364 10.4907 18.7662 10.2999 18.5252 10.1793C18.2841 10.0587 17.992 10.0183 17.713 10.067C17.4341 10.1157 17.1912 10.2494 17.0377 10.4387L12.8209 15.6445L10.8912 13.7494C10.7128 13.5741 10.4531 13.4617 10.1691 13.4368C9.88521 13.412 9.60034 13.4767 9.3772 13.6169C9.15406 13.7571 9.01092 13.9611 8.97929 14.1842C8.94765 14.4073 9.0301 14.6311 9.2085 14.8064L12.08 17.6264C12.187 17.7316 12.3245 17.8153 12.4809 17.8703C12.6374 17.9254 12.8083 17.9504 12.9795 17.9431C13.1507 17.9358 13.3172 17.8965 13.4652 17.8285C13.6131 17.7604 13.7383 17.6656 13.8302 17.5519L18.8554 11.3479Z" fill="white"/>
<defs>
<linearGradient id="paint0_linear_31283_5799" x1="0" y1="0" x2="28" y2="-2.91874e-09" gradientUnits="userSpaceOnUse">
<stop stop-color="#7046E6"/>
<stop offset="1" stop-color="#9777EE"/>
</linearGradient>
<linearGradient id="paint1_linear_31283_5799" x1="2.35115" y1="28" x2="28.4507" y2="25.474" gradientUnits="userSpaceOnUse">
<stop stop-color="white" stop-opacity="0.5"/>
<stop offset="1" stop-color="#7046E6"/>
</linearGradient>
</defs>
</svg>
