<svg width="19" height="22" viewBox="0 0 19 22" fill="none" xmlns="http://www.w3.org/2000/svg">
<path d="M17.0435 11.0456V5.59229C17.0435 3.98484 17.0435 3.18111 16.7306 2.56715C16.4555 2.02708 16.0164 1.588 15.4764 1.31283C14.8623 1 14.0587 1 12.4512 1H6.32813C4.72068 1 3.91695 1 3.30299 1.31283C2.76292 1.588 2.32384 2.02708 2.04867 2.56715C1.73584 3.18111 1.73584 3.98484 1.73584 5.59229V15.5423C1.73584 17.1497 1.73584 17.9534 2.04867 18.5674C2.32384 19.1075 2.76292 19.5465 3.30299 19.8217C3.91695 20.1345 4.72068 20.1345 6.32813 20.1345H9.38966M11.3031 9.61054H5.56275M7.4762 13.4375H5.56275M13.2166 5.78364H5.56275M11.7815 17.2644L13.6949 19.1778L18.0002 14.8725" stroke="#F0F0F1" stroke-width="1.91345" stroke-linecap="round" stroke-linejoin="round"/>
</svg>
