<svg width="30" height="30" viewBox="0 0 30 30" fill="none" xmlns="http://www.w3.org/2000/svg">
<path d="M13.4218 16.5795C17.4234 16.5795 20.5271 12.1235 20.5271 8.28976V7.01442C20.5271 3.14692 17.3394 0 13.4218 0C9.50413 0 6.31641 3.14692 6.31641 7.01442V8.28976C6.31641 12.1235 9.42016 16.5795 13.4218 16.5795Z" fill="#CECFD2"/>
<path opacity="0.5" d="M29.2125 22.6868L28.84 18.1582L27.4778 19.7244C26.5594 18.8966 25.3982 18.4387 24.1583 18.4387C21.3841 18.4387 19.114 20.7631 18.9492 23.6847H20.1793C20.3471 21.5213 22.099 19.7527 24.1583 19.7527C25.081 19.7527 25.9453 20.0884 26.6375 20.6915L25.1025 22.4562L29.2125 22.6868Z" fill="#CECFD2"/>
<path opacity="0.5" d="M27.9831 24.4746C27.8153 26.638 26.0633 28.4066 24.004 28.4066C23.0813 28.4066 22.217 28.0709 21.5249 27.4678L23.0598 25.7032L18.9492 25.4726L19.3217 30.0011L20.6839 28.4349C21.6023 29.2627 22.7635 29.7206 24.0034 29.7206C26.7776 29.7206 29.0478 27.3962 29.2125 24.4746H27.9831Z" fill="#CECFD2"/>
<path d="M17.4037 24.6317C17.4037 22.591 18.3074 20.7619 19.7371 19.4904C17.9593 19.1791 15.8696 18.9473 13.5362 18.9473C9.31228 18.9473 5.84958 19.6976 3.6883 20.3273C1.48254 20.9703 0 22.9175 0 25.1723V27.7897C0 28.1383 0.288128 28.4213 0.644582 28.4213H17.4037V24.6317Z" fill="#CECFD2"/>
</svg>
