<svg width="30" height="30" viewBox="0 0 30 30" fill="none" xmlns="http://www.w3.org/2000/svg">
<path opacity="0.4" d="M17.9145 16.7637H12.9731C12.6322 16.7637 12.3555 17.0601 12.3555 17.4254V29.337C12.3555 29.7023 12.6322 29.9988 12.9731 29.9988H17.9145C18.2555 29.9988 18.5322 29.7023 18.5322 29.337V17.4254C18.5322 17.0601 18.2555 16.7637 17.9145 16.7637Z" fill="#CECFD2"/>
<path opacity="0.3" d="M5.55904 23.8242H0.617671C0.276716 23.8242 0 24.1009 0 24.4419V29.383C0 29.7239 0.276716 30.0006 0.617671 30.0006H5.55904C5.89999 30.0006 6.17671 29.7239 6.17671 29.383V24.4419C6.17671 24.1009 5.89999 23.8242 5.55904 23.8242Z" fill="#CECFD2"/>
<path opacity="0.7" d="M29.3833 10.5898H24.4419C24.1009 10.5898 23.8242 10.8797 23.8242 11.2369V29.3543C23.8242 29.7115 24.1009 30.0013 24.4419 30.0013H29.3833C29.7242 30.0013 30.0009 29.7115 30.0009 29.3543V11.2369C30.0009 10.8797 29.7242 10.5898 29.3833 10.5898Z" fill="#CECFD2"/>
<path d="M15.354 10.1748L23.3992 2.21156V6.4779C23.3992 6.83548 23.6924 7.12569 24.0537 7.12569C24.4149 7.12569 24.7081 6.83548 24.7081 6.4779V0.64779C24.7081 0.29021 24.4149 0 24.0537 0H18.1636C17.8023 0 17.5091 0.29021 17.5091 0.64779C17.5091 1.00537 17.8023 1.29558 18.1636 1.29558H22.4738L14.8913 8.80088L10.1184 4.07655C9.86248 3.82326 9.44886 3.82326 9.19297 4.07655L2.64844 10.5545L3.57383 11.4704L9.65567 5.45051L14.4286 10.1748C14.6845 10.4281 15.0981 10.4281 15.354 10.1748Z" fill="#CECFD2"/>
</svg>
