<svg width="24" height="24" viewBox="0 0 24 24" fill="none" xmlns="http://www.w3.org/2000/svg">
<path d="M10.8518 19.7734L10.4688 20.6974" stroke="#CECFD2" stroke-width="2" stroke-linecap="round" stroke-linejoin="round"/>
<path d="M13.1484 14.2277L13.5314 13.3047" stroke="#CECFD2" stroke-width="2" stroke-linecap="round" stroke-linejoin="round"/>
<path d="M13.1477 19.7717C13.5118 19.6209 13.8425 19.3999 14.1212 19.1214C14.3998 18.8428 14.6208 18.512 14.7716 18.148C14.9224 17.784 15 17.3939 15.0001 16.9999C15.0001 16.6059 14.9225 16.2157 14.7718 15.8517C14.621 15.4877 14.4 15.1569 14.1214 14.8783C13.8428 14.5997 13.5121 14.3786 13.1481 14.2278C12.7841 14.077 12.3939 13.9994 11.9999 13.9994C11.6059 13.9993 11.2158 14.0769 10.8518 14.2277L10.4688 13.3047" stroke="#CECFD2" stroke-width="2" stroke-linecap="round" stroke-linejoin="round"/>
<path d="M13.5303 20.6946L13.1483 19.7706C12.4131 20.075 11.5871 20.075 10.852 19.7704C10.1168 19.4659 9.53278 18.8817 9.22831 18.1466C8.92385 17.4114 8.9239 16.5854 9.22846 15.8502C9.53302 15.1151 10.1171 14.531 10.8523 14.2266" stroke="#CECFD2" stroke-width="2" stroke-linecap="round" stroke-linejoin="round"/>
<path d="M14.7734 15.8518L15.6964 15.4688" stroke="#CECFD2" stroke-width="2" stroke-linecap="round" stroke-linejoin="round"/>
<path d="M14.7734 18.1484L15.6964 18.5314" stroke="#CECFD2" stroke-width="2" stroke-linecap="round" stroke-linejoin="round"/>
<path d="M4.19831 15.1013C3.51523 14.4574 2.96865 13.6826 2.59109 12.8231C2.21353 11.9636 2.01271 11.037 2.00058 10.0983C1.98845 9.15958 2.16526 8.22804 2.52048 7.35908C2.8757 6.49011 3.40208 5.70148 4.0683 5.04009C4.73451 4.3787 5.52696 3.85808 6.39849 3.50919C7.27001 3.1603 8.20281 2.99028 9.14138 3.00924C10.08 3.0282 11.0051 3.23576 11.8619 3.61956C12.7186 4.00336 13.4894 4.55557 14.1283 5.24332C14.8595 6.02934 15.4001 6.97299 15.7083 8.00132H17.4983C18.4522 8.01418 19.3773 8.32984 20.1401 8.90273C20.9029 9.47562 21.4639 10.2761 21.7421 11.1886C22.0203 12.1011 22.0013 13.0784 21.6878 13.9794C21.3744 14.8804 20.7828 15.6585 19.9983 16.2013" stroke="#CECFD2" stroke-width="2" stroke-linecap="round" stroke-linejoin="round"/>
<path d="M9.22769 15.8518L8.30469 15.4688" stroke="#CECFD2" stroke-width="2" stroke-linecap="round" stroke-linejoin="round"/>
<path d="M9.22769 18.1484L8.30469 18.5314" stroke="#CECFD2" stroke-width="2" stroke-linecap="round" stroke-linejoin="round"/>
</svg>
