<svg width="24" height="24" viewBox="0 0 24 24" fill="none" xmlns="http://www.w3.org/2000/svg">
<path d="M15 2H6C5.46957 2 4.96086 2.21071 4.58579 2.58579C4.21071 2.96086 4 3.46957 4 4V20C4 20.5304 4.21071 21.0391 4.58579 21.4142C4.96086 21.7893 5.46957 22 6 22H18C18.5304 22 19.0391 21.7893 19.4142 21.4142C19.7893 21.0391 20 20.5304 20 20V7L15 2Z" stroke="#F0F0F1" stroke-width="2" stroke-linecap="round" stroke-linejoin="round"/>
<path d="M15 12H9C8.44772 12 8 12.4477 8 13V17C8 17.5523 8.44772 18 9 18H15C15.5523 18 16 17.5523 16 17V13C16 12.4477 15.5523 12 15 12Z" stroke="#F0F0F1" stroke-width="2" stroke-linecap="round" stroke-linejoin="round"/>
<path d="M10 12V10C10 9.46957 10.2107 8.96086 10.5858 8.58579C10.9609 8.21071 11.4696 8 12 8C12.5304 8 13.0391 8.21071 13.4142 8.58579C13.7893 8.96086 14 9.46957 14 10V12" stroke="#F0F0F1" stroke-width="2" stroke-linecap="round" stroke-linejoin="round"/>
</svg>
