<svg width="24" height="25" viewBox="0 0 24 25" fill="none" xmlns="http://www.w3.org/2000/svg">
<path d="M12 3.11328V20.1133C12 20.3785 11.8946 20.6329 11.7071 20.8204C11.5196 21.0079 11.2652 21.1133 11 21.1133H5C4.46957 21.1133 3.96086 20.9026 3.58579 20.5275C3.21071 20.1524 3 19.6437 3 19.1133V5.11328C3 4.58285 3.21071 4.07414 3.58579 3.69907C3.96086 3.32399 4.46957 3.11328 5 3.11328H19C19.5304 3.11328 20.0391 3.32399 20.4142 3.69907C20.7893 4.07414 21 4.58285 21 5.11328V11.1133C21 11.3785 20.8946 11.6329 20.7071 11.8204C20.5196 12.0079 20.2652 12.1133 20 12.1133H3" stroke="#F0F0F1" stroke-width="2" stroke-linecap="round" stroke-linejoin="round"/>
<path d="M16 19.1133L18 21.1133L22 17.1133" stroke="#F0F0F1" stroke-width="2" stroke-linecap="round" stroke-linejoin="round"/>
</svg>
