<svg width="33" height="33" viewBox="0 0 33 33" fill="none" xmlns="http://www.w3.org/2000/svg">
<path fill-rule="evenodd" clip-rule="evenodd" d="M26.1076 27.166C25.3703 27.166 24.7743 26.57 24.7743 25.8327C24.7743 25.0954 25.3703 24.4993 26.1076 24.4993C26.8449 24.4993 27.4409 25.0954 27.4409 25.8327C27.4409 26.57 26.8449 27.166 26.1076 27.166ZM26.1076 21.8327C23.9023 21.8327 22.1076 23.6273 22.1076 25.8327C22.1076 28.038 23.9023 29.8327 26.1076 29.8327C28.3129 29.8327 30.1076 28.038 30.1076 25.8327C30.1076 23.6273 28.3129 21.8327 26.1076 21.8327ZM16.7743 27.166C16.0369 27.166 15.4409 26.57 15.4409 25.8327C15.4409 25.0954 16.0369 24.4993 16.7743 24.4993C17.5116 24.4993 18.1076 25.0954 18.1076 25.8327C18.1076 26.57 17.5116 27.166 16.7743 27.166ZM16.7743 21.8327C14.5689 21.8327 12.7743 23.6273 12.7743 25.8327C12.7743 28.038 14.5689 29.8327 16.7743 29.8327C18.9796 29.8327 20.7743 28.038 20.7743 25.8327C20.7743 23.6273 18.9796 21.8327 16.7743 21.8327ZM7.44092 27.166C6.70358 27.166 6.10758 26.57 6.10758 25.8327C6.10758 25.0954 6.70358 24.4993 7.44092 24.4993C8.17825 24.4993 8.77425 25.0954 8.77425 25.8327C8.77425 26.57 8.17825 27.166 7.44092 27.166ZM7.44092 21.8327C5.23558 21.8327 3.44092 23.6273 3.44092 25.8327C3.44092 28.038 5.23558 29.8327 7.44092 29.8327C9.64625 29.8327 11.4409 28.038 11.4409 25.8327C11.4409 23.6273 9.64625 21.8327 7.44092 21.8327ZM26.1076 17.8327C25.3703 17.8327 24.7743 17.2367 24.7743 16.4993C24.7743 15.762 25.3703 15.166 26.1076 15.166C26.8449 15.166 27.4409 15.762 27.4409 16.4993C27.4409 17.2367 26.8449 17.8327 26.1076 17.8327ZM26.1076 12.4993C23.9023 12.4993 22.1076 14.294 22.1076 16.4993C22.1076 18.7047 23.9023 20.4993 26.1076 20.4993C28.3129 20.4993 30.1076 18.7047 30.1076 16.4993C30.1076 14.294 28.3129 12.4993 26.1076 12.4993ZM16.7743 17.8327C16.0369 17.8327 15.4409 17.2367 15.4409 16.4993C15.4409 15.762 16.0369 15.166 16.7743 15.166C17.5116 15.166 18.1076 15.762 18.1076 16.4993C18.1076 17.2367 17.5116 17.8327 16.7743 17.8327ZM16.7743 12.4993C14.5689 12.4993 12.7743 14.294 12.7743 16.4993C12.7743 18.7047 14.5689 20.4993 16.7743 20.4993C18.9796 20.4993 20.7743 18.7047 20.7743 16.4993C20.7743 14.294 18.9796 12.4993 16.7743 12.4993ZM7.44092 17.8327C6.70358 17.8327 6.10758 17.2367 6.10758 16.4993C6.10758 15.762 6.70358 15.166 7.44092 15.166C8.17825 15.166 8.77425 15.762 8.77425 16.4993C8.77425 17.2367 8.17825 17.8327 7.44092 17.8327ZM7.44092 12.4993C5.23558 12.4993 3.44092 14.294 3.44092 16.4993C3.44092 18.7047 5.23558 20.4993 7.44092 20.4993C9.64625 20.4993 11.4409 18.7047 11.4409 16.4993C11.4409 14.294 9.64625 12.4993 7.44092 12.4993ZM26.1076 5.83268C26.8449 5.83268 27.4409 6.42868 27.4409 7.16602C27.4409 7.90335 26.8449 8.49935 26.1076 8.49935C25.3703 8.49935 24.7743 7.90335 24.7743 7.16602C24.7743 6.42868 25.3703 5.83268 26.1076 5.83268ZM26.1076 11.166C28.3129 11.166 30.1076 9.37135 30.1076 7.16602C30.1076 4.96068 28.3129 3.16602 26.1076 3.16602C23.9023 3.16602 22.1076 4.96068 22.1076 7.16602C22.1076 9.37135 23.9023 11.166 26.1076 11.166ZM16.7743 8.49935C16.0369 8.49935 15.4409 7.90202 15.4409 7.16602C15.4409 6.42868 16.0369 5.83268 16.7743 5.83268C17.5116 5.83268 18.1076 6.42868 18.1076 7.16602C18.1076 7.90202 17.5116 8.49935 16.7743 8.49935ZM16.7743 3.16602C14.5689 3.16602 12.7743 4.96068 12.7743 7.16602C12.7743 9.37135 14.5689 11.166 16.7743 11.166C18.9796 11.166 20.7743 9.37135 20.7743 7.16602C20.7743 4.96068 18.9796 3.16602 16.7743 3.16602ZM7.44092 8.49935C6.70358 8.49935 6.10758 7.90335 6.10758 7.16602C6.10758 6.42868 6.70358 5.83268 7.44092 5.83268C8.17825 5.83268 8.77425 6.42868 8.77425 7.16602C8.77425 7.90335 8.17825 8.49935 7.44092 8.49935ZM7.44092 3.16602C5.23558 3.16602 3.44092 4.96068 3.44092 7.16602C3.44092 9.37135 5.23558 11.166 7.44092 11.166C9.64625 11.166 11.4409 9.37135 11.4409 7.16602C11.4409 4.96068 9.64625 3.16602 7.44092 3.16602Z" fill="white"/>
<mask id="mask0_29604_33739" style="mask-type:luminance" maskUnits="userSpaceOnUse" x="3" y="3" width="28" height="27">
<path fill-rule="evenodd" clip-rule="evenodd" d="M26.1076 27.166C25.3703 27.166 24.7743 26.57 24.7743 25.8327C24.7743 25.0954 25.3703 24.4993 26.1076 24.4993C26.8449 24.4993 27.4409 25.0954 27.4409 25.8327C27.4409 26.57 26.8449 27.166 26.1076 27.166ZM26.1076 21.8327C23.9023 21.8327 22.1076 23.6273 22.1076 25.8327C22.1076 28.038 23.9023 29.8327 26.1076 29.8327C28.3129 29.8327 30.1076 28.038 30.1076 25.8327C30.1076 23.6273 28.3129 21.8327 26.1076 21.8327ZM16.7743 27.166C16.0369 27.166 15.4409 26.57 15.4409 25.8327C15.4409 25.0954 16.0369 24.4993 16.7743 24.4993C17.5116 24.4993 18.1076 25.0954 18.1076 25.8327C18.1076 26.57 17.5116 27.166 16.7743 27.166ZM16.7743 21.8327C14.5689 21.8327 12.7743 23.6273 12.7743 25.8327C12.7743 28.038 14.5689 29.8327 16.7743 29.8327C18.9796 29.8327 20.7743 28.038 20.7743 25.8327C20.7743 23.6273 18.9796 21.8327 16.7743 21.8327ZM7.44092 27.166C6.70358 27.166 6.10758 26.57 6.10758 25.8327C6.10758 25.0954 6.70358 24.4993 7.44092 24.4993C8.17825 24.4993 8.77425 25.0954 8.77425 25.8327C8.77425 26.57 8.17825 27.166 7.44092 27.166ZM7.44092 21.8327C5.23558 21.8327 3.44092 23.6273 3.44092 25.8327C3.44092 28.038 5.23558 29.8327 7.44092 29.8327C9.64625 29.8327 11.4409 28.038 11.4409 25.8327C11.4409 23.6273 9.64625 21.8327 7.44092 21.8327ZM26.1076 17.8327C25.3703 17.8327 24.7743 17.2367 24.7743 16.4993C24.7743 15.762 25.3703 15.166 26.1076 15.166C26.8449 15.166 27.4409 15.762 27.4409 16.4993C27.4409 17.2367 26.8449 17.8327 26.1076 17.8327ZM26.1076 12.4993C23.9023 12.4993 22.1076 14.294 22.1076 16.4993C22.1076 18.7047 23.9023 20.4993 26.1076 20.4993C28.3129 20.4993 30.1076 18.7047 30.1076 16.4993C30.1076 14.294 28.3129 12.4993 26.1076 12.4993ZM16.7743 17.8327C16.0369 17.8327 15.4409 17.2367 15.4409 16.4993C15.4409 15.762 16.0369 15.166 16.7743 15.166C17.5116 15.166 18.1076 15.762 18.1076 16.4993C18.1076 17.2367 17.5116 17.8327 16.7743 17.8327ZM16.7743 12.4993C14.5689 12.4993 12.7743 14.294 12.7743 16.4993C12.7743 18.7047 14.5689 20.4993 16.7743 20.4993C18.9796 20.4993 20.7743 18.7047 20.7743 16.4993C20.7743 14.294 18.9796 12.4993 16.7743 12.4993ZM7.44092 17.8327C6.70358 17.8327 6.10758 17.2367 6.10758 16.4993C6.10758 15.762 6.70358 15.166 7.44092 15.166C8.17825 15.166 8.77425 15.762 8.77425 16.4993C8.77425 17.2367 8.17825 17.8327 7.44092 17.8327ZM7.44092 12.4993C5.23558 12.4993 3.44092 14.294 3.44092 16.4993C3.44092 18.7047 5.23558 20.4993 7.44092 20.4993C9.64625 20.4993 11.4409 18.7047 11.4409 16.4993C11.4409 14.294 9.64625 12.4993 7.44092 12.4993ZM26.1076 5.83268C26.8449 5.83268 27.4409 6.42868 27.4409 7.16602C27.4409 7.90335 26.8449 8.49935 26.1076 8.49935C25.3703 8.49935 24.7743 7.90335 24.7743 7.16602C24.7743 6.42868 25.3703 5.83268 26.1076 5.83268ZM26.1076 11.166C28.3129 11.166 30.1076 9.37135 30.1076 7.16602C30.1076 4.96068 28.3129 3.16602 26.1076 3.16602C23.9023 3.16602 22.1076 4.96068 22.1076 7.16602C22.1076 9.37135 23.9023 11.166 26.1076 11.166ZM16.7743 8.49935C16.0369 8.49935 15.4409 7.90202 15.4409 7.16602C15.4409 6.42868 16.0369 5.83268 16.7743 5.83268C17.5116 5.83268 18.1076 6.42868 18.1076 7.16602C18.1076 7.90202 17.5116 8.49935 16.7743 8.49935ZM16.7743 3.16602C14.5689 3.16602 12.7743 4.96068 12.7743 7.16602C12.7743 9.37135 14.5689 11.166 16.7743 11.166C18.9796 11.166 20.7743 9.37135 20.7743 7.16602C20.7743 4.96068 18.9796 3.16602 16.7743 3.16602ZM7.44092 8.49935C6.70358 8.49935 6.10758 7.90335 6.10758 7.16602C6.10758 6.42868 6.70358 5.83268 7.44092 5.83268C8.17825 5.83268 8.77425 6.42868 8.77425 7.16602C8.77425 7.90335 8.17825 8.49935 7.44092 8.49935ZM7.44092 3.16602C5.23558 3.16602 3.44092 4.96068 3.44092 7.16602C3.44092 9.37135 5.23558 11.166 7.44092 11.166C9.64625 11.166 11.4409 9.37135 11.4409 7.16602C11.4409 4.96068 9.64625 3.16602 7.44092 3.16602Z" fill="white"/>
</mask>
<g mask="url(#mask0_29604_33739)">
<rect x="0.774414" y="0.5" width="32" height="32" fill="#CECFD2"/>
</g>
</svg>
