<svg width="33" height="33" viewBox="0 0 33 33" fill="none" xmlns="http://www.w3.org/2000/svg">
<path fill-rule="evenodd" clip-rule="evenodd" d="M27.9892 19.2428C27.2919 18.9948 26.5319 19.3588 26.2879 20.0548C24.7839 24.3082 20.7399 27.1655 16.2279 27.1655C10.3465 27.1655 5.5612 22.3815 5.5612 16.4988C5.5612 11.9868 8.41853 7.94284 12.6719 6.43884C13.3665 6.19484 13.7305 5.43351 13.4852 4.73884C13.2399 4.04551 12.4785 3.68017 11.7839 3.92684C6.46653 5.80551 2.89453 10.8575 2.89453 16.4988C2.89453 23.8508 8.87586 29.8322 16.2279 29.8322C21.8692 29.8322 26.9212 26.2615 28.8012 20.9428C29.0465 20.2495 28.6839 19.4882 27.9892 19.2428ZM18.8942 13.8327V5.92733C22.9755 6.51399 26.2129 9.74999 26.7995 13.8327H18.8942ZM17.5608 3.16602C16.8248 3.16602 16.2275 3.76202 16.2275 4.49935V15.166C16.2275 15.9033 16.8248 16.4993 17.5608 16.4993H28.2275C28.9635 16.4993 29.5608 15.9033 29.5608 15.166C29.5608 8.54868 24.1768 3.16602 17.5608 3.16602Z" fill="white"/>
<mask id="mask0_29604_33732" style="mask-type:luminance" maskUnits="userSpaceOnUse" x="2" y="3" width="28" height="27">
<path fill-rule="evenodd" clip-rule="evenodd" d="M27.9892 19.2428C27.2919 18.9948 26.5319 19.3588 26.2879 20.0548C24.7839 24.3082 20.7399 27.1655 16.2279 27.1655C10.3465 27.1655 5.5612 22.3815 5.5612 16.4988C5.5612 11.9868 8.41853 7.94284 12.6719 6.43884C13.3665 6.19484 13.7305 5.43351 13.4852 4.73884C13.2399 4.04551 12.4785 3.68017 11.7839 3.92684C6.46653 5.80551 2.89453 10.8575 2.89453 16.4988C2.89453 23.8508 8.87586 29.8322 16.2279 29.8322C21.8692 29.8322 26.9212 26.2615 28.8012 20.9428C29.0465 20.2495 28.6839 19.4882 27.9892 19.2428ZM18.8942 13.8327V5.92733C22.9755 6.51399 26.2129 9.74999 26.7995 13.8327H18.8942ZM17.5608 3.16602C16.8248 3.16602 16.2275 3.76202 16.2275 4.49935V15.166C16.2275 15.9033 16.8248 16.4993 17.5608 16.4993H28.2275C28.9635 16.4993 29.5608 15.9033 29.5608 15.166C29.5608 8.54868 24.1768 3.16602 17.5608 3.16602Z" fill="white"/>
</mask>
<g mask="url(#mask0_29604_33732)">
<rect x="0.227539" y="0.5" width="32" height="32" fill="#CECFD2"/>
</g>
</svg>
