<svg width="36" height="36" viewBox="0 0 36 36" fill="none" xmlns="http://www.w3.org/2000/svg">
<path d="M25.6414 10.3582C23.5264 8.25222 20.7634 7.19922 18.0004 7.19922V17.9992L10.3594 25.6402C14.5804 29.8612 21.4114 29.8612 25.6324 25.6402C29.8534 21.4192 29.8534 14.5792 25.6414 10.3582Z" fill="#CECFD2"/>
<path opacity="0.5" d="M18 0C27.945 0 36 8.055 36 18C36 27.936 27.945 36 18 36C8.055 36 0 27.945 0 18C0 8.055 8.055 0 18 0ZM18 3.60059C10.044 3.60059 3.59966 10.044 3.59961 18C3.59961 25.956 10.044 32.4004 18 32.4004C25.9558 32.4002 32.3994 25.9559 32.3994 18C32.3994 10.0442 25.9558 3.6008 18 3.60059Z" fill="#CECFD2"/>
</svg>
