<svg width="33" height="33" viewBox="0 0 33 33" fill="none" xmlns="http://www.w3.org/2000/svg">
<path fill-rule="evenodd" clip-rule="evenodd" d="M23.9077 21.2203L16.2277 25.6297L8.54769 21.2203L10.8064 20.259L15.5637 22.9896C15.769 23.1083 15.9984 23.167 16.2277 23.167C16.457 23.167 16.685 23.1083 16.8917 22.9896L21.649 20.2576L23.9077 21.2203ZM15.5637 17.6563C15.769 17.775 15.9984 17.8336 16.2277 17.8336C16.457 17.8336 16.685 17.775 16.8917 17.6563L21.649 14.9243L23.9077 15.887L16.2277 20.2963L8.54769 15.887L10.8064 14.9243L15.5637 17.6563ZM16.2277 7.28304L23.9077 10.5537L16.2277 14.963L8.54769 10.5537L16.2277 7.28304ZM28.2251 15.631C28.1945 15.1257 27.8811 14.6817 27.4158 14.483L24.5465 13.2617L27.5585 11.5323C27.9971 11.2817 28.2545 10.803 28.2251 10.2977C28.1945 9.79367 27.8811 9.34833 27.4158 9.14967L16.7491 4.607C16.4158 4.46433 16.0385 4.46433 15.7051 4.607L5.03848 9.14967C4.57315 9.34833 4.25981 9.79367 4.23048 10.2977C4.19981 10.803 4.45848 11.2817 4.89715 11.5323L7.90781 13.2617L5.03848 14.483C4.57315 14.6817 4.25981 15.1257 4.23048 15.631C4.19981 16.1363 4.45848 16.615 4.89715 16.8657L7.90781 18.595L5.03848 19.8163C4.57315 20.015 4.25981 20.459 4.23048 20.9643C4.19981 21.4697 4.45848 21.9483 4.89715 22.199L15.5638 28.323C15.7691 28.4417 15.9985 28.5003 16.2278 28.5003C16.4571 28.5003 16.6851 28.4417 16.8918 28.323L27.5585 22.199C27.9971 21.9483 28.2545 21.4697 28.2251 20.9643C28.1945 20.4603 27.8811 20.015 27.4171 19.8163L24.5478 18.5937L27.5585 16.8657C27.9971 16.615 28.2545 16.1363 28.2251 15.631Z" fill="white"/>
<mask id="mask0_29604_33727" style="mask-type:luminance" maskUnits="userSpaceOnUse" x="4" y="4" width="25" height="25">
<path fill-rule="evenodd" clip-rule="evenodd" d="M23.9077 21.2203L16.2277 25.6297L8.54769 21.2203L10.8064 20.259L15.5637 22.9896C15.769 23.1083 15.9984 23.167 16.2277 23.167C16.457 23.167 16.685 23.1083 16.8917 22.9896L21.649 20.2576L23.9077 21.2203ZM15.5637 17.6563C15.769 17.775 15.9984 17.8336 16.2277 17.8336C16.457 17.8336 16.685 17.775 16.8917 17.6563L21.649 14.9243L23.9077 15.887L16.2277 20.2963L8.54769 15.887L10.8064 14.9243L15.5637 17.6563ZM16.2277 7.28304L23.9077 10.5537L16.2277 14.963L8.54769 10.5537L16.2277 7.28304ZM28.2251 15.631C28.1945 15.1257 27.8811 14.6817 27.4158 14.483L24.5465 13.2617L27.5585 11.5323C27.9971 11.2817 28.2545 10.803 28.2251 10.2977C28.1945 9.79367 27.8811 9.34833 27.4158 9.14967L16.7491 4.607C16.4158 4.46433 16.0385 4.46433 15.7051 4.607L5.03848 9.14967C4.57315 9.34833 4.25981 9.79367 4.23048 10.2977C4.19981 10.803 4.45848 11.2817 4.89715 11.5323L7.90781 13.2617L5.03848 14.483C4.57315 14.6817 4.25981 15.1257 4.23048 15.631C4.19981 16.1363 4.45848 16.615 4.89715 16.8657L7.90781 18.595L5.03848 19.8163C4.57315 20.015 4.25981 20.459 4.23048 20.9643C4.19981 21.4697 4.45848 21.9483 4.89715 22.199L15.5638 28.323C15.7691 28.4417 15.9985 28.5003 16.2278 28.5003C16.4571 28.5003 16.6851 28.4417 16.8918 28.323L27.5585 22.199C27.9971 21.9483 28.2545 21.4697 28.2251 20.9643C28.1945 20.4603 27.8811 20.015 27.4171 19.8163L24.5478 18.5937L27.5585 16.8657C27.9971 16.615 28.2545 16.1363 28.2251 15.631Z" fill="white"/>
</mask>
<g mask="url(#mask0_29604_33727)">
<rect x="0.227539" y="0.5" width="32" height="32" fill="#CECFD2"/>
</g>
</svg>
