<svg width="33" height="33" viewBox="0 0 33 33" fill="none" xmlns="http://www.w3.org/2000/svg">
<path fill-rule="evenodd" clip-rule="evenodd" d="M28.7639 9.784C28.7613 9.688 28.7333 9.59733 28.7079 9.50533C28.6879 9.428 28.6786 9.34933 28.6453 9.27867C28.6146 9.20933 28.5626 9.15333 28.5173 9.08933C28.4613 9.008 28.4106 8.92667 28.3386 8.86C28.3266 8.848 28.3213 8.832 28.3079 8.82133C28.2599 8.78 28.2013 8.76533 28.1493 8.732C28.0693 8.68 27.9906 8.62667 27.8999 8.592C27.8106 8.56 27.7226 8.552 27.6306 8.53867C27.5666 8.52933 27.5093 8.5 27.4413 8.5H20.7746C20.0373 8.5 19.4413 9.09733 19.4413 9.83333C19.4413 10.5693 20.0373 11.1667 20.7746 11.1667H24.5426L19.1613 17.444L13.4599 14.024C12.8959 13.6827 12.1706 13.808 11.7493 14.3133L5.08259 22.3133C4.61192 22.8787 4.68792 23.72 5.25325 24.1907C5.50392 24.3987 5.80525 24.5 6.10659 24.5C6.48925 24.5 6.86792 24.3373 7.13192 24.02L13.0679 16.8973L18.7546 20.3107C19.3133 20.6453 20.0306 20.528 20.4533 20.0347L26.1079 13.4373V16.5C26.1079 17.236 26.7039 17.8333 27.4413 17.8333C28.1786 17.8333 28.7746 17.236 28.7746 16.5V9.83333C28.7746 9.816 28.7653 9.80133 28.7639 9.784Z" fill="white"/>
<mask id="mask0_29604_33745" style="mask-type:luminance" maskUnits="userSpaceOnUse" x="4" y="8" width="25" height="17">
<path fill-rule="evenodd" clip-rule="evenodd" d="M28.7639 9.784C28.7613 9.688 28.7333 9.59733 28.7079 9.50533C28.6879 9.428 28.6786 9.34933 28.6453 9.27867C28.6146 9.20933 28.5626 9.15333 28.5173 9.08933C28.4613 9.008 28.4106 8.92667 28.3386 8.86C28.3266 8.848 28.3213 8.832 28.3079 8.82133C28.2599 8.78 28.2013 8.76533 28.1493 8.732C28.0693 8.68 27.9906 8.62667 27.8999 8.592C27.8106 8.56 27.7226 8.552 27.6306 8.53867C27.5666 8.52933 27.5093 8.5 27.4413 8.5H20.7746C20.0373 8.5 19.4413 9.09733 19.4413 9.83333C19.4413 10.5693 20.0373 11.1667 20.7746 11.1667H24.5426L19.1613 17.444L13.4599 14.024C12.8959 13.6827 12.1706 13.808 11.7493 14.3133L5.08259 22.3133C4.61192 22.8787 4.68792 23.72 5.25325 24.1907C5.50392 24.3987 5.80525 24.5 6.10659 24.5C6.48925 24.5 6.86792 24.3373 7.13192 24.02L13.0679 16.8973L18.7546 20.3107C19.3133 20.6453 20.0306 20.528 20.4533 20.0347L26.1079 13.4373V16.5C26.1079 17.236 26.7039 17.8333 27.4413 17.8333C28.1786 17.8333 28.7746 17.236 28.7746 16.5V9.83333C28.7746 9.816 28.7653 9.80133 28.7639 9.784Z" fill="white"/>
</mask>
<g mask="url(#mask0_29604_33745)">
<rect x="0.774414" y="0.5" width="32" height="32" fill="#CECFD2"/>
</g>
</svg>
