<svg width="40" height="40" viewBox="0 0 40 40" fill="none" xmlns="http://www.w3.org/2000/svg">
<path fill-rule="evenodd" clip-rule="evenodd" d="M34.988 11.605C34.9846 11.485 34.9496 11.3717 34.918 11.2567C34.893 11.16 34.8813 11.0617 34.8396 10.9733C34.8013 10.8867 34.7363 10.8167 34.6796 10.7367C34.6096 10.635 34.5463 10.5333 34.4563 10.45C34.4413 10.435 34.4346 10.415 34.418 10.4017C34.358 10.35 34.2846 10.3317 34.2196 10.29C34.1196 10.225 34.0213 10.1583 33.908 10.115C33.7963 10.075 33.6863 10.065 33.5713 10.0483C33.4913 10.0367 33.4196 10 33.3346 10H25.0013C24.0796 10 23.3346 10.7467 23.3346 11.6667C23.3346 12.5867 24.0796 13.3333 25.0013 13.3333H29.7113L22.9846 21.18L15.858 16.905C15.153 16.4783 14.2463 16.635 13.7196 17.2667L5.38631 27.2667C4.79798 27.9733 4.89298 29.025 5.59965 29.6133C5.91298 29.8733 6.28965 30 6.66631 30C7.14465 30 7.61798 29.7967 7.94798 29.4L15.368 20.4967L22.4763 24.7633C23.1746 25.1817 24.0713 25.035 24.5996 24.4183L31.668 16.1717V20C31.668 20.92 32.413 21.6667 33.3346 21.6667C34.2563 21.6667 35.0013 20.92 35.0013 20V11.6667C35.0013 11.645 34.9896 11.6267 34.988 11.605Z" fill="#03133D"/>
<mask id="mask0_29604_33752" style="mask-type:luminance" maskUnits="userSpaceOnUse" x="5" y="10" width="31" height="20">
<path fill-rule="evenodd" clip-rule="evenodd" d="M34.988 11.605C34.9846 11.485 34.9496 11.3717 34.918 11.2567C34.893 11.16 34.8813 11.0617 34.8396 10.9733C34.8013 10.8867 34.7363 10.8167 34.6796 10.7367C34.6096 10.635 34.5463 10.5333 34.4563 10.45C34.4413 10.435 34.4346 10.415 34.418 10.4017C34.358 10.35 34.2846 10.3317 34.2196 10.29C34.1196 10.225 34.0213 10.1583 33.908 10.115C33.7963 10.075 33.6863 10.065 33.5713 10.0483C33.4913 10.0367 33.4196 10 33.3346 10H25.0013C24.0796 10 23.3346 10.7467 23.3346 11.6667C23.3346 12.5867 24.0796 13.3333 25.0013 13.3333H29.7113L22.9846 21.18L15.858 16.905C15.153 16.4783 14.2463 16.635 13.7196 17.2667L5.38631 27.2667C4.79798 27.9733 4.89298 29.025 5.59965 29.6133C5.91298 29.8733 6.28965 30 6.66631 30C7.14465 30 7.61798 29.7967 7.94798 29.4L15.368 20.4967L22.4763 24.7633C23.1746 25.1817 24.0713 25.035 24.5996 24.4183L31.668 16.1717V20C31.668 20.92 32.413 21.6667 33.3346 21.6667C34.2563 21.6667 35.0013 20.92 35.0013 20V11.6667C35.0013 11.645 34.9896 11.6267 34.988 11.605Z" fill="white"/>
</mask>
<g mask="url(#mask0_29604_33752)">
<rect x="0.000976562" width="40" height="40" fill="#613ACF"/>
</g>
</svg>
