<svg width="38" height="38" viewBox="0 0 38 38" fill="none" xmlns="http://www.w3.org/2000/svg">
<g clip-path="url(#clip0_29604_39164)">
<path d="M38.0006 20.3314C37.9501 20.3556 37.9491 20.3554 37.9439 20.3872C37.922 20.5222 37.9027 20.6576 37.8791 20.7923C37.7089 21.7619 37.3843 22.6747 36.8442 23.5007C36.6929 23.7321 36.5019 23.9415 36.3074 24.1397C35.9371 24.5173 35.5163 24.8345 35.0539 25.0922C34.4674 25.419 33.8533 25.6731 33.1952 25.826C32.537 25.979 31.8748 26.0991 31.201 26.1376C29.8601 26.2144 28.5516 26.0484 27.291 25.5689C26.518 25.2749 25.8061 24.8724 25.1607 24.3525C24.7745 24.0416 24.4653 23.6643 24.1954 23.2535C23.7143 22.5213 23.433 21.7113 23.2799 20.8531C23.1835 20.3129 23.1395 19.768 23.145 19.22C23.1547 18.2481 23.2741 17.2884 23.5325 16.3513C23.8044 15.3656 24.3168 14.5162 25.0613 13.8124C25.3957 13.4962 25.7762 13.2446 26.1828 13.0272C26.7102 12.745 27.2598 12.5227 27.8339 12.3589C28.5149 12.1645 29.2089 12.0452 29.917 12.0191C30.2645 12.0062 30.6131 11.9918 30.9601 12.0056C31.762 12.0374 32.5506 12.1607 33.3233 12.3844C34.0505 12.595 34.7441 12.8813 35.3844 13.287C35.8769 13.5991 36.305 13.9865 36.68 14.4335C37.0043 14.8202 37.2677 15.2447 37.4474 15.7153C37.6219 16.1724 37.7509 16.6446 37.8405 17.1263C37.8799 17.3379 37.909 17.5514 37.9449 17.7637C37.949 17.7876 37.967 17.8092 37.9896 17.8224C38.0006 18.6475 38.0006 19.482 38.0006 20.3314ZM32.2558 15.9423C32.0991 15.7964 31.9152 15.696 31.717 15.6196C31.2606 15.4439 30.7841 15.4056 30.3037 15.444C29.9411 15.473 29.5852 15.5522 29.2591 15.7273C28.9354 15.901 28.6957 16.1499 28.5849 16.5062C28.4691 16.8789 28.4041 17.2624 28.3698 17.6506C28.3527 17.8443 28.3415 18.0388 28.3358 18.2332C28.3261 18.5648 28.3136 18.8969 28.3193 19.2285C28.3253 19.5752 28.3533 19.9215 28.3682 20.2682C28.3876 20.7221 28.4386 21.1718 28.5986 21.5994C28.7441 21.9882 28.9866 22.2979 29.3909 22.4512C29.4942 22.4904 29.5963 22.5342 29.7019 22.566C30.3004 22.7462 30.9018 22.768 31.5068 22.5955C32.2078 22.3956 32.6064 21.9354 32.7198 21.2159C32.806 20.6687 32.814 20.117 32.831 19.566C32.8393 19.2983 32.8166 19.0297 32.8134 18.7614C32.8098 18.4659 32.8252 18.1697 32.8093 17.875C32.7897 17.5132 32.7598 17.1508 32.7091 16.7921C32.6633 16.4678 32.5292 16.1766 32.2558 15.9423Z" fill="url(#paint0_linear_29604_39164)"/>
<path d="M0.0618606 22.5787C0.683712 22.5679 1.30557 22.5571 1.92741 22.5459C1.95347 22.5454 1.97947 22.5415 2.02307 22.5376C2.03336 22.4623 2.05267 22.3869 2.05273 22.3114C2.0543 20.1057 2.05396 17.9 2.05393 15.6943C2.05393 15.6581 2.05393 15.6219 2.05393 15.5741C1.39559 15.4984 0.74298 15.5304 0.0976201 15.5059C0.0480496 15.3211 0.0427206 12.4183 0.0898644 12.1687C0.238137 12.1605 0.389462 12.1488 0.540995 12.1446C0.820098 12.1367 1.09931 12.1312 1.3785 12.1289C1.48882 12.1281 1.59922 12.1431 1.70959 12.1431C3.51425 12.1441 5.31891 12.1426 7.12356 12.1445C7.67196 12.1451 8.22035 12.1545 8.76875 12.1603C8.80529 12.1607 8.84179 12.1654 8.89175 12.1691C8.90314 12.3152 8.92282 12.4597 8.92425 12.6043C8.93097 13.2848 8.93403 13.9653 8.93551 14.6458C8.93608 14.9095 8.92918 15.1731 8.92525 15.4367C8.92487 15.4622 8.92136 15.4875 8.91848 15.5232C8.87167 15.5265 8.83121 15.5316 8.79073 15.5317C8.53745 15.5325 8.28414 15.5301 8.03088 15.5326C7.69892 15.5359 7.36698 15.5422 7.03505 15.5486C6.99459 15.5494 6.95429 15.5589 6.899 15.5663C6.899 15.6272 6.89899 15.679 6.899 15.7308C6.89903 15.9577 6.89981 16.1846 6.89899 16.4115C6.89219 18.2996 6.88505 20.1876 6.87814 22.0757C6.87762 22.2168 6.87807 22.3578 6.87807 22.5116C7.55473 22.6116 8.2362 22.5224 8.91766 22.5856C8.91766 23.6777 8.91766 24.7571 8.91766 25.8464C8.88142 25.8498 8.85133 25.855 8.82124 25.855C5.9032 25.8549 2.98516 25.8544 0.0534553 25.84C0.0410099 25.7068 0.0450424 25.5876 0.0414619 25.4685C0.0405682 25.4388 0.0151327 25.4098 0.000976568 25.3805C0.000976204 24.6198 0.000976204 23.8592 0.00774294 23.074C0.0243629 22.9951 0.0383402 22.9411 0.0431789 22.8863C0.0522096 22.784 0.0559303 22.6813 0.0618606 22.5787Z" fill="url(#paint1_linear_29604_39164)"/>
<path d="M17.3689 34.4697C17.337 34.4137 17.3371 34.412 17.2932 34.408C17.1674 34.3964 17.0415 34.3869 16.9157 34.3756C15.8788 34.2822 14.8651 34.0712 13.8704 33.7678C13.0234 33.5094 12.1966 33.1958 11.4067 32.7953C10.5956 32.3841 9.81387 31.9212 9.0827 31.3768C8.52893 30.9644 8.0007 30.523 7.49827 30.0487C6.93369 29.5157 6.41316 28.944 5.94051 28.3294C5.70998 28.0297 5.49977 27.7143 5.28081 27.4057C5.26599 27.3848 5.25502 27.3612 5.23535 27.3267C5.43588 27.2831 5.62688 27.2925 5.81823 27.3062C5.88468 27.3109 5.91448 27.3582 5.95039 27.4056C6.21404 27.7537 6.47378 28.105 6.74725 28.4453C7.10415 28.8894 7.50316 29.2965 7.91944 29.684C8.2503 29.9919 8.60546 30.2738 8.95059 30.5664C8.98219 30.5932 9.01933 30.6134 9.05645 30.6384C9.61838 30.3887 10.1244 30.0461 10.6689 29.7357C10.6383 29.69 10.6157 29.6509 10.5881 29.6159C10.2821 29.227 9.9712 28.8419 9.67002 28.4494C9.39764 28.0944 9.15117 27.7213 8.92376 27.3053C9.10727 27.3022 9.27128 27.2478 9.44452 27.2793C9.52883 27.2947 9.59153 27.3382 9.63329 27.4087C9.95957 27.9595 10.368 28.4488 10.7778 28.9369C10.8996 29.0819 11.0307 29.219 11.1537 29.3631C11.227 29.4491 11.3015 29.455 11.405 29.4123C12.0773 29.1348 12.7618 28.8904 13.4565 28.6751C13.5822 28.6361 13.7091 28.601 13.8345 28.5611C13.8817 28.546 13.9263 28.5224 13.9821 28.4984C13.8114 28.0959 13.6482 27.711 13.4797 27.3137C13.672 27.2625 13.8494 27.2708 14.0248 27.3032C14.0595 27.3096 14.0922 27.3639 14.1129 27.403C14.2559 27.673 14.3955 27.9448 14.5362 28.216C14.5531 28.2485 14.5701 28.281 14.5935 28.3259C14.6382 28.3216 14.6838 28.3196 14.7286 28.3128C15.3895 28.2126 16.0485 28.0984 16.7115 28.0159C17.1652 27.9594 17.6242 27.9461 18.0809 27.9149C18.1907 27.9074 18.2228 27.8902 18.2436 27.784C18.2574 27.7134 18.2544 27.6393 18.2555 27.5668C18.2561 27.5303 18.2467 27.4937 18.2462 27.4572C18.2442 27.3043 18.2502 27.2982 18.4053 27.297C18.5315 27.2959 18.6577 27.2968 18.7883 27.2968C18.8905 27.4804 18.798 27.6793 18.8628 27.8811C20.0864 27.9713 21.3145 28.0934 22.5345 28.3534C22.5592 28.3087 22.5854 28.2642 22.6088 28.2184C22.7478 27.9463 22.8888 27.6751 23.0233 27.4007C23.0609 27.324 23.1065 27.2908 23.1935 27.295C23.3339 27.3017 23.4749 27.2968 23.6332 27.2968C23.5521 27.7281 23.2976 28.066 23.1624 28.4718C23.2204 28.5001 23.2716 28.5352 23.3282 28.5511C24.0289 28.747 24.7126 28.9917 25.3872 29.2628C25.5331 29.3214 25.6803 29.3764 25.8345 29.436C26.0523 29.2358 26.2506 29.018 26.4274 28.7838C26.7696 28.3304 27.1028 27.8702 27.433 27.408C27.4924 27.3248 27.5516 27.2898 27.6524 27.2947C27.8133 27.3024 27.9748 27.2967 28.1604 27.2967C27.6643 28.175 27.0496 28.9274 26.4182 29.6887C26.5648 29.7779 26.6968 29.8617 26.8322 29.9398C27.2057 30.1555 27.5817 30.3668 27.9538 30.5848C28.0318 30.6305 28.0876 30.6216 28.1519 30.5665C28.4155 30.3403 28.6877 30.1237 28.9446 29.8902C29.5462 29.3434 30.0926 28.7439 30.5984 28.108C30.7817 27.8774 30.9536 27.6376 31.1285 27.4004C31.1676 27.3474 31.2032 27.3073 31.2795 27.3098C31.4626 27.3156 31.646 27.3117 31.8601 27.3117C31.7529 27.4708 31.6637 27.6112 31.5667 27.746C31.1325 28.3489 30.6684 28.9269 30.1612 29.4712C29.3424 30.35 28.4349 31.1234 27.4392 31.7934C26.2084 32.6215 24.8841 33.2583 23.4707 33.7082C22.4088 34.0462 21.3235 34.2732 20.2132 34.3762C20.098 34.3869 19.9824 34.3944 19.8676 34.4086C19.8339 34.4128 19.8025 34.4349 19.7812 34.4593C18.9895 34.4697 18.1866 34.4697 17.3689 34.4697ZM22.2042 29.0096C22.2455 28.9397 22.2257 28.9074 22.145 28.8928C21.7568 28.8224 21.3718 28.7271 20.9809 28.6798C20.3918 28.6084 19.7987 28.5682 19.2071 28.5181C19.1039 28.5093 18.9993 28.5168 18.9002 28.5168C18.8122 28.8709 18.8309 31.5082 18.8996 31.8455C18.9375 31.8539 18.9778 31.8654 19.0189 31.8716C19.263 31.9088 19.5072 31.9459 19.7517 31.9805C19.8557 31.9952 19.9608 32.0025 20.0651 32.0155C20.1633 32.0278 20.2282 31.991 20.2906 31.9105C20.998 30.9986 21.6486 30.0497 22.2042 29.0096ZM18.2458 30.5904C18.2458 30.4163 18.2458 30.2422 18.2458 30.0681C18.2458 29.8993 18.2458 29.7305 18.2458 29.5617C18.2458 29.3876 18.2469 29.2135 18.2455 29.0394C18.2442 28.868 18.2518 28.6959 18.239 28.5097C17.9601 28.5194 17.7022 28.5197 17.4457 28.5394C17.0947 28.5663 16.7435 28.5983 16.3948 28.6457C15.9621 28.7044 15.5317 28.7794 15.101 28.8517C15.0377 28.8623 14.9783 28.8968 14.9042 28.9251C15.5007 30.047 16.1826 31.0799 16.9809 32.0196C17.4185 31.9594 17.8388 31.9015 18.272 31.8419C18.263 31.4209 18.2544 31.0215 18.2458 30.5904ZM14.6772 32.2231C14.8619 32.3242 15.0504 32.4191 15.2299 32.5286C15.3563 32.6057 15.4675 32.6131 15.5935 32.5314C15.6631 32.4863 15.7476 32.4644 15.8246 32.4305C15.9831 32.3608 16.1412 32.29 16.3041 32.2176C16.0331 31.8244 15.7708 31.4428 15.5073 31.0621C15.0934 30.4642 14.7065 29.8495 14.3537 29.2136C14.2683 29.0596 14.2553 29.0536 14.0814 29.1001C13.4039 29.2813 12.7403 29.5029 12.0972 29.7837C11.988 29.8313 11.8813 29.8846 11.7573 29.9429C11.796 29.9912 11.8175 30.026 11.8464 30.0529C12.1001 30.2901 12.3487 30.5332 12.611 30.7606C13.2453 31.3107 13.9308 31.7903 14.6772 32.2231ZM24.1069 31.0424C24.535 30.6968 24.9449 30.3323 25.3143 29.9079C24.5562 29.5351 23.7832 29.2807 22.9876 29.0911C22.8678 29.0625 22.8527 29.0727 22.7899 29.1882C22.7245 29.3084 22.6602 29.4292 22.5921 29.5478C22.0991 30.4073 21.5565 31.2343 20.9636 32.0284C20.9212 32.0851 20.8921 32.1517 20.8498 32.2261C21.1466 32.3558 21.4251 32.4775 21.704 32.5994C22.5506 32.1603 23.3513 31.6568 24.1069 31.0424ZM21.1311 33.677C21.4009 33.6192 21.6792 33.596 21.9571 33.4906C21.9222 33.4525 21.9056 33.4262 21.8819 33.4101C21.7906 33.348 21.6992 33.2854 21.6039 33.2299C20.7484 32.7313 19.8164 32.503 18.8351 32.4608C18.2808 32.4369 17.7304 32.4864 17.1878 32.6045C16.4919 32.756 15.84 33.0155 15.2457 33.4119C15.2191 33.4297 15.2009 33.4599 15.1662 33.4982C15.2405 33.5194 15.2941 33.5378 15.3491 33.5501C16.0124 33.6984 16.683 33.8013 17.3608 33.8482C17.7701 33.8765 18.1808 33.8945 18.591 33.8961C18.9324 33.8974 19.2752 33.8809 19.6153 33.8493C20.1123 33.8032 20.6075 33.7364 21.1311 33.677ZM24.5262 31.4606C24.102 31.7721 23.6821 32.0898 23.2519 32.3927C23.0069 32.5651 22.7445 32.7127 22.4911 32.8732C22.4464 32.9015 22.4073 32.9386 22.3512 32.9831C22.4733 33.0746 22.5743 33.1496 22.6746 33.2257C22.7433 33.2778 22.8144 33.2853 22.8974 33.258C23.1371 33.1792 23.3835 33.1182 23.6186 33.0279C24.1043 32.8413 24.5873 32.6469 25.066 32.4433C25.7019 32.1729 26.3075 31.844 26.8806 31.4574C27.0759 31.3257 27.2644 31.1837 27.4709 31.0358C26.9779 30.6907 26.4776 30.4083 25.963 30.2044C25.4771 30.6288 25.0098 31.037 24.5262 31.4606ZM12.8038 31.6568C12.2164 31.2127 11.6655 30.7257 11.1335 30.2156C10.6062 30.4457 10.133 30.7442 9.64095 31.0553C9.7032 31.1051 9.74152 31.1398 9.78375 31.1688C9.89214 31.2431 10.0024 31.3148 10.1117 31.3878C10.9287 31.9333 11.7947 32.3859 12.7065 32.7509C13.1996 32.9483 13.7031 33.1153 14.2156 33.2549C14.2808 33.2727 14.3467 33.2976 14.4133 33.2529C14.5255 33.1775 14.6406 33.106 14.7121 33.0011C14.0782 32.5549 13.45 32.1128 12.8038 31.6568Z" fill="url(#paint2_linear_29604_39164)"/>
<path d="M19.7461 3.5625C19.7648 3.61366 19.7647 3.61428 19.7996 3.61717C19.9463 3.62934 20.0932 3.63897 20.2396 3.65339C20.9165 3.72002 21.5841 3.83872 22.246 3.9953C23.1973 4.22031 24.1178 4.53426 25.01 4.93154C26.0285 5.38501 26.989 5.93972 27.8919 6.59394C28.4596 7.00529 28.9934 7.4566 29.5052 7.93599C30.1373 8.52815 30.7032 9.17832 31.2309 9.86283C31.3882 10.0668 31.5325 10.2808 31.6814 10.4911C31.705 10.5244 31.7213 10.5628 31.7449 10.6059C31.6268 10.6831 31.5036 10.6511 31.3864 10.6536C31.185 10.6578 31.0462 10.5796 30.9228 10.4017C30.5328 9.83925 30.0827 9.32464 29.6074 8.83076C29.1098 8.31383 28.5728 7.84355 28.0115 7.39884C27.9498 7.34993 27.8915 7.34047 27.8227 7.37733C27.7485 7.41707 27.6715 7.45159 27.5984 7.49326C27.2052 7.71768 26.8125 7.94295 26.4204 8.1694C26.2894 8.24507 26.2945 8.25979 26.3953 8.37802C26.6508 8.67795 26.9058 8.97859 27.1507 9.2872C27.3697 9.5633 27.5793 9.84726 27.7844 10.134C27.8908 10.2828 27.9784 10.4452 28.0763 10.6043C27.989 10.6731 27.897 10.6671 27.8104 10.6707C27.4704 10.6851 27.4707 10.6832 27.2747 10.4058C26.8432 9.79502 26.378 9.21099 25.8806 8.65255C25.8351 8.60145 25.7965 8.54414 25.7583 8.49432C24.8468 8.86179 23.9707 9.21962 23.0324 9.45916C23.2062 9.8565 23.3701 10.2312 23.5431 10.6266C23.4886 10.6428 23.442 10.6664 23.3943 10.6688C23.2732 10.6749 23.1515 10.6689 23.0303 10.6728C22.9638 10.6749 22.9407 10.6337 22.9151 10.5846C22.7713 10.3092 22.6249 10.0351 22.4805 9.75993C22.4113 9.62792 22.3872 9.61125 22.2459 9.64503C21.656 9.78614 21.058 9.88113 20.4558 9.94698C20.0481 9.99156 19.6385 10.0198 19.2297 10.054C19.1301 10.0623 19.0301 10.0647 18.9303 10.071C18.817 10.078 18.7925 10.0996 18.786 10.2135C18.7788 10.3398 18.7784 10.4664 18.7738 10.5929C18.7731 10.6128 18.766 10.6324 18.7598 10.6616C18.5745 10.6616 18.3929 10.6616 18.207 10.6616C18.1337 10.4644 18.2554 10.2396 18.1037 10.0586C16.887 10.0191 15.6802 9.88952 14.4702 9.62728C14.368 9.83524 14.2688 10.0369 14.1699 10.2387C14.1143 10.3522 14.0614 10.4671 14.0023 10.5788C13.984 10.6133 13.9535 10.659 13.9216 10.6655C13.7415 10.7019 13.5604 10.6935 13.3558 10.6731C13.5283 10.2769 13.6893 9.90693 13.8583 9.51851C13.8124 9.48841 13.7709 9.44467 13.7211 9.431C12.8672 9.19667 12.0455 8.86905 11.2101 8.56641C10.7978 8.96764 10.4382 9.41255 10.0952 9.87128C9.9281 10.0947 9.76679 10.3226 9.60758 10.5517C9.54977 10.6349 9.48551 10.6844 9.3787 10.694C9.19316 10.7107 9.05724 10.7096 8.90823 10.6569C9.13864 10.2276 9.41394 9.83301 9.70867 9.45158C10.0042 9.06917 10.3051 8.69097 10.6181 8.29256C10.087 7.99008 9.56366 7.69201 9.03049 7.38835C8.81138 7.51018 8.60767 7.66912 8.41412 7.83808C8.09695 8.11495 7.77637 8.39034 7.48307 8.69152C7.15687 9.02649 6.85298 9.38408 6.55189 9.74234C6.32861 10.008 6.1231 10.2888 5.91468 10.5666C5.86297 10.6355 5.80131 10.682 5.72059 10.6828C5.54879 10.6845 5.37688 10.6743 5.17285 10.6681C5.33035 10.4448 5.46775 10.2476 5.60766 10.0521C6.18613 9.24414 6.84678 8.50732 7.56792 7.82592C8.13107 7.2938 8.73506 6.81008 9.37377 6.36981C9.99046 5.94471 10.6332 5.56447 11.3037 5.23163C12.6033 4.58651 13.9676 4.13124 15.3916 3.85646C15.9551 3.74772 16.5231 3.66584 17.0962 3.6236C17.1283 3.62123 17.1587 3.59577 17.1771 3.57178C18.02 3.5625 18.8756 3.5625 19.7461 3.5625ZM17.8521 6.1127C17.5654 6.07505 17.2777 6.04309 16.9925 5.9965C16.8992 5.98126 16.8425 6.0086 16.7892 6.07424C16.7097 6.17227 16.6273 6.26802 16.5487 6.36676C15.9574 7.10937 15.4402 7.90161 14.9719 8.72641C14.9129 8.83031 14.8583 8.9367 14.797 9.05051C14.8493 9.0712 14.886 9.09209 14.9253 9.10023C15.1932 9.15567 15.4595 9.22481 15.7302 9.25876C16.3559 9.33722 16.9835 9.40149 17.6111 9.4642C17.7875 9.48183 17.9651 9.4601 18.143 9.42719C18.1532 9.25341 18.1699 9.09128 18.1709 8.92906C18.1744 8.38063 18.1747 7.83215 18.1713 7.28372C18.1693 6.95756 18.1586 6.63145 18.1502 6.30536C18.149 6.25879 18.139 6.21244 18.1317 6.15568C18.0444 6.14193 17.9622 6.12897 17.8521 6.1127ZM21.6597 9.15546C21.7962 9.12412 21.9326 9.09278 22.0939 9.05574C21.9694 8.82626 21.8593 8.61193 21.7389 8.40358C21.2612 7.57695 20.6811 6.82254 20.0921 6.0743C20.042 6.01066 19.9939 5.99852 19.9171 6.0108C19.5847 6.06394 19.2511 6.10958 18.918 6.1585C18.8835 6.16357 18.8495 6.17234 18.8144 6.17957C18.8039 6.28853 18.7875 6.38741 18.786 6.48652C18.7796 6.90274 18.7747 7.31902 18.775 7.73528C18.7752 8.23589 18.7802 8.73652 18.7859 9.2371C18.7867 9.3074 18.8035 9.37751 18.8134 9.45144C19.2936 9.45882 19.7557 9.43265 20.2145 9.37616C20.6892 9.31772 21.1607 9.23434 21.6597 9.15546ZM25.0494 7.85382C24.6685 7.47474 24.2596 7.12758 23.8346 6.79976C23.1705 6.28747 22.4699 5.83145 21.7225 5.44847C21.6398 5.40611 21.5711 5.39954 21.4875 5.44062C21.3366 5.51483 21.181 5.5794 21.0281 5.64974C20.9199 5.69952 20.8131 5.75216 20.6911 5.81049C21.4485 6.80683 22.1176 7.83803 22.7498 8.89122C22.8073 8.8829 22.8494 8.88012 22.8898 8.87047C23.6653 8.68548 24.4083 8.40638 25.1384 8.09066C25.1676 8.07804 25.1904 8.05061 25.2163 8.02996C25.1587 7.96872 25.1121 7.91923 25.0494 7.85382ZM16.0459 5.71584C15.8986 5.65906 15.7515 5.60141 15.6038 5.5458C15.5009 5.5071 15.3947 5.43685 15.2942 5.44368C15.1934 5.45055 15.0966 5.53328 15.0001 5.58654C14.2981 5.9741 13.6312 6.41588 13.0076 6.91921C12.6066 7.24291 12.2242 7.58968 11.8347 7.92758C11.7804 7.97465 11.7229 8.02408 11.7284 8.11374C11.7554 8.12665 11.7832 8.14114 11.8118 8.15343C12.4904 8.44423 13.1898 8.67438 13.9022 8.86568C14.1831 8.94114 14.1284 8.95918 14.2808 8.71114C14.5728 8.23592 14.8512 7.75175 15.1582 7.28646C15.4565 6.83452 15.7843 6.40216 16.0968 5.95954C16.1337 5.90734 16.1557 5.84465 16.1871 5.78166C16.1349 5.75696 16.1022 5.74151 16.0459 5.71584ZM21.2147 4.90461C21.4235 4.79985 21.6248 4.68382 21.8318 4.51744C20.698 4.23853 19.5811 4.12806 18.4501 4.13176C17.3151 4.13546 15.3569 4.37235 15.0923 4.55187C15.1508 4.5941 15.2031 4.63524 15.2588 4.67119C15.3162 4.70823 15.3753 4.74337 15.4364 4.77385C15.7046 4.90768 15.966 5.05982 16.2442 5.16827C17.0812 5.49445 17.9526 5.60317 18.8479 5.5429C19.6717 5.48743 20.4566 5.2915 21.2147 4.90461ZM11.3233 7.58525C11.6065 7.33372 11.8829 7.07391 12.1743 6.83226C12.9294 6.20601 13.721 5.62903 14.5565 5.11355C14.5939 5.09048 14.6276 5.06136 14.671 5.02909C14.5492 4.93716 14.4417 4.85298 14.3308 4.77352C14.2723 4.73161 14.2071 4.72188 14.1362 4.75117C14.049 4.78717 13.9622 4.78854 13.8645 4.78074C13.7885 4.77467 13.7093 4.87547 13.6237 4.9086C13.246 5.05478 12.8622 5.18535 12.4867 5.33678C11.4857 5.74048 10.553 6.26961 9.67369 6.89405C9.64193 6.9166 9.61725 6.94911 9.57994 6.98628C10.0661 7.31834 10.5535 7.61301 11.1083 7.81074C11.1763 7.73779 11.241 7.66849 11.3233 7.58525ZM23.3489 5.72198C23.614 5.9125 23.8825 6.09837 24.1433 6.29449C24.7122 6.7222 25.2522 7.18374 25.7555 7.68771C25.8429 7.77529 25.8635 7.77869 25.976 7.71696C26.3914 7.48899 26.8058 7.2592 27.2192 7.0276C27.2601 7.00466 27.2915 6.96468 27.3326 6.92793C27.2995 6.9002 27.2845 6.88576 27.2677 6.87394C26.534 6.35739 25.7589 5.91317 24.9429 5.53975C24.2378 5.21709 23.5125 4.95126 22.7629 4.75239C22.7135 4.73928 22.6505 4.72002 22.6106 4.73893C22.4734 4.8039 22.346 4.88723 22.2624 5.02426C22.6225 5.25548 22.9762 5.48253 23.3489 5.72198Z" fill="url(#paint3_linear_29604_39164)"/>
<path d="M0.0550648 22.5762C0.0559306 22.683 0.0522099 22.7857 0.0431793 22.888C0.0383405 22.9428 0.0243633 22.9968 0.0077433 23.0608C0.000976562 22.9115 0.000976562 22.7525 0.000976562 22.5786C0.0167406 22.5666 0.0325046 22.5693 0.0550648 22.5762Z" fill="url(#paint4_linear_29604_39164)"/>
<path d="M0.000976567 25.3945C0.0151327 25.4091 0.0405682 25.4381 0.0414619 25.4678C0.0450424 25.5868 0.0410099 25.7061 0.0390244 25.8379C0.0320926 25.8516 0.0259295 25.8528 0.0103713 25.8543C0.000976204 25.7063 0.000976203 25.5578 0.000976567 25.3945Z" fill="url(#paint5_linear_29604_39164)"/>
<path d="M22.4174 23.5998C21.9675 24.4878 21.3056 25.1378 20.4058 25.5452C19.7517 25.8413 19.0655 26.0113 18.355 26.0905C17.82 26.1501 17.2843 26.1533 16.7467 26.1119C15.8105 26.0399 14.9054 25.8338 14.0317 25.495C13.7828 25.3985 13.5507 25.2585 13.3111 25.1381C13.1562 25.0603 13.0018 24.9818 12.8311 24.8955C12.7609 25.2063 12.8261 25.5148 12.7553 25.8323C11.7599 25.8323 10.7653 25.8323 9.76009 25.8323C9.75028 25.7206 9.73055 25.5969 9.72992 25.4731C9.72406 24.3229 9.72083 23.1728 9.71854 22.0226C9.71809 21.7959 9.72225 21.5691 9.72936 21.3425C9.73463 21.1749 9.74814 21.0076 9.75848 20.8316C9.79448 20.8276 9.82972 20.8206 9.86501 20.8203C10.6033 20.8144 11.3417 20.8091 12.08 20.804C12.1697 20.8033 12.26 20.8102 12.349 20.8023C12.446 20.7936 12.5092 20.8321 12.5565 20.9121C12.602 20.9889 12.654 21.0621 12.6978 21.1398C12.8805 21.4643 13.1558 21.7022 13.4453 21.9221C14.0851 22.4083 14.8058 22.7164 15.5962 22.8573C16.3195 22.9863 17.0424 22.9756 17.7625 22.827C17.8759 22.8035 17.9927 22.7881 18.1007 22.7489C18.2026 22.712 18.3046 22.661 18.3893 22.5942C18.5374 22.4774 18.5414 22.2723 18.4126 22.1316C18.3111 22.0206 18.1903 21.9396 18.0453 21.8948C17.271 21.6557 16.4971 21.4152 15.7228 21.1763C14.7876 20.8877 13.8498 20.6074 12.9174 20.3102C12.1983 20.081 11.5438 19.7259 10.9657 19.2363C10.4797 18.8247 10.0912 18.3405 9.86208 17.7402C9.71833 17.3636 9.65635 16.9687 9.62393 16.5692C9.57968 16.0238 9.63639 15.4879 9.7931 14.964C9.96508 14.389 10.257 13.8818 10.6792 13.4541C10.9473 13.1826 11.2609 12.9693 11.5946 12.7867C12.4309 12.329 13.3335 12.1065 14.2784 12.0313C15.3884 11.9429 16.475 12.0711 17.5426 12.3775C18.0398 12.5202 18.5163 12.7129 18.9615 12.9799C19.0734 13.047 19.1931 13.1008 19.334 13.1735C19.3498 13.0785 19.371 12.9998 19.3745 12.9204C19.3807 12.7782 19.3739 12.6355 19.3772 12.493C19.3798 12.3793 19.3926 12.368 19.5076 12.3652C19.771 12.3588 20.0345 12.354 20.298 12.349C20.5878 12.3435 20.8776 12.3339 21.1674 12.3343C21.5152 12.3347 21.863 12.3436 22.2108 12.3496C22.2415 12.3501 22.2722 12.3561 22.3106 12.3603C22.3145 12.3959 22.3204 12.4259 22.3208 12.4559C22.3249 12.8514 22.3277 13.2468 22.3319 13.6422C22.3422 14.6122 22.3532 15.5823 22.3633 16.5523C22.3649 16.7099 22.3635 16.8675 22.3635 17.031C22.3172 17.04 22.2881 17.0504 22.2588 17.0506C21.3674 17.0568 20.476 17.0617 19.5847 17.0679C19.5122 17.0684 19.4596 17.0552 19.4128 16.9862C18.9537 16.3102 18.3181 15.862 17.5675 15.5601C16.9918 15.3286 16.3938 15.183 15.7802 15.115C15.405 15.0735 15.0247 15.0427 14.6453 15.0886C14.3808 15.1207 14.1488 15.218 13.9659 15.4209C13.8662 15.5316 13.8482 15.6493 13.8999 15.785C13.9527 15.9239 14.0381 16.0363 14.1742 16.0972C14.3464 16.1742 14.5188 16.2562 14.6991 16.3088C15.9525 16.6745 17.2082 17.0325 18.4627 17.3944C18.8566 17.508 19.2525 17.6157 19.6416 17.7439C20.2706 17.9511 20.8208 18.2972 21.3171 18.733C21.7855 19.1444 22.1663 19.6236 22.4432 20.1828C22.6828 20.6663 22.7985 21.1788 22.8087 21.7192C22.8209 22.373 22.6931 22.995 22.4174 23.5998Z" fill="url(#paint6_linear_29604_39164)"/>
</g>
<defs>
<linearGradient id="paint0_linear_29604_39164" x1="30.5726" y1="12.3318" x2="30.5726" y2="21.5108" gradientUnits="userSpaceOnUse">
<stop stop-color="white"/>
<stop offset="1" stop-color="white" stop-opacity="0.7"/>
</linearGradient>
<linearGradient id="paint1_linear_29604_39164" x1="4.46826" y1="12.4506" x2="4.46826" y2="21.3511" gradientUnits="userSpaceOnUse">
<stop stop-color="white"/>
<stop offset="1" stop-color="white" stop-opacity="0.7"/>
</linearGradient>
<linearGradient id="paint2_linear_29604_39164" x1="18.5477" y1="27.4383" x2="18.5477" y2="32.1071" gradientUnits="userSpaceOnUse">
<stop stop-color="white"/>
<stop offset="1" stop-color="white" stop-opacity="0.7"/>
</linearGradient>
<linearGradient id="paint3_linear_29604_39164" x1="18.4589" y1="3.72987" x2="18.4589" y2="8.3604" gradientUnits="userSpaceOnUse">
<stop stop-color="white"/>
<stop offset="1" stop-color="white" stop-opacity="0.7"/>
</linearGradient>
<linearGradient id="paint4_linear_29604_39164" x1="0.0280817" y1="22.5818" x2="0.0280817" y2="22.8999" gradientUnits="userSpaceOnUse">
<stop stop-color="white"/>
<stop offset="1" stop-color="white" stop-opacity="0.7"/>
</linearGradient>
<linearGradient id="paint5_linear_29604_39164" x1="0.0219342" y1="25.4053" x2="0.0219342" y2="25.7035" gradientUnits="userSpaceOnUse">
<stop stop-color="white"/>
<stop offset="1" stop-color="white" stop-opacity="0.7"/>
</linearGradient>
<linearGradient id="paint6_linear_29604_39164" x1="16.2094" y1="12.3352" x2="16.2094" y2="21.5014" gradientUnits="userSpaceOnUse">
<stop stop-color="white"/>
<stop offset="1" stop-color="white" stop-opacity="0.7"/>
</linearGradient>
<clipPath id="clip0_29604_39164">
<rect width="38" height="38" fill="white" transform="translate(0.000976562)"/>
</clipPath>
</defs>
</svg>
