<svg width="35" height="28" viewBox="0 0 35 28" fill="none" xmlns="http://www.w3.org/2000/svg">
<path d="M8.91396 9.06358L2.99021 14L8.91396 18.9365C9.03507 19.0335 9.13563 19.1536 9.20975 19.2899C9.28387 19.4261 9.33006 19.5758 9.34563 19.7302C9.36121 19.8845 9.34584 20.0404 9.30043 20.1888C9.25502 20.3371 9.18048 20.4749 9.08118 20.5941C8.98187 20.7133 8.8598 20.8115 8.72209 20.8829C8.58438 20.9543 8.43381 20.9976 8.27919 21.0101C8.12456 21.0227 7.96899 21.0043 7.82157 20.9559C7.67415 20.9076 7.53785 20.8304 7.42063 20.7288L0.420627 14.8955C0.289278 14.786 0.183604 14.6489 0.111085 14.4941C0.0385665 14.3392 0.000976562 14.1703 0.000976562 13.9993C0.000976562 13.8283 0.0385665 13.6594 0.111085 13.5045C0.183604 13.3497 0.289278 13.2127 0.420627 13.1032L7.42063 7.26983C7.6585 7.0718 7.96528 6.97638 8.27351 7.00455C8.58173 7.03272 8.86614 7.18217 9.06417 7.42004C9.2622 7.65791 9.35763 7.9647 9.32946 8.27292C9.30129 8.58115 9.15183 8.86556 8.91396 9.06358ZM34.5806 13.1032L27.5806 7.26983C27.4629 7.17178 27.3269 7.09788 27.1806 7.05237C27.0342 7.00685 26.8804 6.9906 26.7278 7.00455C26.5751 7.0185 26.4268 7.06237 26.2911 7.13366C26.1554 7.20495 26.0351 7.30226 25.9371 7.42004C25.7391 7.65791 25.6436 7.9647 25.6718 8.27292C25.7 8.58115 25.8494 8.86556 26.0873 9.06358L32.0111 14L26.0873 18.9365C25.9662 19.0335 25.8656 19.1536 25.7915 19.2899C25.7174 19.4261 25.6712 19.5758 25.6556 19.7302C25.6401 19.8845 25.6554 20.0404 25.7008 20.1888C25.7462 20.3371 25.8208 20.4749 25.9201 20.5941C26.0194 20.7133 26.1415 20.8115 26.2792 20.8829C26.4169 20.9543 26.5675 20.9976 26.7221 21.0101C26.8767 21.0227 27.0323 21.0043 27.1797 20.9559C27.3271 20.9076 27.4634 20.8304 27.5806 20.7288L34.5806 14.8955C34.712 14.786 34.8177 14.6489 34.8902 14.4941C34.9627 14.3392 35.0003 14.1703 35.0003 13.9993C35.0003 13.8283 34.9627 13.6594 34.8902 13.5045C34.8177 13.3497 34.712 13.2127 34.5806 13.1032ZM22.5654 0.0700386C22.4214 0.017752 22.2685 -0.00565562 22.1154 0.00115237C21.9624 0.00796036 21.8122 0.0448508 21.6734 0.109717C21.5345 0.174583 21.4099 0.266154 21.3065 0.379202C21.203 0.492251 21.1229 0.624562 21.0706 0.768581L11.7373 26.4353C11.6848 26.5794 11.6612 26.7324 11.6679 26.8856C11.6746 27.0389 11.7114 27.1893 11.7763 27.3282C11.8412 27.4672 11.9328 27.592 12.046 27.6955C12.1592 27.799 12.2916 27.8792 12.4358 27.9315C12.5637 27.9769 12.6983 28.0001 12.834 28C13.0736 28.0001 13.3073 27.9263 13.5035 27.7888C13.6998 27.6513 13.8489 27.4567 13.9306 27.2315L23.264 1.56483C23.3163 1.42081 23.3397 1.26791 23.3329 1.11485C23.326 0.961785 23.2892 0.811562 23.2243 0.672757C23.1594 0.533952 23.0679 0.409282 22.9548 0.305867C22.8418 0.202453 22.7094 0.122318 22.5654 0.0700386Z" fill="url(#paint0_linear_29604_39176)"/>
<defs>
<linearGradient id="paint0_linear_29604_39176" x1="17.5006" y1="0.656251" x2="17.5006" y2="18.8125" gradientUnits="userSpaceOnUse">
<stop stop-color="white"/>
<stop offset="1" stop-color="white" stop-opacity="0.7"/>
</linearGradient>
</defs>
</svg>
