<svg width="38" height="38" viewBox="0 0 38 38" fill="none" xmlns="http://www.w3.org/2000/svg">
<path d="M19.0014 1.73047C18.6041 1.73061 18.2072 1.81899 17.8406 1.99617L6.0903 7.66945C5.35937 8.02217 4.82788 8.69025 4.64749 9.48187L1.74405 22.2371C1.56463 23.027 1.75371 23.8575 2.25764 24.4919L10.392 34.7192C10.8983 35.3561 11.669 35.7271 12.482 35.7271H25.5208C26.3338 35.7271 27.1045 35.3561 27.6108 34.7192L35.7451 24.4934V24.4919C36.249 23.858 36.4394 23.0284 36.2602 22.2386V22.2371L33.3553 9.48187V9.48039C33.1749 8.69002 32.6437 8.02288 31.9125 7.66945L20.1637 1.99617L20.1622 1.99469C19.7956 1.81828 19.3987 1.73033 19.0014 1.73047ZM19.0014 3.25047C19.1721 3.25052 19.3425 3.28844 19.5016 3.36477L31.2519 9.03805C31.568 9.19078 31.7958 9.4768 31.8739 9.81883L34.7773 22.5741C34.855 22.9162 34.7737 23.2729 34.5562 23.5463L26.4218 33.7737C26.2031 34.0488 25.8721 34.2071 25.5208 34.2071H12.482C12.1307 34.2071 11.8012 34.0488 11.5825 33.7737L3.44811 23.5463C3.23005 23.2718 3.148 22.9151 3.22546 22.5741L6.13038 9.82031C6.20838 9.47802 6.43601 9.19146 6.75085 9.03953V9.03805L18.5012 3.36477C18.6595 3.28822 18.8307 3.25042 19.0014 3.25047ZM18.9955 6.44781C18.8882 6.44805 18.7793 6.46943 18.6748 6.51313C18.2568 6.69553 18.059 7.18169 18.2414 7.59969C18.4162 8.01009 18.4763 8.41983 18.5219 8.83024C18.5371 9.04304 18.5459 9.24847 18.5383 9.45367C18.5611 9.65887 18.4543 9.86449 18.3023 10.0697C18.1427 10.2749 18.1276 10.4805 18.1048 10.6857C16.0192 10.8904 14.1417 11.8044 12.7062 13.178L12.6928 13.1705C12.518 13.0565 12.3517 12.9421 12.0857 12.9345C11.8349 12.9193 11.6067 12.8743 11.4623 12.7223C11.3027 12.6007 11.1435 12.4644 10.9991 12.32C10.7027 12.0312 10.4206 11.7192 10.2154 11.324C10.1166 11.134 9.93406 10.9812 9.71366 10.9128C9.27286 10.7912 8.81716 11.042 8.68796 11.4828C8.55876 11.916 8.81716 12.3795 9.25796 12.5011C9.68356 12.6303 10.0409 12.8431 10.3905 13.0711C10.5577 13.1851 10.7178 13.3069 10.8774 13.4437C11.0522 13.5577 11.143 13.7705 11.2114 14.0137C11.2615 14.2573 11.4013 14.3982 11.538 14.5347C10.4977 16.0161 9.88139 17.8165 9.88139 19.7597C9.88139 20.0811 9.89923 20.3982 9.93186 20.7112C9.76137 20.7709 9.59262 20.8356 9.44796 21.0066C9.28076 21.1966 9.098 21.3476 8.8928 21.3628C8.6952 21.416 8.49089 21.4543 8.28569 21.4771C7.87529 21.5303 7.45717 21.5609 7.02397 21.4697C6.81117 21.4317 6.57569 21.4769 6.38569 21.6137C6.01329 21.8721 5.92987 22.3887 6.18827 22.7611C6.45427 23.1335 6.97071 23.226 7.34311 22.96C7.70791 22.7016 8.09533 22.5563 8.49053 22.4271C8.68813 22.3663 8.88651 22.3137 9.09171 22.2757C9.28931 22.2073 9.50923 22.2675 9.74483 22.3663C9.94059 22.4673 10.1139 22.4592 10.2851 22.442C10.9541 24.6108 12.4169 26.4279 14.3271 27.5749C14.2618 27.7575 14.2006 27.9478 14.2588 28.188C14.3044 28.4388 14.3118 28.6752 14.2054 28.85C14.1218 29.04 14.0311 29.2213 13.9323 29.4037C13.7195 29.7533 13.4918 30.1031 13.1574 30.4071C12.9978 30.5515 12.8904 30.7564 12.8828 30.992C12.8676 31.448 13.2254 31.8288 13.6814 31.844C14.1374 31.8592 14.5256 31.5014 14.5408 31.0454C14.5484 30.597 14.6697 30.2026 14.8065 29.8074C14.8749 29.6174 14.9588 29.4272 15.05 29.2448C15.1184 29.0472 15.3001 28.9018 15.5205 28.7802C15.7401 28.6669 15.8388 28.5067 15.9376 28.3379C16.8969 28.6818 17.9255 28.8797 19.0014 28.8797C20.0957 28.8797 21.141 28.6752 22.1141 28.3201C22.2171 28.4957 22.3228 28.6628 22.5431 28.7802C22.7635 28.9094 22.9453 29.0472 23.0137 29.2448C23.1049 29.4348 23.1813 29.6248 23.2497 29.8148C23.3865 30.21 23.5002 30.6044 23.5154 31.0528C23.5154 31.2732 23.6063 31.487 23.7811 31.6466C24.1231 31.9506 24.6407 31.9275 24.9523 31.5931C25.2563 31.2511 25.2332 30.7336 24.8988 30.422C24.5644 30.1256 24.3366 29.7683 24.1314 29.4111C24.0326 29.2363 23.9419 29.0472 23.8583 28.8648C23.7519 28.6824 23.7591 28.4536 23.8123 28.2028C23.8731 27.9444 23.8048 27.7547 23.744 27.5571L23.738 27.5378C25.633 26.3793 27.0766 24.5568 27.731 22.3885L27.7562 22.39C27.969 22.4052 28.1739 22.4272 28.4019 22.298C28.6299 22.1916 28.859 22.1303 29.0566 22.1911C29.2542 22.2215 29.4586 22.267 29.6562 22.3202C30.0514 22.4342 30.4476 22.5712 30.82 22.822C31.0024 22.936 31.2303 22.9895 31.4583 22.9363C31.9067 22.8375 32.1879 22.3974 32.0891 21.9566C31.9903 21.5082 31.5489 21.2269 31.1005 21.3257C30.6597 21.4245 30.2494 21.4082 29.8314 21.3702C29.6262 21.3474 29.428 21.3179 29.2228 21.2723C29.0176 21.2571 28.8365 21.1207 28.6617 20.9383C28.4869 20.7331 28.2893 20.6799 28.0917 20.6191L28.0783 20.6147C28.1047 20.3328 28.1214 20.0484 28.1214 19.7597C28.1214 17.8754 27.5461 16.1221 26.5628 14.6668C26.7069 14.5151 26.8526 14.3711 26.9057 14.1131C26.9741 13.8699 27.0649 13.6571 27.2397 13.5431C27.3917 13.4063 27.5594 13.2847 27.7266 13.1631C28.0686 12.9351 28.4261 12.7147 28.8517 12.5931C29.0645 12.5323 29.2455 12.3873 29.3519 12.1745C29.5647 11.7717 29.4061 11.2709 28.9957 11.0657C28.5929 10.8529 28.0906 11.0116 27.8854 11.422C27.6802 11.8172 27.3993 12.1292 27.1105 12.418C26.9585 12.5624 26.807 12.6999 26.6474 12.8291C26.503 12.9811 26.2748 13.0262 26.024 13.0414C25.758 13.049 25.5902 13.1708 25.4154 13.2848C23.9661 11.8491 22.0395 10.8959 19.898 10.6857C19.8752 10.4805 19.8601 10.2749 19.7005 10.0697C19.5485 9.86449 19.4417 9.65887 19.4645 9.45367C19.4569 9.24847 19.4656 9.04304 19.4808 8.83024C19.5264 8.41983 19.5866 8.01009 19.7614 7.59969C19.845 7.40209 19.8526 7.16696 19.7614 6.94656C19.6246 6.63306 19.3172 6.4471 18.9955 6.44781ZM17.9059 12.2473L17.8688 12.5397C17.7624 13.3605 17.6865 14.1889 17.6105 15.0097C17.5649 15.4429 17.5266 15.8842 17.4962 16.3174C17.1238 16.0514 16.7514 15.7696 16.3562 15.5188C15.6722 15.0552 14.9879 14.591 14.2811 14.1502L14.0421 14.0018C15.111 13.0808 16.4395 12.4584 17.9059 12.2473ZM20.0969 12.2473C21.6234 12.467 22.9981 13.1355 24.0883 14.1191L23.8345 14.2794C23.1353 14.7278 22.4597 15.1918 21.7757 15.6554C21.5021 15.8378 21.2355 16.028 20.9771 16.218C20.7719 16.3624 20.4906 16.2328 20.4754 15.982C20.4526 15.6552 20.4227 15.3365 20.3923 15.0097C20.3163 14.1889 20.2404 13.3605 20.134 12.5397L20.0969 12.2473ZM12.6037 15.6613L12.8457 15.9137C13.4233 16.5141 14.0089 17.0919 14.6017 17.6771C14.8525 17.9279 15.1033 18.1644 15.3617 18.4C15.5441 18.5672 15.4756 18.863 15.24 18.9314C14.8676 19.0454 14.4947 19.1512 14.1223 19.2728C13.3395 19.5312 12.5493 19.7754 11.7666 20.0566L11.4222 20.1768C11.4146 20.0377 11.4014 19.9007 11.4014 19.7597C11.4014 18.2471 11.8461 16.8437 12.6037 15.6613ZM25.4896 15.8113C26.1902 16.9623 26.6014 18.3099 26.6014 19.7597C26.6014 19.8866 26.5882 20.0098 26.5821 20.1352L26.3119 20.0491C25.5215 19.7907 24.732 19.5691 23.934 19.3411C23.4172 19.1891 22.8996 19.0532 22.3828 18.924C22.7704 18.5516 23.1742 18.1863 23.5466 17.8063C24.1318 17.2211 24.7162 16.636 25.2862 16.028L25.4896 15.8113ZM18.5308 18.2397H19.4571C19.6015 18.2397 19.7388 18.3084 19.8148 18.4148L20.4071 19.16C20.4907 19.2588 20.5219 19.4019 20.4991 19.5311L20.2854 20.4514C20.2626 20.5958 20.1635 20.7096 20.0419 20.778L19.1914 21.1728C19.0698 21.2412 18.9181 21.2412 18.7965 21.1728L17.9445 20.778C17.8229 20.7096 17.7163 20.5958 17.7011 20.4514L17.4888 19.5311C17.466 19.4019 17.4972 19.2588 17.5808 19.16L18.1731 18.4148C18.2491 18.3084 18.3864 18.2397 18.5308 18.2397ZM15.7862 21.8645C16.0218 21.8265 16.2129 22.0627 16.1217 22.2831C15.9773 22.6631 15.8397 23.0357 15.7105 23.4157C15.4293 24.1985 15.1555 24.9736 14.8971 25.764L14.7932 26.0905C13.4405 25.1911 12.4016 23.8677 11.8482 22.3098L12.2519 22.2757C13.0803 22.1997 13.8935 22.0999 14.7219 22.0011C15.0791 21.9631 15.429 21.9101 15.7862 21.8645ZM22.3531 21.9714C22.7103 22.0094 23.0602 22.0479 23.4174 22.0783C24.2458 22.1543 25.0664 22.2299 25.8948 22.2831L26.1591 22.298C25.6156 23.8359 24.5995 25.1469 23.2749 26.0475L23.1888 25.7714C22.938 24.981 22.6651 24.1983 22.3991 23.4231C22.2775 23.0735 22.1558 22.732 22.0266 22.39C21.9429 22.1696 22.1251 21.941 22.3531 21.9714ZM19.0578 23.4706C19.1661 23.4706 19.2746 23.5252 19.3354 23.6354C19.5026 23.9546 19.6784 24.2664 19.8608 24.578C20.2712 25.2924 20.6803 26.0148 21.1211 26.714L21.3007 27.0049C20.5755 27.2339 19.8036 27.3597 19.0014 27.3597C18.2234 27.3597 17.4735 27.2416 16.7674 27.0257L16.9574 26.7214C17.3982 26.0222 17.816 25.3072 18.234 24.5928C18.424 24.2812 18.6069 23.9622 18.7817 23.6354C18.8425 23.5252 18.9495 23.4706 19.0578 23.4706Z" fill="url(#paint0_linear_29604_39197)"/>
<defs>
<linearGradient id="paint0_linear_29604_39197" x1="19.002" y1="2.52727" x2="19.002" y2="24.572" gradientUnits="userSpaceOnUse">
<stop stop-color="white"/>
<stop offset="1" stop-color="white" stop-opacity="0.7"/>
</linearGradient>
</defs>
</svg>
