<svg width="40" height="44" viewBox="0 0 40 44" fill="none" xmlns="http://www.w3.org/2000/svg">
<path d="M36.5791 2.21999H36.8477C37.1771 2.21999 37.4457 2.11257 37.4457 1.82253C37.4457 1.6041 37.2845 1.40358 36.8692 1.40358C36.7367 1.40358 36.6508 1.40358 36.5827 1.41432V2.21999H36.5791ZM36.5791 3.62363H36.1315V1.13861C36.3392 1.10996 36.5505 1.06699 36.8763 1.06699C37.2738 1.06699 37.5209 1.14935 37.682 1.26751C37.8216 1.37852 37.9004 1.54323 37.9004 1.78314C37.9004 2.10182 37.6927 2.30951 37.4242 2.38112V2.39902C37.6426 2.43841 37.7787 2.63893 37.8288 3.00775C37.8897 3.39447 37.9362 3.54486 37.9792 3.62363H37.5209C37.46 3.54128 37.4099 3.31569 37.3597 2.98985C37.3132 2.68906 37.1413 2.5709 36.8334 2.5709H36.5756V3.62363H36.5791ZM36.9873 0.469012C36.0026 0.469012 35.2077 1.29616 35.2077 2.32741C35.2077 3.36224 36.0026 4.18939 36.9981 4.18939C37.9828 4.20013 38.7705 3.36224 38.7705 2.32741C38.7705 1.29258 37.9828 0.469012 36.9981 0.469012H36.9873ZM36.9981 0.093035C38.2299 0.093035 39.2146 1.08848 39.2146 2.32025C39.2146 3.5735 38.2299 4.56895 36.9873 4.56895C35.7448 4.56895 34.7386 3.5735 34.7386 2.32025C34.7386 1.08848 35.7448 0.093035 36.9873 0.093035H36.9981Z" fill="white"/>
<path d="M5.06507 39.9824L4.69268 37.7695C4.58525 37.1321 4.44919 36.1331 4.34535 35.4456H4.30596C4.19496 36.1402 4.04456 37.1679 3.93356 37.7766L3.53252 39.9859H5.06507V39.9824ZM3.32842 41.4254L2.84144 43.8818H1.04749L3.28545 33.6624H5.48402L7.51787 43.8818H5.71318L5.23695 41.4254H3.32842Z" fill="white"/>
<path d="M11.6035 39.3165C11.6035 39.1804 11.6035 39.0193 11.5749 38.876C11.5033 38.3712 11.2347 37.9164 10.805 37.9164C10.0638 37.9164 9.79167 38.9835 9.79167 40.2296C9.79167 41.6618 10.1784 42.4783 10.7799 42.4783C11.0521 42.4783 11.3708 42.3386 11.5426 41.737C11.5856 41.6189 11.6071 41.4577 11.6071 41.268V39.3165H11.6035ZM13.444 33.3904V41.7621C13.444 42.4245 13.4762 43.2409 13.5049 43.8783H11.915L11.8112 43.0261H11.7718C11.5033 43.5525 10.9232 43.9965 10.2285 43.9965C8.70671 43.9965 7.95117 42.3171 7.95117 40.1937C7.95117 37.6085 9.0791 36.3516 10.3037 36.3516C10.9447 36.3516 11.36 36.6667 11.5713 37.1215H11.6035V33.3904H13.444Z" fill="white"/>
<path d="M17.279 42.5892C17.9808 42.5892 18.1562 41.2643 18.1562 40.1686C18.1562 39.1266 17.9808 37.766 17.2467 37.766C16.4697 37.766 16.305 39.123 16.305 40.1686C16.305 41.4255 16.5091 42.5892 17.2611 42.5892H17.279ZM17.2432 44C15.5459 44 14.4824 42.6393 14.4824 40.1973C14.4824 37.5368 15.8503 36.3516 17.2861 36.3516C18.9583 36.3516 20.0111 37.7803 20.0111 40.1543C20.0111 43.2015 18.3675 44 17.2611 44H17.2432Z" fill="white"/>
<path d="M22.8792 41.2357C22.8792 41.4219 22.915 41.5938 22.9544 41.7084C23.1406 42.3279 23.4521 42.4783 23.7028 42.4783C24.4153 42.4783 24.7018 41.5759 24.7018 40.1329C24.7018 38.8187 24.3974 37.9128 23.6956 37.9128C23.3483 37.9128 23.0511 38.2924 22.9508 38.7006C22.915 38.8295 22.8828 39.03 22.8828 39.1661V41.2357H22.8792ZM22.8792 33.3904V37.2468H22.9078C23.2695 36.6775 23.7529 36.3516 24.4547 36.3516C25.844 36.3516 26.5387 37.9307 26.5387 39.9932C26.5387 42.6 25.5003 43.9965 24.1504 43.9965C23.5094 43.9965 23.0797 43.7136 22.6966 42.9903H22.6572L22.5534 43.8747H20.9743C20.9993 43.2624 21.0351 42.421 21.0351 41.7585V33.3904H22.8792Z" fill="white"/>
<path d="M30.9538 39.4703C30.9646 38.4319 30.6602 37.7014 30.073 37.7014C29.4069 37.7014 29.1241 38.6754 29.1026 39.4703H30.9538ZM29.099 40.7737C29.1205 42.1129 29.8259 42.5497 30.6996 42.5497C31.2546 42.5497 31.7272 42.428 32.0782 42.2955L32.3252 43.6204C31.8383 43.8316 31.0827 43.9641 30.3594 43.9641C28.3828 43.9641 27.305 42.6142 27.305 40.3082C27.305 37.8339 28.5583 36.3479 30.1911 36.3479C31.7702 36.3479 32.6475 37.662 32.6475 39.8069C32.6475 40.2975 32.626 40.5732 32.5938 40.7916L29.099 40.7737Z" fill="white"/>
<path d="M20.8705 0H32.6475V28.1982L20.8705 0Z" fill="#ED1C24"/>
<path d="M12.5703 0H0.786133V28.1982L12.5703 0Z" fill="#ED1C24"/>
<path d="M11.5713 22.5264L16.7204 10.3913L24.2256 28.1983H19.3092L17.0641 22.5264H11.5713Z" fill="#ED1C24"/>
</svg>
