<svg width="45" height="45" viewBox="0 0 45 45" fill="none" xmlns="http://www.w3.org/2000/svg">
<path d="M22.5 0.1875C10.1933 0.1875 0.1875 10.1933 0.1875 22.5C0.1875 34.8067 10.1933 44.8125 22.5 44.8125C34.8067 44.8125 44.8125 34.8067 44.8125 22.5C44.8125 10.1933 34.8067 0.1875 22.5 0.1875Z" fill="url(#paint0_radial_29604_6140)"/>
<path d="M29.7043 22.4062C26.6412 22.4062 24.1584 24.9244 24.1584 28.031C24.1584 31.1378 26.6412 33.6562 29.7043 33.6562C32.7671 33.6562 35.25 31.1378 35.25 28.031C35.25 24.9244 32.7671 22.4062 29.7043 22.4062ZM15.2958 22.4065C12.233 22.4065 9.75 24.9244 9.75 28.0313C9.75 31.1378 12.233 33.6562 15.2958 33.6562C18.3587 33.6562 20.8418 31.1378 20.8418 28.0313C20.8418 24.9244 18.3587 22.4065 15.2958 22.4065ZM28.0456 15.3749C28.0456 18.4814 25.5629 21.0003 22.5001 21.0003C19.4371 21.0003 16.9543 18.4814 16.9543 15.3749C16.9543 12.2685 19.4371 9.75 22.5001 9.75C25.5629 9.75 28.0456 12.2685 28.0456 15.3749Z" fill="white"/>
<defs>
<radialGradient id="paint0_radial_29604_6140" cx="0" cy="0" r="1" gradientUnits="userSpaceOnUse" gradientTransform="translate(22.5 24.576) scale(29.57)">
<stop stop-color="#FFB900"/>
<stop offset="0.6" stop-color="#F95D8F"/>
<stop offset="0.9991" stop-color="#F95353"/>
</radialGradient>
</defs>
</svg>
