<svg width="44" height="44" viewBox="0 0 44 44" fill="none" xmlns="http://www.w3.org/2000/svg">
<path fill-rule="evenodd" clip-rule="evenodd" d="M13.0508 20.3201C12.7849 19.9719 12.3566 19.7881 11.9213 19.8355C11.486 19.8828 11.1071 20.1543 10.9221 20.5515L0.136079 42.1321C-0.063705 42.532 -0.0423489 43.0069 0.192521 43.3872C0.427391 43.7675 0.842288 43.9991 1.28906 43.9991H16.3081C16.7996 44.0105 17.2516 43.7309 17.4611 43.2859C20.7009 36.5865 18.7374 26.4001 13.0508 20.3201Z" fill="url(#paint0_linear_29604_6093)"/>
<path fill-rule="evenodd" clip-rule="evenodd" d="M20.9618 0.69231C15.4942 9.11116 14.8631 19.7899 19.3011 28.7949L26.5419 43.2868C26.7603 43.7238 27.2066 43.9999 27.6949 44H42.7113C43.158 44 43.5729 43.7684 43.8078 43.3881C44.0427 43.0078 44.064 42.5329 43.8642 42.133C43.8642 42.133 23.6622 1.69564 23.1545 0.684213C22.9496 0.264107 22.5227 -0.00171653 22.0556 8.34398e-06C21.5885 0.00173323 21.1635 0.270703 20.9618 0.69231Z" fill="#2684FF"/>
<defs>
<linearGradient id="paint0_linear_29604_6093" x1="18.962" y1="23.6505" x2="3.83315" y2="39.8907" gradientUnits="userSpaceOnUse">
<stop stop-color="#0052CC"/>
<stop offset="0.923" stop-color="#2684FF"/>
</linearGradient>
</defs>
</svg>
