<svg width="44" height="41" viewBox="0 0 44 41" fill="none" xmlns="http://www.w3.org/2000/svg">
<path d="M32.1874 40.8555L15.199 1.63572C14.9063 0.967983 14.4371 0.106415 13.2229 0.106415C12.1378 0.106415 11.6209 0.61859 11.3291 1.16931C11.4799 0.772168 11.9366 0.000689693 13.2605 0.000689693H24.9855C26.066 0.000689693 26.5843 0.621216 26.8205 1.18934L44.0002 40.8555H32.1874Z" fill="url(#paint0_linear_29604_6347)"/>
<path d="M11.3275 1.16837L0.564675 26.2246C0.236916 27.0227 0 27.4992 0 28.1325C0 29.2674 0.884149 30.4051 3.1148 30.4051H10.5002L19.0825 10.604L15.1974 1.63478C14.9047 0.96704 14.4355 0.105469 13.2213 0.105469C12.1362 0.105469 11.6193 0.617669 11.3275 1.16837Z" fill="url(#paint1_linear_29604_6347)"/>
<path d="M3.11486 30.4055L27.6187 30.4054L13.3985 38.9959C12.7054 39.3957 10.0692 40.8563 8.2196 40.8563C7.02729 40.8563 6.40784 40.4177 5.81302 39.3991L0.380291 29.578C0.00603698 28.8742 1.01859e-10 28.6398 1.01859e-10 28.1328C1.01859e-10 29.2677 0.884204 30.4055 3.11486 30.4055Z" fill="url(#paint2_linear_29604_6347)"/>
<defs>
<linearGradient id="paint0_linear_29604_6347" x1="18.9356" y1="0.761523" x2="22.5796" y2="9.66009" gradientUnits="userSpaceOnUse">
<stop stop-color="#29A5E3"/>
<stop offset="0.515" stop-color="#356EB9"/>
<stop offset="1" stop-color="#394DA5"/>
</linearGradient>
<linearGradient id="paint1_linear_29604_6347" x1="16.3212" y1="3.37272" x2="13.8414" y2="9.34461" gradientUnits="userSpaceOnUse">
<stop stop-color="#236736"/>
<stop offset="0.493" stop-color="#6BA443"/>
<stop offset="1" stop-color="#86C146"/>
</linearGradient>
<linearGradient id="paint2_linear_29604_6347" x1="3.41462" y1="34.6654" x2="8.6195" y2="33.602" gradientUnits="userSpaceOnUse">
<stop stop-color="#2B7A77"/>
<stop offset="0.51" stop-color="#4EBAA9"/>
<stop offset="1" stop-color="#5CC2B1"/>
</linearGradient>
</defs>
</svg>
