<svg width="44" height="40" viewBox="0 0 44 40" fill="none" xmlns="http://www.w3.org/2000/svg">
<path d="M1.42796 0.000118767C1.01149 -0.00531168 0.613959 0.175719 0.342007 0.49465C0.0700539 0.81358 -0.0484835 1.23776 0.0181919 1.65341L6.00266 38.3822C6.15657 39.31 6.94718 39.9921 7.87765 39.9999H36.5876C37.286 40.009 37.8856 39.4997 37.9973 38.8027L43.9818 1.66054C44.0485 1.24489 43.9299 0.820706 43.658 0.501776C43.386 0.182845 42.9885 0.00181458 42.572 0.00724503L1.42796 0.000118767ZM26.6276 26.5455H17.4641L14.9829 13.4403H28.8479L26.6276 26.5455Z" fill="#2684FF"/>
<path fill-rule="evenodd" clip-rule="evenodd" d="M42.08 13.4414H28.8494L26.629 26.5466H17.4655L6.64551 39.5307C6.98845 39.8305 7.42569 39.9972 7.87905 40.001H36.596C37.2944 40.0101 37.8941 39.5008 38.0058 38.8038L42.08 13.4414Z" fill="url(#paint0_linear_29604_5960)"/>
<defs>
<linearGradient id="paint0_linear_29604_5960" x1="45.1392" y1="17.1114" x2="29.6315" y2="38.8911" gradientUnits="userSpaceOnUse">
<stop offset="0.18" stop-color="#0052CC"/>
<stop offset="1" stop-color="#2684FF"/>
</linearGradient>
</defs>
</svg>
