<svg width="51" height="51" viewBox="0 0 51 51" fill="none" xmlns="http://www.w3.org/2000/svg">
<path fill-rule="evenodd" clip-rule="evenodd" d="M7.76206 35.5754C7.36647 36.2468 6.92218 37.0259 6.54484 37.6466C6.2071 38.2406 6.38841 39.0066 6.95261 39.3694L14.8645 44.4365C15.1423 44.615 15.4772 44.6699 15.7942 44.5889C16.1112 44.5079 16.3836 44.2978 16.5504 44.0058C16.8669 43.4548 17.2746 42.739 17.7189 41.9726C20.8533 36.5888 24.0059 37.2475 29.6903 40.0725L37.5353 43.9551C37.8324 44.1023 38.1741 44.118 38.4825 43.9987C38.791 43.8794 39.0398 43.6352 39.1724 43.3217L42.9397 34.4543C43.2059 33.821 42.9351 33.0825 42.3311 32.7948C40.6757 31.9841 37.3831 30.3689 34.4192 28.8805C23.7563 23.4903 14.6941 23.8387 7.76206 35.5754Z" fill="url(#paint0_linear_29604_6285)"/>
<path fill-rule="evenodd" clip-rule="evenodd" d="M43.2379 15.4522C43.6335 14.7808 44.0778 14.0018 44.4551 13.381C44.7929 12.787 44.6115 12.021 44.0473 11.6582L36.1354 6.5911C35.8554 6.39484 35.5097 6.3284 35.1808 6.40767C34.8519 6.48693 34.5695 6.70477 34.4009 7.00914C34.0844 7.56019 33.6766 8.27592 33.2323 9.04232C30.098 14.4261 26.9454 13.7674 21.261 10.9425L13.4403 7.07881C13.1432 6.93163 12.8015 6.91592 12.4931 7.03525C12.1846 7.15457 11.9358 7.39878 11.8032 7.7122L8.03588 16.5796C7.76972 17.213 8.04055 17.9514 8.64449 18.2391C10.2999 19.0499 13.5925 20.665 16.5564 22.1535C27.2436 27.5373 36.3058 27.1762 43.2379 15.4522Z" fill="url(#paint1_linear_29604_6285)"/>
<defs>
<linearGradient id="paint0_linear_29604_6285" x1="42.7267" y1="47.0524" x2="33.2561" y2="26.1754" gradientUnits="userSpaceOnUse">
<stop offset="0.18" stop-color="#0052CC"/>
<stop offset="1" stop-color="#2684FF"/>
</linearGradient>
<linearGradient id="paint1_linear_29604_6285" x1="8.27324" y1="3.96887" x2="17.7587" y2="24.8554" gradientUnits="userSpaceOnUse">
<stop offset="0.18" stop-color="#0052CC"/>
<stop offset="1" stop-color="#2684FF"/>
</linearGradient>
</defs>
</svg>
