<svg width="29" height="44" viewBox="0 0 29 44" fill="none" xmlns="http://www.w3.org/2000/svg">
<path fill-rule="evenodd" clip-rule="evenodd" d="M14.5 22.0013C14.5 17.9512 17.746 14.668 21.7502 14.668C25.7544 14.668 29.0004 17.9512 29.0004 22.0013C29.0004 26.0514 25.7544 29.3347 21.7502 29.3347C17.746 29.3347 14.5 26.0514 14.5 22.0013Z" fill="#1ABCFE"/>
<path fill-rule="evenodd" clip-rule="evenodd" d="M0 36.6654C0 32.6153 3.24603 29.332 7.25021 29.332H14.5004V36.6654C14.5004 40.7155 11.2544 43.9988 7.25021 43.9988C3.24603 43.9988 0 40.7155 0 36.6654Z" fill="#0ACF83"/>
<path fill-rule="evenodd" clip-rule="evenodd" d="M14.5 0V14.6667H21.7502C25.7544 14.6667 29.0004 11.3835 29.0004 7.33337C29.0004 3.28326 25.7544 0 21.7502 0H14.5Z" fill="#FF7262"/>
<path fill-rule="evenodd" clip-rule="evenodd" d="M0 7.33337C0 11.3835 3.24603 14.6667 7.25021 14.6667H14.5004V0H7.25021C3.24603 0 0 3.28326 0 7.33337Z" fill="#F24E1E"/>
<path fill-rule="evenodd" clip-rule="evenodd" d="M0 22.0013C0 26.0514 3.24603 29.3347 7.25021 29.3347H14.5004V14.668H7.25021C3.24603 14.668 0 17.9512 0 22.0013Z" fill="#A259FF"/>
</svg>
