<svg width="47" height="44" viewBox="0 0 47 44" fill="none" xmlns="http://www.w3.org/2000/svg">
<path d="M38.0725 0H8.92712C4.5135 0 0.935547 3.57795 0.935547 7.99158V36.0084C0.935547 40.422 4.5135 44 8.92712 44H38.0725C42.4861 44 46.0641 40.422 46.0641 36.0084V7.99158C46.0641 3.57795 42.4861 0 38.0725 0Z" fill="#330000"/>
<path d="M22.8041 26.4057H15.8104L14.3881 30.8255C14.3693 30.9065 14.3225 30.9782 14.256 31.0281C14.1895 31.078 14.1075 31.1028 14.0245 31.0981H10.4827C10.2804 31.0981 10.2098 30.987 10.2709 30.7646L16.3257 13.3238C16.3846 13.142 16.4451 12.9361 16.5075 12.7061C16.5861 12.302 16.6266 11.8913 16.6284 11.4796C16.6248 11.4553 16.626 11.4305 16.6321 11.4066C16.6381 11.3827 16.6488 11.3603 16.6636 11.3406C16.6784 11.3209 16.6969 11.3043 16.7181 11.2919C16.7393 11.2794 16.7628 11.2712 16.7872 11.2679C16.8048 11.2652 16.8226 11.2652 16.8402 11.2679H21.6535C21.7946 11.2679 21.8749 11.3182 21.8961 11.4187L28.768 30.7946C28.8288 30.9958 28.768 31.0972 28.5862 31.0972H24.6508C24.5833 31.1048 24.5153 31.0874 24.4596 31.0484C24.4039 31.0095 24.3643 30.9515 24.3482 30.8855L22.8041 26.4057ZM16.901 22.5886H21.6835C21.5629 22.1845 21.4217 21.7304 21.2599 21.2262C21.0982 20.7221 20.9267 20.1821 20.7455 19.6062L20.2002 17.8812C20.0184 17.3059 19.852 16.7506 19.7008 16.2153C19.5496 15.68 19.4122 15.1917 19.2887 14.7506H19.2587C19.0882 15.568 18.8758 16.3761 18.6225 17.1718C18.3402 18.0806 18.0525 19.0091 17.7596 19.9574C17.4666 20.9056 17.1805 21.7827 16.901 22.5886Z" fill="#FF9A00"/>
<path d="M32.8542 14.4778C32.5454 14.4901 32.2375 14.4371 31.9506 14.3223C31.6637 14.2075 31.4043 14.0335 31.1892 13.8116C30.9747 13.58 30.8081 13.3083 30.6991 13.0121C30.5901 12.7159 30.5407 12.4011 30.5539 12.0857C30.5434 11.7741 30.5986 11.4638 30.716 11.1749C30.8333 10.8861 31.0102 10.6252 31.2351 10.4092C31.4578 10.1955 31.7205 10.0279 32.0083 9.91613C32.296 9.80437 32.603 9.75064 32.9116 9.75803C33.638 9.75803 34.208 9.97509 34.6216 10.4092C35.0411 10.8644 35.2632 11.4672 35.2392 12.0857C35.252 12.4024 35.2009 12.7183 35.089 13.0148C34.9771 13.3113 34.8068 13.5823 34.5881 13.8116C34.3605 14.036 34.089 14.211 33.7906 14.3256C33.4923 14.4402 33.1735 14.492 32.8542 14.4778ZM30.7657 30.7945V16.3237C30.7657 16.1419 30.8459 16.0511 31.0074 16.0511H34.7301C34.8907 16.0511 34.9719 16.1393 34.9719 16.3237V30.7945C34.9719 30.9957 34.8916 31.0971 34.7301 31.0971H31.0383C30.8565 31.098 30.7657 30.9965 30.7657 30.7945Z" fill="#FF9A00"/>
</svg>
