<svg width="45" height="44" viewBox="0 0 45 44" fill="none" xmlns="http://www.w3.org/2000/svg">
<rect width="44.2556" height="44" rx="4" fill="#FFCA28"/>
<path d="M26.87 36.5948L30.1284 34.4512C30.3837 35.2488 32.0007 37.1431 34.0433 37.1431C36.0859 37.1431 37.0342 36.034 37.0342 35.2987C37.0342 33.2948 34.9485 32.5882 33.9467 32.2489C33.7834 32.1936 33.6489 32.148 33.557 32.1082C33.5098 32.0878 33.4385 32.0607 33.3469 32.0259C32.2328 31.6027 28.1223 30.0413 28.1223 25.5154C28.1223 20.5303 32.9612 19.957 34.0555 19.957C34.7713 19.957 38.2135 20.0443 39.9278 23.2472L36.7667 25.4406C36.0737 24.0448 34.9223 23.5837 34.2135 23.5837C32.4627 23.5837 32.098 24.8598 32.098 25.4406C32.098 27.0705 34.0001 27.8011 35.6063 28.4179C36.0265 28.5793 36.4264 28.7329 36.7667 28.8928C38.5175 29.7154 41.095 31.0613 41.095 35.2987C41.095 37.421 39.3045 40.857 34.7971 40.857C28.7424 40.857 27.1375 37.2428 26.87 36.5948Z" fill="#3E3E3E"/>
<path d="M11.0645 37.0205L14.4606 34.8779C14.7267 35.6752 15.7607 37.145 17.2611 37.145C18.7614 37.145 19.5294 35.6129 19.5294 34.8779V20.4285H23.706V34.8779C23.7736 36.871 22.6619 40.857 17.7553 40.857C13.244 40.857 11.3686 38.1914 11.0645 37.0205Z" fill="#3E3E3E"/>
</svg>
