<svg width="44" height="44" viewBox="0 0 44 44" fill="none" xmlns="http://www.w3.org/2000/svg">
<path fill-rule="evenodd" clip-rule="evenodd" d="M24.9488 17.9531L35.4908 17.9938C36.1118 17.9967 36.678 18.3474 36.954 18.9001C37.23 19.4528 37.1685 20.1128 36.7951 20.6058L21.2354 41.2483C18.8861 39.5052 17.3302 36.9061 16.91 34.0231C16.4899 31.14 17.2399 28.2093 18.995 25.8757L24.9488 17.9531Z" fill="url(#paint0_linear_29604_6025)"/>
<path fill-rule="evenodd" clip-rule="evenodd" d="M18.9898 25.8774L8.50926 25.8114C7.88827 25.8085 7.32205 25.4578 7.04607 24.9051C6.77008 24.3524 6.83156 23.6923 7.20494 23.1993L22.6112 2.75C24.9605 4.49311 26.5164 7.09216 26.9366 9.9752C27.3567 12.8582 26.6067 15.789 24.8516 18.1226L18.9898 25.8774Z" fill="#2684FF"/>
<defs>
<linearGradient id="paint0_linear_29604_6025" x1="24.5294" y1="19.4992" x2="30.1295" y2="32.3004" gradientUnits="userSpaceOnUse">
<stop stop-color="#0052CC"/>
<stop offset="1" stop-color="#2684FF"/>
</linearGradient>
</defs>
</svg>
