<svg width="44" height="44" viewBox="0 0 44 44" fill="none" xmlns="http://www.w3.org/2000/svg">
<circle cx="22" cy="22" r="22" fill="#0769AD"/>
<path d="M32.4648 17.947C34.44 17.947 36.2486 17.2882 37.647 16.1956C36.1953 18.1083 33.7902 19.3589 31.0688 19.3589C26.6355 19.3589 23.0416 16.0402 23.0416 11.9463C23.0416 9.67645 24.1464 7.64487 25.8866 6.28516C24.9735 7.48836 24.4376 8.9536 24.4376 10.5344C24.4376 14.6282 28.0315 17.947 32.4648 17.947Z" fill="#78CFF5"/>
<path d="M37.5705 23.0344C35.4409 24.7049 32.6841 25.7125 29.6728 25.7125C22.9264 25.7125 17.4574 20.6554 17.4574 14.4172C17.4574 11.9976 18.2801 9.7558 19.681 7.91778C17.0396 9.98968 15.3633 13.0813 15.3633 16.535C15.3633 22.7733 20.8323 27.8303 27.5787 27.8303C31.7084 27.8303 35.3595 25.9353 37.5705 23.0344Z" fill="#78CFF5"/>
<path d="M37.7176 29.4953C34.6831 32.3911 30.4792 34.184 25.8336 34.184C16.5815 34.184 9.08114 27.0724 9.08114 18.2999C9.08114 15.5202 9.83425 12.9072 11.1576 10.6344C8.1484 13.5059 6.28906 17.4619 6.28906 21.8297C6.28906 30.6022 13.7894 37.7137 23.0416 37.7137C29.3619 37.7137 34.8648 34.3951 37.7176 29.4953Z" fill="#78CFF5"/>
</svg>
