<svg width="39" height="44" viewBox="0 0 39 44" fill="none" xmlns="http://www.w3.org/2000/svg">
<path d="M0 42.1713C0 43.252 0.630114 43.9989 1.70069 43.9989H21.9557C19.2374 38.6297 16.194 33.732 12.4058 29.1406C8.48627 31.5981 4.34346 33.723 0 35.4549V42.1713Z" fill="#F15713"/>
<path d="M0 8.72771C4.33247 10.4541 8.46566 12.5729 12.3755 15.0214C16.1768 10.4218 19.4683 5.38297 22.1935 0H2.11092C0.944828 0 0 0.954066 0 2.13116" fill="#69AAB5"/>
<path d="M12.4058 29.1431C15.7714 27.0332 18.9721 24.6825 21.9695 22.0929C18.9632 19.4957 15.7508 17.1381 12.3769 15.0234C10.3264 17.505 8.12345 19.8502 5.79883 22.0654C8.13513 24.2929 10.3477 26.6498 12.4058 29.1431Z" fill="#FFB1A2"/>
<path d="M21.9692 22.0938C18.9721 24.6831 15.7716 27.0336 12.4063 29.1432C16.1945 33.7346 19.2378 38.6322 21.9562 44.0014L37.1669 44.0015C38.5707 44.0015 39.0895 43.0054 38.5707 42.1113C34.1702 34.531 28.5403 27.7727 21.9692 22.0938Z" fill="#F37036"/>
<path d="M22.1919 0.00227491C19.4681 5.38197 16.1737 10.4248 12.3751 15.0221C15.749 17.1367 18.9628 19.4944 21.9691 22.0916C28.6392 16.3251 34.3411 9.4498 38.7698 1.73054C39.2096 0.963703 38.6461 0 37.7666 0L22.1919 0.00227491Z" fill="#85B8C1"/>
<path d="M0 27.0896C2.01197 25.5063 3.94629 23.8316 5.79952 22.0659C3.94629 20.301 2.01197 18.6241 0 17.043V27.0896Z" fill="#F76F6D"/>
<path d="M0 8.72656C4.33247 10.453 8.46566 12.5717 12.3755 15.0202C10.3251 17.5017 8.12348 19.8478 5.79891 22.0629C3.94579 20.298 2.01195 18.6219 0.00012024 17.0408L0 8.72656Z" fill="#F39D90"/>
<path d="M12.4059 29.1402C10.3479 26.647 8.13517 24.29 5.79891 22.0625C3.94568 23.8281 2.01197 25.5037 0 27.087V35.4543C4.34344 33.7224 8.48641 31.5976 12.4059 29.1402Z" fill="#FA8176"/>
</svg>
