<svg width="46" height="43" viewBox="0 0 46 43" fill="none" xmlns="http://www.w3.org/2000/svg">
<path d="M8.76022 0H37.2403C41.5575 0 45.0493 3.49182 45.0493 7.80905V35.191C45.0493 39.5082 41.5575 43 37.2403 43H8.76022C4.44299 42.9964 0.951172 39.5046 0.951172 35.1874V7.80546C0.951172 3.49182 4.44299 0 8.76022 0Z" fill="#001E36"/>
<path d="M24.102 30.3892H12.4566C12.2485 30.3892 12.1659 30.2852 12.1659 30.0627V11.2829C12.148 11.1645 12.2341 11.0425 12.3741 11.0245C12.392 11.0245 12.4099 11.0245 12.4422 11.0245H16.0381C16.1243 11.0066 16.2463 11.0748 16.2463 11.1788C16.2463 11.1968 16.2463 11.2147 16.2463 11.2291V26.657H24.7408C24.931 26.657 24.9812 26.7431 24.9489 26.9154L24.4142 30.1129C24.4142 30.199 24.364 30.2852 24.3101 30.3354C24.2384 30.3749 24.1702 30.3892 24.102 30.3892Z" fill="#31A8FF"/>
<path d="M27.0411 15.6863H30.2566C30.4468 15.6863 30.5832 15.8083 30.6335 15.9769C30.7016 16.099 30.7555 16.2533 30.7878 16.4076C30.8237 16.5978 30.856 16.7844 30.8739 16.9746C30.8918 17.1828 30.9098 17.4053 30.9098 17.6278C31.4589 16.9925 32.1299 16.4578 32.8692 16.0451C33.7126 15.5822 34.6564 15.3561 35.6038 15.392C35.7258 15.374 35.8443 15.4602 35.8622 15.5965C35.8622 15.6145 35.8622 15.6324 35.8622 15.6647V19.2606C35.8622 19.4149 35.7761 19.4688 35.5715 19.4688C34.3837 19.4006 33.1814 19.6231 32.0976 20.0896C31.7352 20.2619 31.3763 20.4664 31.1 20.7786V30.1524C31.1 30.3426 31.0318 30.4108 30.8595 30.4108H27.2816C27.1273 30.4287 27.0053 30.3426 26.9909 30.1883C26.9909 30.1703 26.9909 30.138 26.9909 30.1201V19.9317C26.9909 19.4831 26.9909 19.0381 26.973 18.5572C26.955 18.0763 26.955 17.5955 26.9371 17.1289C26.9191 16.7162 26.8868 16.3215 26.833 15.9088C26.8151 15.8226 26.8689 15.7186 26.955 15.7006C26.9909 15.6683 27.0088 15.6683 27.0411 15.6863Z" fill="#31A8FF"/>
</svg>
