<svg width="51" height="51" viewBox="0 0 51 51" fill="none" xmlns="http://www.w3.org/2000/svg">
<g clip-path="url(#clip0_29604_5124)">
<path d="M51 25.5C51 39.576 39.5887 51 25.5 51C11.4112 51 0 39.576 0 25.5C0 11.4112 11.4112 0 25.5 0C39.5887 0 51 11.4112 51 25.5Z" fill="white"/>
<path d="M16.9467 36.2641C16.7185 35.9239 16.5188 35.465 16.3567 34.9161C13.4303 31.6158 15.691 26.7592 17.9272 23.4613C18.1416 23.1086 18.3751 22.768 18.629 22.4422C20.3351 20.3224 20.7764 18.8472 20.9078 16.8515C20.9234 16.4799 20.8926 15.9881 20.8573 15.4229C20.6768 12.5376 20.3768 7.74369 25.5249 7.31868C31.96 6.78735 31.4358 12.6967 31.3883 16.1614C31.3863 16.3047 31.3843 16.4442 31.383 16.5788C31.3655 18.6673 32.4554 20.0973 33.5931 21.5898C34.0086 22.1349 34.4304 22.6883 34.8071 23.2851C34.8182 23.3028 34.8293 23.3207 34.8404 23.3383C36.8285 26.2056 38.7913 30.4847 36.0593 34.5434C35.6754 35.9288 35.094 37.2003 34.3178 38.2351C31.5314 41.9018 29.0548 41.5295 27.1207 41.2388C26.5373 41.1512 26.0032 41.0708 25.5249 41.1111C24.7304 41.1595 24.0936 41.288 23.5436 41.3991C21.4174 41.8282 20.5865 41.9959 16.9467 36.2641Z" fill="black"/>
<path d="M29.1707 10.5587C29.1109 12.257 27.3095 13.7322 25.1501 13.8685C22.9906 14.0049 21.2963 12.7157 21.356 11.0174C21.4156 9.31906 23.2172 7.8439 25.3766 7.70753C27.5361 7.58358 29.2302 8.8604 29.1707 10.5587Z" fill="url(#paint0_linear_29604_5124)"/>
<path fill-rule="evenodd" clip-rule="evenodd" d="M25.249 14.6845C25.2663 15.608 25.6893 16.3954 26.2832 16.7511C24.3454 16.5776 21.9442 17.2859 21.9442 18.6267C21.9143 20.8945 20.6521 23.7163 19.7434 25.7474C19.5645 26.1475 19.3993 26.5169 19.2598 26.8453C18.6973 28.2382 18.3598 29.7279 18.3199 31.1889C16.8302 29.1354 17.9127 26.5011 18.4963 25.3578C19.2729 23.8533 19.258 23.6655 18.9563 24.0181C17.7999 25.9845 15.6222 29.9343 18.3493 32.307C18.4358 33.3666 18.6939 34.3931 19.1525 35.3368C22.8032 42.7003 29.6396 39.6756 31.8945 35.8576C32.1945 35.3146 32.4371 34.7895 32.6296 34.282C32.7426 34.3531 32.8635 34.4081 32.9921 34.4443C34.1256 34.7791 35.8197 33.5023 36.2253 32.7089C36.7145 31.6552 36.2135 30.9361 34.5432 30.0807C34.458 30.0386 34.3738 29.9989 34.2908 29.962C34.9314 27.2646 33.166 24.4596 31.9052 23.2697C31.6701 23.2116 31.6369 23.3449 32.002 23.709C32.7959 24.47 34.523 27.183 33.5886 29.708C33.4347 29.6667 33.2866 29.6376 33.1455 29.6215C32.8584 27.8988 32.093 26.5586 31.5581 25.622C31.437 25.4098 31.3277 25.2184 31.2382 25.0479C31.0583 24.7039 30.843 24.3476 30.6146 23.9698C29.7346 22.514 28.6613 20.7379 28.6613 18.1059C28.5267 17.5269 27.9802 17.1407 27.2529 16.9275C28.0972 16.7571 28.7309 15.7708 28.709 14.5855C28.6851 13.3085 27.8857 12.292 26.9313 12.3169C25.9769 12.3416 25.2133 13.4077 25.249 14.6845ZM26.0364 14.9696C26.0246 15.6763 26.3586 16.2464 26.8001 16.2464C27.2296 16.2464 27.5994 15.6763 27.6114 14.982C27.6232 14.2755 27.2892 13.7052 26.8479 13.7052C26.4064 13.7052 26.0484 14.2755 26.0364 14.9696Z" fill="url(#paint1_linear_29604_5124)"/>
<path fill-rule="evenodd" clip-rule="evenodd" d="M22.8727 16.6685C23.5647 16.6314 24.0657 15.7017 24.0062 14.5985C23.9464 13.4951 23.3381 12.6398 22.6459 12.6769C21.954 12.7141 21.4529 13.6439 21.5126 14.7471C21.5722 15.8503 22.1807 16.7057 22.8727 16.6685ZM23.2902 14.9826C23.3499 15.5653 23.1352 16.0611 22.825 16.1108C22.5148 16.148 22.2164 15.7141 22.1569 15.1314C22.0971 14.5488 22.3119 14.0529 22.6221 14.0034C22.9323 13.9662 23.2306 14.4 23.2902 14.9826Z" fill="url(#paint2_linear_29604_5124)"/>
<path d="M26.2145 14.5731C26.1787 14.9698 26.3577 15.2922 26.6082 15.317C26.8588 15.3417 27.0974 15.0317 27.1331 14.6476C27.169 14.2508 26.9899 13.9285 26.7395 13.9037C26.4888 13.8789 26.2502 14.1889 26.2145 14.5731Z" fill="url(#paint3_linear_29604_5124)"/>
<path d="M23.0173 14.6688C23.053 14.9912 22.9219 15.2762 22.731 15.301C22.5401 15.3258 22.3611 15.0779 22.3252 14.7433C22.2895 14.4209 22.4206 14.1358 22.6117 14.111C22.8026 14.0862 22.9815 14.3465 23.0173 14.6688Z" fill="url(#paint4_linear_29604_5124)"/>
<path d="M30.3653 27.599C30.3653 29.7807 28.349 32.6072 24.8892 32.5825C21.3217 32.6072 19.8066 29.7807 19.8066 27.599C19.8066 25.4173 22.1689 23.6445 25.08 23.6445C28.0031 23.6571 30.3653 25.4173 30.3653 27.599Z" fill="url(#paint5_linear_29604_5124)"/>
<path d="M28.4727 20.7424C28.437 22.9986 27.0172 23.5316 25.2275 23.5316C23.4379 23.5316 22.1374 23.1968 21.9824 20.7424C21.9824 19.2053 23.4379 18.3126 25.2275 18.3126C27.0172 18.3002 28.4727 19.1929 28.4727 20.7424Z" fill="url(#paint6_linear_29604_5124)"/>
<path d="M17.6603 24.2139C18.8296 22.367 21.2991 19.5281 18.1257 24.6106C15.5485 28.8006 17.1712 31.4907 18.0064 32.2344C20.4163 34.4658 20.3209 35.9658 18.4238 34.788C14.3555 32.2715 15.2026 28.032 17.6603 24.2139Z" fill="url(#paint7_linear_29604_5124)"/>
<path d="M34.5827 24.9687C33.5687 22.7994 30.3473 17.2954 34.7379 23.6919C38.7346 29.481 35.9309 33.5098 35.4298 33.9065C34.9288 34.3032 33.2465 35.1088 33.7357 33.7081C34.2368 32.3073 36.7183 29.6546 34.5827 24.9687Z" fill="url(#paint8_linear_29604_5124)"/>
<path d="M16.7769 42.081C14.1045 40.6058 10.227 42.366 11.6348 38.3743C11.9211 37.4695 11.2172 36.1059 11.6706 35.2256C12.2075 34.1472 13.3647 34.3827 14.0567 33.6638C14.7368 32.9201 15.1663 31.6309 16.4429 31.829C17.7075 32.0274 18.5547 33.639 19.4375 35.6223C20.0938 37.0356 22.4083 39.0313 22.2531 40.6182C22.0622 43.0478 19.4016 43.5064 16.7769 42.081Z" fill="url(#paint9_linear_29604_5124)"/>
<path fill-rule="evenodd" clip-rule="evenodd" d="M14.34 33.9549C13.6902 34.6658 12.4965 34.4953 12.0175 35.4253C11.7098 36.0225 12.046 36.9405 12.0913 37.5946C12.1474 38.4028 11.4775 39.5477 11.8186 40.2379C12.2018 41.0129 13.9326 40.9123 14.6935 41.0236C16.5718 41.2979 19.6762 43.7288 21.3747 41.7888C23.0351 39.8924 19.8436 37.4923 19.0607 35.8063C18.5517 34.6625 17.7898 32.4697 16.3716 32.2469C15.3718 32.0917 14.9164 33.3245 14.34 33.9549ZM16.4923 31.4125C18.2582 31.6895 19.1418 33.9787 19.7935 35.4426C20.7827 37.5655 24.1722 39.8474 21.9754 42.3566C19.9802 44.6355 16.8302 42.1877 14.5804 41.8591C13.4567 41.6948 11.6843 41.8129 11.0963 40.6233C10.5908 39.6007 11.3521 38.6745 11.2814 37.6553C11.2212 36.7868 10.8775 35.8542 11.3002 35.0299C11.8788 33.8713 12.9958 34.1518 13.755 33.3698C14.5613 32.4839 15.0445 31.1876 16.4923 31.4125Z" fill="#E68C3F"/>
<path d="M35.299 41.3944C37.2556 38.9276 41.6102 39.4358 38.6754 36.0516C38.055 35.3203 38.2459 33.7583 37.4823 33.0889C36.5875 32.2707 35.5972 32.9401 34.6904 32.5186C33.7837 32.0599 32.8293 31.1798 31.7197 31.7997C30.6101 32.4319 30.4908 34.0683 30.3835 36.2252C30.288 37.7747 28.928 40.3655 29.6557 41.7911C30.7057 43.9976 33.4378 43.7002 35.299 41.3944Z" fill="url(#paint10_linear_29604_5124)"/>
<path fill-rule="evenodd" clip-rule="evenodd" d="M36.0863 32.2385C36.5879 32.2252 37.1888 32.2604 37.7531 32.7745C38.4548 33.3933 38.4618 34.4033 38.7264 35.249C39.0397 36.2504 40.1378 36.8225 40.0721 37.9969C39.9648 39.9165 36.6402 40.379 35.6169 41.6693C34.6335 42.8875 33.3906 43.6128 32.211 43.7106C30.4222 43.8588 28.9446 42.3547 29.0492 40.5182C29.1341 39.0313 29.8914 37.6807 29.9837 36.2059C30.0369 35.1378 30.0943 34.1477 30.2874 33.3437C30.4825 32.5312 30.834 31.8316 31.5301 31.4349C33.0547 30.5832 34.5275 32.2793 36.0863 32.2385ZM31.9192 32.1757C31.5065 32.4113 31.244 32.8458 31.0753 33.5479C30.9047 34.2586 30.8486 35.1694 30.7943 36.2573C30.7032 37.7356 29.9444 39.0852 29.8599 40.5681C29.7845 41.8902 30.8001 42.9811 32.1465 42.8694C33.0603 42.7937 34.1146 42.2166 34.9923 41.1298C35.7766 40.1419 39.19 39.2244 39.2614 37.9479C39.308 37.1145 38.2115 36.3325 37.954 35.51C37.7525 34.8661 37.7419 33.8687 37.2261 33.4164C36.8964 33.1151 36.5496 33.0703 36.1067 33.082C34.8231 33.1155 33.1108 31.5117 31.9192 32.1757Z" fill="#E68C3F"/>
<path d="M34.4548 38.0992C37.4851 33.4506 35.2302 33.4877 34.4667 33.1282C33.7031 32.7564 32.9039 32.0249 32.009 32.5333C31.1142 33.0539 31.0664 34.3926 31.0426 36.153C31.0069 37.4174 29.9927 39.5372 30.6012 40.7148C31.3409 42.0909 33.1305 40.0949 34.4548 38.0992Z" fill="url(#paint11_linear_29604_5124)"/>
<path d="M16.1501 38.7721C11.6163 35.7227 13.74 34.6814 14.4201 34.1978C15.2434 33.578 15.2552 32.388 16.2694 32.4995C17.2834 32.6112 17.8799 33.9127 18.56 35.5243C19.0611 36.6771 20.8031 38.2142 20.6718 39.5406C20.5047 41.1027 18.1066 40.0737 16.1501 38.7721Z" fill="url(#paint12_linear_29604_5124)"/>
<path d="M35.9772 32.6712C35.6193 33.3158 34.1638 34.3322 33.1974 34.0595C32.2072 33.7993 31.7539 32.3489 31.9566 31.258C32.1357 30.0183 33.1974 29.9564 34.5337 30.5762C35.9534 31.2456 36.3949 31.8159 35.9772 32.6712Z" fill="black"/>
<path d="M34.9944 32.311C34.7676 32.7572 33.8132 33.4638 33.1451 33.2778C32.477 33.0918 32.1429 32.0879 32.2502 31.3316C32.3457 30.4763 33.0615 30.4267 33.9684 30.8482C34.9467 31.3192 35.2569 31.7159 34.9944 32.311Z" fill="url(#paint13_linear_29604_5124)"/>
<path d="M22.6535 16.1361C23.1307 15.6772 24.2881 14.2765 26.4833 15.7394C26.8889 16.012 27.2229 16.0368 27.9985 16.384C29.5615 17.0533 28.8216 18.6647 27.1514 19.2103C26.4355 19.4458 25.7913 20.3507 24.5028 20.264C23.3932 20.202 23.1069 19.4458 22.4268 19.0367C21.2219 18.3302 21.0428 17.3755 21.6991 16.8674C22.3552 16.3592 22.6058 16.1732 22.6535 16.1361Z" fill="url(#paint14_linear_29604_5124)"/>
<path fill-rule="evenodd" clip-rule="evenodd" d="M21.8418 17.0695C21.5922 17.2627 21.5128 17.5195 21.5953 17.8037C21.7647 18.3873 22.9862 19.19 23.4539 19.5827C23.7198 19.806 24.024 19.983 24.5156 20.0105C25.5684 20.0814 26.1531 19.2714 27.0754 18.9679C27.682 18.7698 28.9655 18.0128 28.5404 17.1452C28.1776 16.4048 26.9554 16.3591 26.3483 15.9511C25.3036 15.2551 24.5429 15.2601 24.0011 15.4553C23.4073 15.6693 22.3794 16.6529 21.8418 17.0695ZM23.8413 14.977C24.5462 14.7231 25.4626 14.7595 26.6126 15.5258C27.3685 16.034 28.5186 15.985 28.9745 16.9156C29.5553 18.1008 28.1479 19.1483 27.2217 19.4508C26.2299 19.7774 25.6759 20.5954 24.4854 20.5158C23.8681 20.481 23.4721 20.2488 23.1477 19.9765C22.4747 19.4115 21.3376 18.8745 21.0777 17.9785C20.9334 17.4817 21.1438 16.9786 21.5505 16.6635C22.2079 16.1544 23.0962 15.2457 23.8413 14.977Z" fill="#E68C3F"/>
<path fill-rule="evenodd" clip-rule="evenodd" d="M28.1805 17.4253C28.1854 17.5183 28.1167 17.5979 28.0273 17.6028C26.7645 17.6744 25.8771 19.1155 24.4511 19.1155C23.6531 19.1155 23.0215 18.7305 22.5697 18.3602C22.4788 18.2857 21.6758 17.6666 21.6758 17.5089C21.6758 17.4156 21.7485 17.34 21.8383 17.34C22.006 17.34 22.5122 17.8894 22.7005 18.0438C23.126 18.3926 23.7577 18.778 24.4511 18.778C25.8629 18.778 26.729 17.3386 28.0094 17.2659C28.099 17.2608 28.1755 17.3322 28.1805 17.4253Z" fill="#E68C3F"/>
<path d="M23.3928 16.005C23.6314 15.7819 24.3829 15.1744 25.3732 15.7943C25.588 15.9181 25.8027 16.0545 26.1129 16.2405C26.7453 16.6248 26.4351 17.1826 25.6714 17.5297C25.3255 17.6785 24.7529 18.0007 24.3234 17.976C23.8462 17.9264 23.5239 17.604 23.2138 17.3933C22.6291 16.9968 22.665 16.662 22.9393 16.4017C23.1422 16.2034 23.3689 16.0174 23.3928 16.005Z" fill="url(#paint15_linear_29604_5124)"/>
</g>
<defs>
<linearGradient id="paint0_linear_29604_5124" x1="25.6078" y1="7.84778" x2="25.2045" y2="13.3117" gradientUnits="userSpaceOnUse">
<stop stop-color="white" stop-opacity="0.8"/>
<stop offset="1" stop-color="white" stop-opacity="0"/>
</linearGradient>
<linearGradient id="paint1_linear_29604_5124" x1="19.8412" y1="37.6549" x2="16.8431" y2="27.8183" gradientUnits="userSpaceOnUse">
<stop stop-color="#FFEED7"/>
<stop offset="1" stop-color="#BDBFC2"/>
</linearGradient>
<linearGradient id="paint2_linear_29604_5124" x1="19.851" y1="37.6556" x2="16.8529" y2="27.8189" gradientUnits="userSpaceOnUse">
<stop stop-color="#FFEED7"/>
<stop offset="1" stop-color="#BDBFC2"/>
</linearGradient>
<linearGradient id="paint3_linear_29604_5124" x1="26.71" y1="13.9463" x2="26.54" y2="15.219" gradientUnits="userSpaceOnUse">
<stop stop-color="white" stop-opacity="0.65"/>
<stop offset="1" stop-color="white" stop-opacity="0"/>
</linearGradient>
<linearGradient id="paint4_linear_29604_5124" x1="22.6403" y1="14.1747" x2="22.8232" y2="15.2045" gradientUnits="userSpaceOnUse">
<stop stop-color="white" stop-opacity="0.65"/>
<stop offset="1" stop-color="white" stop-opacity="0"/>
</linearGradient>
<linearGradient id="paint5_linear_29604_5124" x1="25.0691" y1="24.827" x2="25.0995" y2="32.1065" gradientUnits="userSpaceOnUse">
<stop stop-color="white" stop-opacity="0.8"/>
<stop offset="1" stop-color="white" stop-opacity="0"/>
</linearGradient>
<linearGradient id="paint6_linear_29604_5124" x1="25.2229" y1="20.2606" x2="25.2564" y2="23.1551" gradientUnits="userSpaceOnUse">
<stop stop-color="white" stop-opacity="0.65"/>
<stop offset="1" stop-color="white" stop-opacity="0"/>
</linearGradient>
<linearGradient id="paint7_linear_29604_5124" x1="17.7084" y1="22.0479" x2="17.7084" y2="32.6699" gradientUnits="userSpaceOnUse">
<stop stop-color="white" stop-opacity="0.65"/>
<stop offset="1" stop-color="white" stop-opacity="0"/>
</linearGradient>
<linearGradient id="paint8_linear_29604_5124" x1="34.6645" y1="21.0088" x2="34.6605" y2="30.6064" gradientUnits="userSpaceOnUse">
<stop stop-color="white" stop-opacity="0.65"/>
<stop offset="1" stop-color="white" stop-opacity="0"/>
</linearGradient>
<linearGradient id="paint9_linear_29604_5124" x1="17.1771" y1="37.2274" x2="15.5502" y2="42.6625" gradientUnits="userSpaceOnUse">
<stop stop-color="#FFA63F"/>
<stop offset="1" stop-color="#FFFF00"/>
</linearGradient>
<linearGradient id="paint10_linear_29604_5124" x1="32.5679" y1="35.5698" x2="36.9095" y2="41.4897" gradientUnits="userSpaceOnUse">
<stop stop-color="#FFA63F"/>
<stop offset="1" stop-color="#FFFF00"/>
</linearGradient>
<linearGradient id="paint11_linear_29604_5124" x1="33.7339" y1="30.8425" x2="32.2158" y2="37.9956" gradientUnits="userSpaceOnUse">
<stop stop-color="white" stop-opacity="0.65"/>
<stop offset="1" stop-color="white" stop-opacity="0"/>
</linearGradient>
<linearGradient id="paint12_linear_29604_5124" x1="16.8389" y1="32.6148" x2="17.14" y2="40.665" gradientUnits="userSpaceOnUse">
<stop stop-color="white" stop-opacity="0.65"/>
<stop offset="1" stop-color="white" stop-opacity="0"/>
</linearGradient>
<linearGradient id="paint13_linear_29604_5124" x1="33.4729" y1="30.7131" x2="33.825" y2="33.1184" gradientUnits="userSpaceOnUse">
<stop stop-color="white" stop-opacity="0.65"/>
<stop offset="1" stop-color="white" stop-opacity="0"/>
</linearGradient>
<linearGradient id="paint14_linear_29604_5124" x1="25.0706" y1="16.002" x2="25.0999" y2="20.2383" gradientUnits="userSpaceOnUse">
<stop stop-color="#FFA63F"/>
<stop offset="1" stop-color="#FFFF00"/>
</linearGradient>
<linearGradient id="paint15_linear_29604_5124" x1="24.6066" y1="15.5943" x2="24.5986" y2="17.8343" gradientUnits="userSpaceOnUse">
<stop stop-color="white" stop-opacity="0.65"/>
<stop offset="1" stop-color="white" stop-opacity="0"/>
</linearGradient>
<clipPath id="clip0_29604_5124">
<rect width="51" height="51" fill="white"/>
</clipPath>
</defs>
</svg>
