<svg width="44" height="44" viewBox="0 0 44 44" fill="none" xmlns="http://www.w3.org/2000/svg">
<g clip-path="url(#clip0_29604_6114)">
<path d="M22 0C9.86562 0 0 9.86562 0 22C0 34.1344 9.86562 44 22 44C34.1344 44 44 34.1344 44 22C44 9.86562 34.1344 0 22 0Z" fill="#FDDD4C"/>
<path d="M13.5698 27.0194C13.1489 26.3821 14.2076 25.4177 13.777 24.6078C13.5288 24.1409 13.123 23.8498 12.6358 23.7887C12.1681 23.73 11.6864 23.9012 11.3793 24.2357C10.8945 24.7633 10.8191 25.4815 10.9129 25.7356C10.9472 25.8287 11.0012 25.8541 11.0398 25.8596C11.3038 25.8944 11.4524 25.2167 11.5436 25.0755C11.7956 24.6865 12.368 24.5688 12.7633 24.8244C13.5127 25.3092 12.8629 26.0927 12.9189 26.7543C12.9735 27.3987 13.3749 27.6577 13.7353 27.6849C14.086 27.6981 14.3311 27.5034 14.393 27.3613C14.5414 27.0218 13.9161 27.5437 13.5698 27.0194Z" fill="black"/>
<path d="M29.2292 21.1684C29.0326 21.1413 28.8178 21.1419 28.5942 21.1684C28.4245 20.9543 28.2725 20.6075 28.1867 20.2029C28.034 19.4829 28.05 18.9614 28.476 18.8936C28.9019 18.826 29.1078 19.2616 29.2604 19.9815C29.3628 20.4655 29.3432 20.9102 29.2292 21.1684Z" fill="black"/>
<path d="M24.564 21.596C24.5809 21.7589 24.5868 21.9239 24.582 22.0759C24.9943 22.1001 25.2862 22.2957 25.3639 22.42C25.4037 22.4841 25.3878 22.5259 25.375 22.5452C25.3322 22.6116 25.2408 22.6014 25.0493 22.5798C24.8819 22.5611 24.7018 22.5446 24.5145 22.5531C24.4126 22.8657 24.1105 22.895 23.8982 22.6638C23.75 22.7089 23.4588 22.895 23.3719 22.6928C23.3712 22.5926 23.4761 22.4467 23.666 22.318C23.5363 22.0707 23.4494 21.806 23.3982 21.5318C23.1289 21.5803 22.8867 21.6557 22.6968 21.7148C22.6077 21.7426 22.255 21.9019 22.2136 21.7224C22.1859 21.5983 22.379 21.3939 22.5832 21.2462C22.8112 21.0844 23.0642 20.9693 23.3265 20.9029C23.3209 20.5124 23.4204 20.2398 23.7042 20.1947C24.056 20.1388 24.274 20.4097 24.4249 20.9111C24.85 21.0292 25.2746 21.3221 25.462 21.6249C25.5349 21.7423 25.5491 21.8331 25.5018 21.8809C25.3839 22.003 24.7312 21.6489 24.564 21.596Z" fill="black"/>
<path d="M27.3595 23.3534C27.6291 23.484 27.9258 23.4326 28.0226 23.2384C28.1194 23.0441 27.9792 22.781 27.7094 22.6503C27.4398 22.5197 27.1432 22.5712 27.0462 22.7653C26.9494 22.9595 27.0898 23.2226 27.3595 23.3534Z" fill="black"/>
<path d="M28.6866 22.39C28.6914 22.093 28.8735 21.8558 29.0924 21.8594C29.3112 21.8637 29.4845 22.1069 29.4797 22.4034C29.4748 22.6998 29.2927 22.937 29.074 22.9333C28.8551 22.9297 28.6817 22.6865 28.6866 22.39Z" fill="black"/>
<path fill-rule="evenodd" clip-rule="evenodd" d="M36.4395 26.5976C36.4375 26.5905 36.4444 26.615 36.4395 26.5976C36.9418 26.5976 37.7305 27.1668 37.7305 28.5422C37.7305 29.9107 37.1547 31.4608 37.0188 31.8049C34.9448 36.7068 29.9946 39.4354 24.098 39.2627C18.6008 39.1018 13.9126 36.2411 11.861 31.5776C10.6205 31.579 9.34145 31.0408 8.36921 30.1911C7.34443 29.2959 6.71262 28.1374 6.58934 26.9291C6.49338 25.9884 6.61036 25.1131 6.90945 24.3498L5.75719 23.3868C0.484109 18.9961 16.9765 0.917959 22.251 5.45511C22.2775 5.47791 24.0455 7.18831 24.0498 7.19246C26.593 6.12753 33.4073 4.09995 33.4149 8.81998C33.4177 10.3874 32.4049 12.2152 30.7819 13.8738C32.6576 15.5892 32.1629 18.026 32.4616 20.2617L33.113 20.4399C34.3549 20.7832 35.2382 21.2412 35.6705 21.6888C36.1026 22.1358 36.317 22.5689 36.3948 23.0767C36.4675 23.4863 36.4578 24.2096 35.91 25.0185C36.1072 25.5403 36.2873 26.0606 36.4395 26.5976ZM11.7679 30.3059C11.9521 30.31 12.1349 30.2982 12.3142 30.2679C14.2412 29.9439 14.7455 27.8798 14.4282 25.8529C14.0696 23.5643 12.4998 22.7575 11.4344 22.7002C11.1381 22.685 10.8629 22.7112 10.6359 22.7561C8.73416 23.134 7.66035 24.7297 7.87188 26.8021C8.06311 28.6777 9.98659 30.2588 11.7679 30.3059ZM7.46072 23.3185C8.09884 22.4046 9.14182 21.7434 10.3256 21.5161C11.8323 17.5275 14.3484 13.8525 17.6784 11.3234C20.1496 9.29042 22.8148 7.83214 22.8148 7.83214C22.8148 7.83214 21.3796 6.19082 20.946 6.06993C18.2793 5.35978 12.5202 9.2766 8.84273 14.4521C7.35494 16.5458 5.22484 20.254 6.24332 22.1614C6.3687 22.3977 7.07966 23.0048 7.46072 23.3185ZM29.0805 29.3898C29.0846 29.4327 29.0581 29.4769 29.0196 29.4928C29.0196 29.4928 26.8768 30.4758 23.4732 29.4375C23.5956 30.4568 24.8328 30.843 25.6973 30.9829C29.9147 31.6985 33.8577 29.3201 34.7451 28.7211C34.8975 28.6183 34.7432 28.8827 34.7157 28.9215C33.6292 30.3037 30.7084 31.9043 26.9084 31.9037C25.251 31.9029 23.5945 31.3275 22.9864 30.4426C22.0429 29.07 22.9396 27.066 24.5121 27.2745C27.1702 27.5706 29.8952 27.3482 32.3559 26.2219C34.5013 25.2395 35.3117 24.1592 35.1899 23.2839C35.0009 21.9274 32.9881 21.7153 31.9706 21.3856C31.5279 21.2412 31.3093 21.1258 31.2596 20.3045C31.238 19.9459 31.1748 18.695 31.1517 18.1775C31.1111 17.2719 31.0004 16.0334 30.2216 15.5222C30.0184 15.3887 29.7929 15.3245 29.5554 15.3121C29.3661 15.303 29.2537 15.3291 29.1934 15.343C29.1799 15.3462 29.1689 15.3487 29.1604 15.3501C28.7397 15.4206 28.482 15.6332 28.1781 15.8839C28.1606 15.8983 28.1429 15.9129 28.1251 15.9275C27.1535 16.7262 26.3332 16.8567 25.4205 16.818C25.1363 16.8061 24.8433 16.7778 24.5342 16.7479C24.25 16.7204 23.9522 16.6915 23.6351 16.673L23.2477 16.6508C21.7193 16.5734 20.0802 17.875 19.8077 19.7235C19.5033 21.7869 20.6577 23.0508 21.4084 23.8727C21.5939 24.0758 21.7549 24.2518 21.863 24.4065C21.9323 24.4997 22.0129 24.631 22.0129 24.756C22.0129 24.9053 21.9147 25.0233 21.8188 25.1241C20.2595 26.7054 19.7609 29.2179 20.3486 31.3116C20.4221 31.5727 20.5152 31.8228 20.6252 32.0618C22.0038 35.2388 26.2807 36.7186 30.4582 35.3728C33.3861 34.4297 35.973 32.1505 36.4997 29.0064C36.6251 28.1872 36.441 27.8708 36.1902 27.7181C35.9247 27.5571 35.6067 27.613 35.6067 27.613C35.6067 27.613 35.4616 26.6343 35.0512 25.7446C33.8332 26.6922 32.2655 27.3582 31.0719 27.6959C29.1596 28.2371 27.0938 28.4476 25.1177 28.1925C24.3161 28.0891 23.7776 28.0195 23.5468 28.7591C26.1827 29.711 28.9726 29.3035 28.9726 29.3035C29.0265 29.298 29.0749 29.3366 29.0805 29.3898ZM21.4756 10.9172C20.034 11.6446 18.4244 12.9398 17.1173 14.4299C17.0711 14.4831 17.1397 14.5563 17.1965 14.5156C18.3255 13.7054 19.8735 12.9524 21.9015 12.4646C24.173 11.9182 26.3599 12.1475 27.6956 12.4494C27.7629 12.4646 27.8049 12.3506 27.7455 12.3175C26.8628 11.8291 25.5081 11.4975 24.5471 11.4906C24.5001 11.4899 24.4736 11.436 24.5016 11.3987C24.6675 11.1784 24.8952 10.9608 25.1033 10.8033C25.1495 10.7673 25.1215 10.6934 25.0626 10.6969C23.8672 10.7693 21.1365 12.0132 21.1464 11.9679C21.2163 11.6364 21.437 11.1984 21.5512 10.9939C21.5785 10.9456 21.5253 10.8924 21.4756 10.9172Z" fill="black"/>
</g>
<defs>
<clipPath id="clip0_29604_6114">
<rect width="44" height="44" fill="white"/>
</clipPath>
</defs>
</svg>
