<svg width="44" height="44" viewBox="0 0 44 44" fill="none" xmlns="http://www.w3.org/2000/svg">
<path fill-rule="evenodd" clip-rule="evenodd" d="M40.4266 14.4265C40.7817 13.5308 41.9351 9.97374 40.0683 5.15955C40.0683 5.15955 37.18 4.23829 30.6083 8.79978C27.8583 8.01608 24.9134 7.90412 22 7.90412C19.0834 7.90412 16.1417 8.01608 13.3917 8.79978C6.82 4.20951 3.93171 5.15955 3.93171 5.15955C2.06171 9.97374 3.21829 13.5308 3.57657 14.4265C1.34514 16.8576 0 19.9924 0 23.799C0 38.216 9.15829 41.4627 21.9434 41.4627C34.7349 41.4627 44 38.216 44 23.8022C44 19.9956 42.6517 16.8608 40.4266 14.4265ZM22 38.7214C12.9234 38.7214 5.55657 38.2991 5.55657 29.3425C5.55657 27.2153 6.6 25.2 8.36 23.5495C11.3017 20.8081 16.3334 22.2635 22 22.2635C27.6917 22.2635 32.67 20.8081 35.64 23.5495C37.4283 25.2 38.4466 27.1897 38.4466 29.3425C38.4466 38.2703 31.0734 38.7214 22 38.7214ZM15.0983 24.6946C13.2817 24.6946 11.7983 26.9338 11.7983 29.6752C11.7983 32.4197 13.2817 34.6845 15.0983 34.6845C16.9117 34.6845 18.3983 32.4453 18.3983 29.6752C18.3983 26.905 16.9117 24.6946 15.0983 24.6946ZM28.9017 24.6946C27.0883 24.6946 25.6017 26.905 25.6017 29.6752C25.6017 32.4453 27.0883 34.6845 28.9017 34.6845C30.7183 34.6845 32.2017 32.4453 32.2017 29.6752C32.2017 26.905 30.7466 24.6946 28.9017 24.6946Z" fill="white"/>
</svg>
