<svg width="44" height="44" viewBox="0 0 44 44" fill="none" xmlns="http://www.w3.org/2000/svg">
<mask id="mask0_29604_6247" style="mask-type:alpha" maskUnits="userSpaceOnUse" x="0" y="8" width="44" height="28">
<path d="M10.766 35.75C4.82004 35.75 0 31.0304 0 25.2083C0 19.5142 4.61068 14.8746 10.3759 14.6735C12.7536 10.8235 17.0698 8.25 22 8.25C28.3674 8.25 33.7107 12.5425 35.1764 18.3336C40.056 18.3704 44 22.2551 44 27.0417C44 31.6974 39.875 35.75 35.5745 35.7381L10.766 35.75Z" fill="#C4C4C4"/>
</mask>
<g mask="url(#mask0_29604_6247)">
<path d="M10.766 35.7486C7.3946 35.7486 4.38516 34.2313 2.41113 31.8559L24.8085 22.457L42.2242 32.2624C40.6893 34.265 38.3712 35.7486 35.7501 35.7368C31.7969 35.7486 16.586 35.7486 10.766 35.7486Z" fill="url(#paint0_linear_29604_6247)"/>
<path d="M35.17 18.3086L24.8086 22.459L42.2243 32.2645C43.3394 30.8095 44.0001 29.0016 44.0001 27.0425C44.0001 22.2559 40.0561 18.3712 35.1765 18.3344C35.1744 18.3258 35.1722 18.3172 35.17 18.3086Z" fill="url(#paint1_linear_29604_6247)"/>
<path d="M9.71387 14.7164L24.8084 22.4583L35.1698 18.3079C33.6948 12.5298 28.3578 8.25 21.9999 8.25C17.0697 8.25 12.7535 10.8235 10.3758 14.6735C10.1534 14.6813 9.93266 14.6956 9.71387 14.7164Z" fill="url(#paint2_linear_29604_6247)"/>
<path d="M2.41106 31.8557L24.8085 22.4568L9.71397 14.7148C4.26177 15.2326 0 19.7323 0 25.2068C0 27.7276 0.903646 30.0418 2.41106 31.8557Z" fill="url(#paint3_linear_29604_6247)"/>
</g>
<defs>
<linearGradient id="paint0_linear_29604_6247" x1="6.08513" y1="33.9154" x2="37.442" y2="32.0035" gradientUnits="userSpaceOnUse">
<stop stop-color="#2086B8"/>
<stop offset="1" stop-color="#46D3F6"/>
</linearGradient>
<linearGradient id="paint1_linear_29604_6247" x1="32.766" y1="27.0424" x2="41.5393" y2="20.9118" gradientUnits="userSpaceOnUse">
<stop stop-color="#1694DB"/>
<stop offset="1" stop-color="#62C3FE"/>
</linearGradient>
<linearGradient id="paint2_linear_29604_6247" x1="11.702" y1="10.0833" x2="32.0838" y2="21.9103" gradientUnits="userSpaceOnUse">
<stop stop-color="#0D3D78"/>
<stop offset="1" stop-color="#063B83"/>
</linearGradient>
<linearGradient id="paint3_linear_29604_6247" x1="-0.46809" y1="27.4985" x2="20.0247" y2="19.888" gradientUnits="userSpaceOnUse">
<stop stop-color="#16589B"/>
<stop offset="1" stop-color="#1464B7"/>
</linearGradient>
</defs>
</svg>
