<svg width="47" height="44" viewBox="0 0 47 44" fill="none" xmlns="http://www.w3.org/2000/svg">
<path d="M38.0733 0H8.92754C4.51423 0 0.936523 3.5777 0.936523 7.99102V36.009C0.936523 40.4223 4.51423 44 8.92754 44H38.0733C42.4867 44 46.0644 40.4223 46.0644 36.009V7.99102C46.0644 3.5777 42.4867 0 38.0733 0Z" fill="#001E36"/>
<path d="M11.0986 30.8557V11.5104C11.0986 11.3702 11.1585 11.2988 11.2802 11.2988C11.6021 11.2988 11.8975 11.2988 12.3384 11.2838C12.7793 11.2688 13.2617 11.2635 13.7766 11.2538L15.4115 11.2229C15.9865 11.2129 16.5564 11.2079 17.1214 11.2079C18.6551 11.2079 19.9485 11.3996 21.0014 11.7829C21.9479 12.1037 22.8112 12.6312 23.5287 13.3269C24.137 13.9304 24.607 14.6588 24.9061 15.4618C25.189 16.2438 25.3319 17.0694 25.3284 17.9009C25.3284 19.5164 24.9551 20.8485 24.2085 21.8973C23.4567 22.9506 22.4002 23.7483 21.1813 24.183C19.9097 24.6574 18.4961 24.8179 16.9424 24.8179C16.5015 24.8179 16.1858 24.8135 16.0041 24.8029C15.8225 24.7923 15.55 24.7879 15.1867 24.7879V30.8275C15.1913 30.8588 15.1896 30.8908 15.1818 30.9215C15.174 30.9522 15.1602 30.981 15.1412 31.0064C15.1222 31.0317 15.0983 31.053 15.071 31.0691C15.0437 31.0851 15.0135 31.0956 14.9821 31.1C14.9596 31.1035 14.9367 31.1035 14.9142 31.1H11.3102C11.1656 31.0973 11.0986 31.0171 11.0986 30.8557ZM15.1867 14.9318V21.2412C15.4489 21.2618 15.6911 21.2718 15.9133 21.2712H16.9124C17.6475 21.2687 18.3779 21.1521 19.0772 20.9256C19.6768 20.7482 20.2127 20.4023 20.6213 19.9291C21.0146 19.4653 21.2112 18.8186 21.2112 17.9891C21.2265 17.4034 21.0735 16.8256 20.7703 16.3242C20.4526 15.8393 19.9932 15.4639 19.4547 15.2493C18.7526 14.9766 18.0029 14.848 17.2501 14.871C16.7651 14.871 16.3363 14.876 15.9636 14.886C15.5908 14.896 15.3333 14.9113 15.1911 14.9318H15.1867Z" fill="#31A8FF"/>
<path d="M37.0337 20.094C36.4648 19.8014 35.8587 19.5875 35.2321 19.4582C34.542 19.2996 33.8363 19.2183 33.1281 19.2157C32.7452 19.2055 32.3628 19.2515 31.9932 19.3524C31.7577 19.4045 31.5483 19.5386 31.4024 19.7307C31.3038 19.8843 31.2514 20.0631 31.2516 20.2457C31.2569 20.4227 31.3208 20.5929 31.4333 20.7298C31.61 20.9367 31.8261 21.1064 32.069 21.2289C32.5004 21.4605 32.945 21.6667 33.4006 21.8462C34.4167 22.1865 35.3876 22.649 36.2921 23.2236C36.9076 23.6128 37.4172 24.1484 37.7753 24.7826C38.077 25.3841 38.2283 26.0498 38.2162 26.7226C38.2341 27.6099 37.9806 28.4815 37.4896 29.2208C36.9636 29.9707 36.2333 30.5538 35.3856 30.9007C34.4649 31.3051 33.3286 31.5073 31.9765 31.5073C31.1179 31.5153 30.2609 31.4341 29.4192 31.2648C28.7558 31.1432 28.1101 30.9397 27.4968 30.659C27.4305 30.625 27.3752 30.5727 27.3376 30.5084C27.3 30.444 27.2815 30.3702 27.2843 30.2957V27.0268C27.2805 26.9948 27.2855 26.9623 27.2989 26.9329C27.3123 26.9035 27.3335 26.8784 27.3601 26.8602C27.3861 26.8453 27.416 26.8388 27.4458 26.8415C27.4756 26.8442 27.5039 26.8559 27.5268 26.8752C28.2517 27.3026 29.039 27.6141 29.8601 27.7984C30.5833 27.9799 31.3252 28.0764 32.0708 28.0859C32.7763 28.0859 33.296 27.9951 33.6299 27.8134C33.7802 27.7446 33.9073 27.6336 33.9959 27.494C34.0845 27.3544 34.1307 27.1922 34.129 27.0268C34.129 26.7641 33.9776 26.5116 33.6748 26.2694C33.3721 26.0272 32.756 25.7362 31.8265 25.3964C30.876 25.0656 29.9748 24.6073 29.1476 24.034C28.556 23.623 28.0686 23.0794 27.7243 22.4467C27.426 21.8503 27.2748 21.1911 27.2834 20.5243C27.2808 19.7211 27.5012 18.9329 27.9201 18.2475C28.396 17.4944 29.0795 16.8951 29.8883 16.5218C30.776 16.0779 31.8859 15.856 33.2181 15.856C33.9984 15.8494 34.778 15.9049 35.5496 16.0218C36.1081 16.0936 36.6541 16.2419 37.1721 16.4627C37.2132 16.4745 37.2511 16.4957 37.2826 16.5246C37.3141 16.5535 37.3385 16.5894 37.3538 16.6293C37.3743 16.7031 37.3844 16.7794 37.3838 16.856V19.9141C37.3862 19.9495 37.3793 19.9848 37.3639 20.0167C37.3484 20.0486 37.3249 20.0758 37.2956 20.0958C37.2548 20.1158 37.2099 20.126 37.1644 20.1257C37.119 20.1254 37.0742 20.1145 37.0337 20.094Z" fill="#31A8FF"/>
</svg>
