<svg width="44" height="44" viewBox="0 0 44 44" fill="none" xmlns="http://www.w3.org/2000/svg">
<path fill-rule="evenodd" clip-rule="evenodd" d="M17.3106 0C13.8582 0 11.0595 2.70986 11.0595 6.05265V10.2429H21.8786V11.4069H6.25104C2.79868 11.4069 0 14.1168 0 17.4596L6.83104e-07 26.5385C6.83104e-07 29.8813 2.79869 32.5912 6.25104 32.5912H9.85741V27.4697C9.85741 24.1269 12.6561 21.4171 16.1084 21.4171H27.6488C30.57 21.4171 32.9382 19.1241 32.9382 16.2956V6.05265C32.9382 2.70986 30.1395 0 26.6871 0H17.3106ZM15.868 7.44941C17.0631 7.44941 18.0318 6.51138 18.0318 5.35426C18.0318 4.19715 17.0631 3.25912 15.868 3.25912C14.673 3.25912 13.7042 4.19715 13.7042 5.35426C13.7042 6.51138 14.673 7.44941 15.868 7.44941Z" fill="url(#paint0_linear_29604_6522)"/>
<path fill-rule="evenodd" clip-rule="evenodd" d="M26.6881 44.0013C30.1405 44.0013 32.9392 41.2915 32.9392 37.9487V33.7584L22.1201 33.7584V32.5944L37.7477 32.5944C41.2 32.5944 43.9987 29.8846 43.9987 26.5418V17.4628C43.9987 14.12 41.2 11.4102 37.7477 11.4102L34.1413 11.4102V16.5316C34.1413 19.8744 31.3426 22.5843 27.8903 22.5843L16.3499 22.5843C13.4287 22.5843 11.0605 24.8772 11.0605 27.7057L11.0605 37.9487C11.0605 41.2915 13.8592 44.0013 17.3116 44.0013H26.6881ZM28.1307 36.5519C26.9356 36.5519 25.9669 37.4899 25.9669 38.6471C25.9669 39.8042 26.9356 40.7422 28.1307 40.7422C29.3257 40.7422 30.2945 39.8042 30.2945 38.6471C30.2945 37.4899 29.3257 36.5519 28.1307 36.5519Z" fill="url(#paint1_linear_29604_6522)"/>
<defs>
<linearGradient id="paint0_linear_29604_6522" x1="16.4691" y1="0" x2="16.4691" y2="32.5912" gradientUnits="userSpaceOnUse">
<stop stop-color="#327EBD"/>
<stop offset="1" stop-color="#1565A7"/>
</linearGradient>
<linearGradient id="paint1_linear_29604_6522" x1="27.5296" y1="11.4102" x2="27.5296" y2="44.0013" gradientUnits="userSpaceOnUse">
<stop stop-color="#FFDA4B"/>
<stop offset="1" stop-color="#F9C600"/>
</linearGradient>
</defs>
</svg>
