<svg width="44" height="38" viewBox="0 0 44 38" fill="none" xmlns="http://www.w3.org/2000/svg">
<path fill-rule="evenodd" clip-rule="evenodd" d="M9.59998 1.25111L22 0L34.3999 1.25111L43.9999 13.5502L22 37.9999L0 13.5502L9.59998 1.25111Z" fill="#FDB300"/>
<path d="M8.91099 13.5508L21.9998 38.0006L0 13.5508H8.91099ZM35.089 13.5508L22.0002 38.0006L44 13.5508" fill="#EA6C00"/>
<path fill-rule="evenodd" clip-rule="evenodd" d="M8.91113 13.5508H35.0889L22 38.0006" fill="#FDAD00"/>
<path d="M22 0L9.60002 1.2509L8.91113 13.5501L22 0ZM22.0002 0L34.4002 1.2509L35.0891 13.5501" fill="#FDD231"/>
<path d="M44 13.5492L34.4001 1.25L35.089 13.5492H44ZM0 13.5492L9.59987 1.25L8.91099 13.5492" fill="#FDAD00"/>
<path fill-rule="evenodd" clip-rule="evenodd" d="M22 0L8.91113 13.5501H35.0889" fill="#FEEEB7"/>
</svg>
