<svg width="39" height="45" viewBox="0 0 39 45" fill="none" xmlns="http://www.w3.org/2000/svg">
<path fill-rule="evenodd" clip-rule="evenodd" d="M6.93858 0.1875H31.9281C35.2651 0.1875 37.994 2.78284 38.0797 6.03798L38.625 26.7646L37.4348 39.8369C37.1783 42.6533 34.7603 44.8125 31.8626 44.8125H6.94531C4.02572 44.8125 1.59709 42.6216 1.36836 39.7814L0.375 27.447L0.786096 6.07938C0.849042 2.80765 3.58508 0.1875 6.93858 0.1875ZM6.51272 7.57722H32.2181C33.1346 7.57722 33.8816 8.29472 33.8961 9.18895L34.1989 27.8755C34.2106 28.5941 33.6489 29.1984 32.9148 29.2572L28.0002 29.6502C26.6941 29.7547 25.6885 30.8196 25.6885 32.0985V37.8731C25.6885 39.079 24.6867 40.0566 23.4509 40.0566H15.4093C14.1735 40.0566 13.1716 39.079 13.1716 37.8731V32.0985C13.1716 30.8196 12.1661 29.7547 10.8599 29.6502L5.9371 29.2565C5.20636 29.1981 4.64593 28.5988 4.65288 27.8834L4.83455 9.1993C4.84328 8.30097 5.59206 7.57722 6.51272 7.57722Z" fill="#2274E5"/>
<path d="M32.2186 7.57812H6.51322C5.59256 7.57812 4.84379 8.30188 4.83505 9.2002L4.65338 27.8843C4.64643 28.5997 5.20686 29.199 5.93761 29.2574L10.8604 29.6511C12.1666 29.7556 13.1721 30.8205 13.1721 32.0994V32.7019H25.689V32.0994C25.689 30.8205 26.6946 29.7556 28.0007 29.6511L32.9153 29.2581C33.6494 29.1993 34.2111 28.595 34.1994 27.8764L33.8966 9.18985C33.8821 8.29563 33.1351 7.57812 32.2186 7.57812Z" fill="white"/>
<path d="M25.6888 32.7031V37.8752C25.6888 39.0811 24.6869 40.0587 23.4511 40.0587H15.4095C14.1737 40.0587 13.1719 39.0811 13.1719 37.8752V32.7031H25.6888Z" fill="#BEC2C8"/>
<path d="M14.3605 18.3048L12.6123 19.9766C14.2672 21.4095 17.9757 24.6369 19.57 26.0835C21.7517 22.6991 27.4485 16.4853 30.0241 13.8014C29.8376 13.5967 29.3388 13.0576 28.8353 12.5391C24.8355 15.6778 20.3625 19.9652 18.626 21.7165L14.3605 18.3048Z" fill="#2C3B4A"/>
</svg>
