<svg width="32" height="32" viewBox="0 0 32 32" fill="none" xmlns="http://www.w3.org/2000/svg">
<path fill-rule="evenodd" clip-rule="evenodd" d="M15.0013 7.74712V26.6662C15.0013 27.2185 15.449 27.6662 16.0013 27.6662C16.5536 27.6662 17.0013 27.2185 17.0013 26.6662V7.74712L22.6275 13.3733C23.0181 13.7639 23.6512 13.7639 24.0417 13.3733C24.4323 12.9828 24.4323 12.3497 24.0417 11.9591L16.897 4.81436C16.6496 4.56702 16.3255 4.44336 16.0013 4.44336C15.6771 4.44336 15.353 4.56703 15.1056 4.81436L7.96086 11.9591C7.57034 12.3497 7.57034 12.9828 7.96086 13.3733C8.35139 13.7639 8.98455 13.7639 9.37508 13.3733L15.0013 7.74712Z" fill="url(#paint0_linear_68_8396)"/>
<defs>
<linearGradient id="paint0_linear_68_8396" x1="16.0013" y1="4.98765" x2="16.0013" y2="20.0462" gradientUnits="userSpaceOnUse">
<stop stop-color="white"/>
<stop offset="1" stop-color="white" stop-opacity="0.7"/>
</linearGradient>
</defs>
</svg>
