<svg width="32" height="32" viewBox="0 0 32 32" fill="none" xmlns="http://www.w3.org/2000/svg">
<path fill-rule="evenodd" clip-rule="evenodd" d="M10.5138 6.93774C10.8658 7.28725 10.8523 7.84112 10.4836 8.17484L7.30016 11.0562C6.88824 11.429 6.22818 11.4267 5.81978 11.0459L4.27573 9.60603C3.91231 9.26713 3.90752 8.71313 4.26504 8.36863C4.62256 8.02413 5.207 8.0196 5.57042 8.3585L6.57369 9.29406L9.2087 6.90914C9.57741 6.57542 10.1617 6.58822 10.5138 6.93774ZM13.2308 9.29199C13.2308 8.80874 13.644 8.41699 14.1538 8.41699H27.0769C27.5867 8.41699 28 8.80874 28 9.29199C28 9.77524 27.5867 10.167 27.0769 10.167H14.1538C13.644 10.167 13.2308 9.77524 13.2308 9.29199ZM10.5138 13.9377C10.8658 14.2872 10.8523 14.8411 10.4836 15.1748L7.30016 18.0562C6.88823 18.429 6.22818 18.4267 5.81978 18.0459L4.27573 16.606C3.91231 16.2671 3.90752 15.7131 4.26504 15.3686C4.62256 15.0241 5.207 15.0196 5.57042 15.3585L6.57369 16.2941L9.2087 13.9091C9.57741 13.5754 10.1617 13.5882 10.5138 13.9377ZM13.2308 16.292C13.2308 15.8087 13.644 15.417 14.1538 15.417H27.0769C27.5867 15.417 28 15.8087 28 16.292C28 16.7752 27.5867 17.167 27.0769 17.167H14.1538C13.644 17.167 13.2308 16.7752 13.2308 16.292ZM10.5138 20.9377C10.8658 21.2872 10.8523 21.8411 10.4836 22.1748L7.30016 25.0562C6.88823 25.429 6.22818 25.4267 5.81978 25.0459L4.27573 23.606C3.91231 23.2671 3.90752 22.7131 4.26504 22.3686C4.62256 22.0241 5.207 22.0196 5.57042 22.3585L6.57369 23.2941L9.2087 20.9091C9.57741 20.5754 10.1617 20.5882 10.5138 20.9377ZM13.2308 23.292C13.2308 22.8087 13.644 22.417 14.1538 22.417H27.0769C27.5867 22.417 28 22.8087 28 23.292C28 23.7752 27.5867 24.167 27.0769 24.167H14.1538C13.644 24.167 13.2308 23.7752 13.2308 23.292Z" fill="url(#paint0_linear_68_8405)"/>
<defs>
<linearGradient id="paint0_linear_68_8405" x1="16" y1="7.10449" x2="16" y2="19.2087" gradientUnits="userSpaceOnUse">
<stop stop-color="white"/>
<stop offset="1" stop-color="white" stop-opacity="0.7"/>
</linearGradient>
</defs>
</svg>
