<svg width="31" height="31" viewBox="0 0 31 31" fill="none" xmlns="http://www.w3.org/2000/svg">
<path fill-rule="evenodd" clip-rule="evenodd" d="M11.5645 4.805C11.5645 4.29138 11.1578 3.875 10.6562 3.875C10.1547 3.875 9.74805 4.29138 9.74805 4.805V6.29744C9.36506 6.32874 8.97433 6.36295 8.57438 6.40006C7.2881 6.5194 6.27117 7.63802 6.1661 9.0386C5.74852 14.6047 5.65559 18.5518 6.13446 24.1834C6.25133 25.5577 7.2601 26.6404 8.52336 26.7589C12.063 27.0908 14.8651 27.1971 17.9219 27.0775L25.1189 20.1172C25.2708 16.4445 25.1659 13.2012 24.8488 9.03043C24.7425 7.63342 23.7256 6.52076 22.4424 6.40238C22.0364 6.36492 21.6401 6.33041 21.252 6.29885V4.805C21.252 4.29138 20.8453 3.875 20.3438 3.875C19.8422 3.875 19.4355 4.29138 19.4355 4.805V6.16938C16.6956 6.00394 14.2804 6.00373 11.5645 6.16762V4.805ZM9.74805 12.865C9.74805 12.3514 10.1547 11.935 10.6562 11.935H20.3438C20.8453 11.935 21.252 12.3514 21.252 12.865C21.252 13.3786 20.8453 13.795 20.3438 13.795H10.6562C10.1547 13.795 9.74805 13.3786 9.74805 12.865ZM10.6562 16.275C10.1547 16.275 9.74805 16.6914 9.74805 17.205C9.74805 17.7186 10.1547 18.135 10.6562 18.135H16.7109C17.2125 18.135 17.6191 17.7186 17.6191 17.205C17.6191 16.6914 17.2125 16.275 16.7109 16.275H10.6562ZM23.7344 20.057L18.2852 25.017V22.2661C18.2852 21.046 19.3114 20.057 20.5773 20.057H23.7344Z" fill="url(#paint0_linear_68_8387)"/>
<defs>
<linearGradient id="paint0_linear_68_8387" x1="15.5" y1="4.41992" x2="15.5" y2="19.4961" gradientUnits="userSpaceOnUse">
<stop stop-color="white"/>
<stop offset="1" stop-color="white" stop-opacity="0.7"/>
</linearGradient>
</defs>
</svg>
