<svg width="48" height="67" viewBox="0 0 48 67" fill="none" xmlns="http://www.w3.org/2000/svg">
<path fill-rule="evenodd" clip-rule="evenodd" d="M26.9078 12.402C26.7988 12.5926 26.6082 14.4172 26.5265 16.4353C26.1725 23.2735 24.1574 30.2781 21.4312 34.2842C19.7428 36.735 17.6702 38.372 13.6096 40.496C11.0468 41.8304 10.3116 42.3205 10.2571 42.8107C10.1754 43.4098 10.2299 43.437 11.891 43.3826C12.8441 43.3281 13.8789 43.4643 14.2057 43.6277C14.5325 43.8183 15.6762 44.1451 16.7957 44.3629C19.1377 44.8531 20.584 45.6428 22.2723 47.3614C24.6415 49.7851 25.8427 52.8925 27.5038 60.9591C28.0485 63.6581 28.5931 66.0817 28.7565 66.3267C29.2739 67.3343 30.9622 67.1709 31.289 66.1089C31.3707 65.8366 32.0515 62.4841 32.814 58.6716C34.6385 49.5158 35.4585 47.0377 37.283 45.1012C38.7535 43.5218 40.7989 42.7593 44.4752 42.4295C46.5176 42.2389 47.2559 41.8576 47.2559 40.9862C47.2559 40.2509 46.7929 40.0059 44.5297 39.4612C41.6129 38.7804 38.3995 37.5822 36.8988 36.5989C32.7293 33.9271 31.0681 29.8696 29.6793 18.9134C29.2709 15.8332 28.8624 13.0284 28.7262 12.6743C28.4267 12.0208 27.2829 11.8302 26.9017 12.402H26.9078ZM30.0697 31.9937C31.6219 35.7002 33.8307 37.9605 37.4797 39.6791C38.5145 40.142 39.3587 40.605 39.3587 40.6867C39.3587 40.7683 38.814 41.0407 38.1333 41.313C34.3723 42.8652 32.4933 46.5717 30.7505 55.7276C30.342 57.7972 29.9607 59.4614 29.879 59.3797C29.8246 59.298 29.3344 57.6096 28.817 55.6187C27.6188 50.959 26.1997 47.9878 24.1574 45.9182C22.2511 43.9575 20.4236 42.8652 18.1361 42.2933L16.3661 41.8576L18.1634 40.7139C22.1422 38.2086 25.056 34.0119 26.8291 28.154C27.3193 26.5746 27.755 25.1011 27.8367 24.8832C27.9184 24.6653 28.2451 25.7002 28.5992 27.2251C28.9532 28.7501 29.6067 30.8772 30.0697 31.9937Z" fill="#D9D8D8"/>
<path fill-rule="evenodd" clip-rule="evenodd" d="M6.29954 0.128279C6.25839 0.2003 6.18636 0.889643 6.1555 1.65215C6.02174 4.23575 5.26039 6.88222 4.23038 8.39579C3.59248 9.32178 2.80939 9.94024 1.27524 10.7428C0.306962 11.2469 0.0291665 11.4321 0.00858912 11.6173C-0.0222769 11.8436 -0.00169672 11.8539 0.625912 11.8334C0.986015 11.8128 1.37699 11.8642 1.50045 11.926C1.62392 11.998 2.05604 12.1214 2.47902 12.2037C3.36384 12.3889 3.91028 12.6873 4.54818 13.3366C5.44329 14.2523 5.89714 15.4264 6.52474 18.4741C6.73052 19.4938 6.93629 20.4095 6.99802 20.5021C7.19351 20.8828 7.83141 20.8211 7.95487 20.4198C7.98574 20.3169 8.24296 19.0503 8.53104 17.6099C9.22038 14.1506 9.53018 13.2143 10.2195 12.4827C10.7751 11.8859 11.5479 11.5979 12.9369 11.4733C13.7085 11.4012 13.9875 11.2572 13.9875 10.928C13.9875 10.6502 13.8126 10.5576 12.9574 10.3518C11.8554 10.0946 10.6414 9.64187 10.0743 9.27033C8.49903 8.2609 7.87142 6.72789 7.34669 2.58842C7.19236 1.42465 7.03804 0.364921 6.9866 0.231169C6.87342 -0.0157592 6.44129 -0.0877826 6.29725 0.128279H6.29954ZM7.49417 7.5304C8.08062 8.93081 8.91515 9.78477 10.2938 10.4341C10.6848 10.609 11.0037 10.7839 11.0037 10.8148C11.0037 10.8456 10.798 10.9485 10.5408 11.0514C9.11977 11.6379 8.40986 13.0383 7.75139 16.4976C7.59706 17.2795 7.45301 17.9082 7.42215 17.8774C7.40157 17.8465 7.21637 17.2086 7.02089 16.4564C6.56819 14.6959 6.03203 13.5733 5.26038 12.7913C4.54017 12.0506 3.8497 11.6379 2.98545 11.4218L2.31668 11.2572L2.99573 10.8251C4.49902 9.87851 5.59991 8.29291 6.26982 6.0797C6.45501 5.48296 6.61963 4.92623 6.6505 4.84392C6.68136 4.76161 6.80483 5.15258 6.93858 5.72875C7.07234 6.30491 7.31926 7.10857 7.49417 7.5304Z" fill="#D9D8D8"/>
</svg>
