<svg width="37" height="34" viewBox="0 0 37 34" fill="none" xmlns="http://www.w3.org/2000/svg">
<path d="M1.20032 0.000100952C0.850242 -0.00451493 0.516084 0.149361 0.287485 0.420452C0.0588862 0.691543 -0.0407545 1.0521 0.0152918 1.4054L5.04574 32.6249C5.17511 33.4135 5.83969 33.9933 6.62183 33.9999H30.7549C31.342 34.0076 31.8461 33.5747 31.94 32.9823L36.9704 1.41146C37.0265 1.05816 36.9268 0.6976 36.6982 0.426509C36.4696 0.155419 36.1355 0.0015424 35.7854 0.00615828L1.20032 0.000100952ZM22.3827 22.5637H14.68L12.5944 11.4242H24.2491L22.3827 22.5637Z" fill="#2684FF"/>
<path fill-rule="evenodd" clip-rule="evenodd" d="M35.3707 11.4238H24.2492L22.3827 22.5633H14.6801L5.58496 33.5997C5.87324 33.8546 6.24077 33.9963 6.62186 33.9995H30.7609C31.3479 34.0072 31.852 33.5743 31.9459 32.9819L35.3707 11.4238Z" fill="url(#paint0_linear_1_22036)"/>
<defs>
<linearGradient id="paint0_linear_1_22036" x1="37.9422" y1="14.5434" x2="24.7132" y2="32.9168" gradientUnits="userSpaceOnUse">
<stop offset="0.18" stop-color="#0052CC"/>
<stop offset="1" stop-color="#2684FF"/>
</linearGradient>
</defs>
</svg>
