<svg width="35" height="34" viewBox="0 0 35 34" fill="none" xmlns="http://www.w3.org/2000/svg">
<path d="M1.25851 18.716C0.314871 17.7683 0.314873 16.2317 1.25851 15.284L15.7688 0.710794C16.7124 -0.236933 18.2424 -0.236931 19.186 0.710796L33.6963 15.284C34.6399 16.2317 34.6399 17.7683 33.6963 18.716L19.186 33.2892C18.2424 34.2369 16.7124 34.2369 15.7688 33.2892L1.25851 18.716Z" fill="#EE513B"/>
<path d="M12.8229 3.71875L11.3535 5.19452L15.1486 9.00605C14.9951 9.33685 14.9094 9.70576 14.9094 10.0948C14.9094 11.1993 15.6003 12.1417 16.5718 12.5098V21.8338C15.6003 22.2019 14.9094 23.1443 14.9094 24.2488C14.9094 25.6739 16.0596 26.8292 17.4786 26.8292C18.8975 26.8292 20.0478 25.6739 20.0478 24.2488C20.0478 23.2474 19.4799 22.3793 18.6498 21.9516V12.5225L22.2776 16.166C22.1316 16.4901 22.0503 16.8499 22.0503 17.2287C22.0503 18.6538 23.2006 19.8091 24.6195 19.8091C26.0384 19.8091 27.1887 18.6538 27.1887 17.2287C27.1887 15.8036 26.0384 14.6484 24.6195 14.6484C24.3438 14.6484 24.0782 14.692 23.8292 14.7727L19.933 10.8597C20.0076 10.618 20.0478 10.3611 20.0478 10.0948C20.0478 8.6697 18.8975 7.51443 17.4786 7.51443C17.2134 7.51443 16.9576 7.55478 16.717 7.62969L12.8229 3.71875Z" fill="white"/>
</svg>
