<svg width="35" height="34" viewBox="0 0 35 34" fill="none" xmlns="http://www.w3.org/2000/svg">
<rect x="0.5" width="33.8542" height="34" fill="#FFCA28"/>
<path d="M21.0761 28.2773L23.5687 26.6209C23.764 27.2373 25.001 28.7011 26.5635 28.7011C28.126 28.7011 28.8514 27.844 28.8514 27.2758C28.8514 25.7273 27.2559 25.1814 26.4896 24.9192C26.3647 24.8764 26.2618 24.8412 26.1914 24.8104C26.1554 24.7947 26.1008 24.7737 26.0308 24.7468C25.1785 24.4198 22.0341 23.2133 22.0341 19.716C22.0341 15.8639 25.7357 15.4209 26.5728 15.4209C27.1204 15.4209 29.7536 15.4883 31.065 17.9633L28.6468 19.6582C28.1167 18.5796 27.2359 18.2233 26.6937 18.2233C25.3544 18.2233 25.0754 19.2094 25.0754 19.6582C25.0754 20.9177 26.5305 21.4822 27.7591 21.9589C28.0805 22.0836 28.3865 22.2023 28.6468 22.3258C29.9861 22.9614 31.9578 24.0015 31.9578 27.2758C31.9578 28.9158 30.5882 31.5709 27.1401 31.5709C22.5084 31.5709 21.2807 28.7781 21.0761 28.2773Z" fill="#3E3E3E"/>
<path d="M8.98535 28.6063L11.5833 26.9507C11.7868 27.5667 12.5778 28.7025 13.7256 28.7025C14.8733 28.7025 15.4607 27.5186 15.4607 26.9507V15.7852H18.6558V26.9507C18.7075 28.4908 17.857 31.5709 14.1036 31.5709C10.6527 31.5709 9.218 29.5111 8.98535 28.6063Z" fill="#3E3E3E"/>
</svg>
