<svg width="34" height="34" viewBox="0 0 34 34" fill="none" xmlns="http://www.w3.org/2000/svg">
<path d="M29.9655 25.5081C30.8699 22.6495 30.1578 19.672 28.3022 17.7605C26.1052 15.4975 21.6386 10.9316 21.6386 10.9316L18.2148 14.4583C18.2148 14.4583 22.9797 19.2569 24.9146 21.2499C25.8245 22.1871 25.8245 23.7066 24.9146 24.6438C24.0167 25.5686 22.5683 25.5808 21.656 24.6803L18.2682 28.1699C20.2335 30.1663 23.0454 30.747 25.5033 29.912C25.5872 32.1853 27.4565 34.0025 29.7503 34.0025C32.0974 34.0025 34.0002 32.0997 34.0002 29.7526C34.0002 27.4777 32.2127 25.6202 29.9655 25.5081Z" fill="#F44321"/>
<path d="M25.5061 4.03641C22.6476 3.13205 19.67 3.8441 17.7586 5.69978C15.4956 7.89673 10.9297 12.3634 10.9297 12.3634L14.4563 15.7871C14.4563 15.7871 19.2549 11.0222 21.2479 9.08735C22.1851 8.17749 23.7046 8.17749 24.6418 9.08735C25.5667 9.98522 25.5788 11.4336 24.6783 12.346L28.168 15.7338C30.1644 13.7684 30.7451 10.9565 29.9101 8.49863C32.1834 8.41479 34.0006 6.54546 34.0006 4.25168C34.0006 1.90453 32.0978 0.00178721 29.7507 0.00178732C27.4757 0.00178742 25.6183 1.78928 25.5061 4.03641Z" fill="#FBB854"/>
<path d="M4.03445 8.4968C3.1301 11.3553 3.84215 14.3329 5.69783 16.2443C7.89478 18.5074 12.3614 23.0732 12.3614 23.0732L15.7852 19.5466C15.7852 19.5466 11.0203 14.748 9.08539 12.755C8.17553 11.8178 8.17553 10.2983 9.08539 9.36113C9.98326 8.43625 11.4317 8.42409 12.344 9.32463L15.7318 5.83498C13.7665 3.83854 10.9546 3.25787 8.49668 4.09286C8.41284 1.81958 6.54351 0.00237736 4.24973 0.00237756C1.90257 0.00237777 -0.000166836 1.90514 -0.000166631 4.25227C-0.000166432 6.52723 1.78733 8.38467 4.03445 8.4968Z" fill="#7AC143"/>
<path d="M8.49484 29.9675C11.3534 30.8719 14.331 30.1598 16.2424 28.3041C18.5054 26.1072 23.0713 21.6405 23.0713 21.6405L19.5447 18.2168C19.5447 18.2168 14.7461 22.9817 12.753 24.9166C11.8159 25.8264 10.2963 25.8264 9.35918 24.9166C8.43429 24.0187 8.42214 22.5703 9.32268 21.6579L5.83302 18.2701C3.83659 20.2355 3.25592 23.0474 4.0909 25.5053C1.81762 25.5891 0.000423027 27.4584 0.000422927 29.7522C0.000422825 32.0994 1.90318 34.0021 4.25032 34.0021C6.52527 34.0021 8.38271 32.2146 8.49484 29.9675Z" fill="#5091CD"/>
</svg>
