<svg width="34" height="34" viewBox="0 0 34 34" fill="none" xmlns="http://www.w3.org/2000/svg">
<circle cx="17" cy="17" r="17" fill="#0769AD"/>
<path d="M25.0832 13.8698C26.6095 13.8698 28.007 13.3607 29.0876 12.5165C27.9658 13.9945 26.1073 14.9608 24.0044 14.9608C20.5787 14.9608 17.8016 12.3964 17.8016 9.23294C17.8016 7.47894 18.6553 5.90909 20 4.8584C19.2944 5.78815 18.8803 6.92038 18.8803 8.14192C18.8803 11.3053 21.6574 13.8698 25.0832 13.8698Z" fill="#78CFF5"/>
<path d="M29.0285 17.801C27.3829 19.0918 25.2526 19.8704 22.9257 19.8704C17.7126 19.8704 13.4865 15.9627 13.4865 11.1422C13.4865 9.27259 14.1222 7.54026 15.2047 6.11997C13.1637 7.72098 11.8684 10.11 11.8684 12.7788C11.8684 17.5992 16.0944 21.5069 21.3075 21.5069C24.4987 21.5069 27.32 20.0426 29.0285 17.801Z" fill="#78CFF5"/>
<path d="M29.1422 22.7935C26.7973 25.0312 23.5488 26.4166 19.9591 26.4166C12.8097 26.4166 7.01396 20.9213 7.01396 14.1425C7.01396 11.9945 7.59591 9.9754 8.61846 8.21914C6.29321 10.438 4.85645 13.495 4.85645 16.8701C4.85645 23.6489 10.6522 29.1441 17.8016 29.1441C22.6855 29.1441 26.9377 26.5797 29.1422 22.7935Z" fill="#78CFF5"/>
</svg>
