<svg width="34" height="34" viewBox="0 0 34 34" fill="none" xmlns="http://www.w3.org/2000/svg">
<path fill-rule="evenodd" clip-rule="evenodd" d="M13.3744 0C10.7066 0 8.54403 2.09401 8.54403 4.67711V7.91511H16.9042V8.81456H4.82839C2.16066 8.81456 -0.00195312 10.9086 -0.00195312 13.4917L-0.0019526 20.5073C-0.0019526 23.0904 2.16066 25.1845 4.82839 25.1845H7.61512V21.2269C7.61512 18.6438 9.77774 16.5498 12.4455 16.5498H21.363C23.6203 16.5498 25.4502 14.7779 25.4502 12.5922V4.67711C25.4502 2.09401 23.2876 0 20.6199 0H13.3744ZM12.2597 5.75645C13.1831 5.75645 13.9317 5.0316 13.9317 4.13745C13.9317 3.2433 13.1831 2.51845 12.2597 2.51845C11.3362 2.51845 10.5876 3.2433 10.5876 4.13745C10.5876 5.0316 11.3362 5.75645 12.2597 5.75645Z" fill="url(#paint0_linear_1_21988)"/>
<path fill-rule="evenodd" clip-rule="evenodd" d="M20.6208 33.9999C23.2885 33.9999 25.4511 31.9059 25.4511 29.3228V26.0848H17.0909L17.0909 25.1853L29.1668 25.1853C31.8345 25.1853 33.9971 23.0913 33.9971 20.5082V13.4925C33.9971 10.9094 31.8345 8.81543 29.1668 8.81543L26.38 8.81543V12.773C26.38 15.3561 24.2174 17.4501 21.5497 17.4501L12.6321 17.4501C10.3748 17.4501 8.54492 19.222 8.54492 21.4077L8.54492 29.3228C8.54492 31.9059 10.7075 33.9999 13.3753 33.9999H20.6208ZM21.7355 28.2434C20.812 28.2434 20.0634 28.9683 20.0634 29.8624C20.0634 30.7566 20.812 31.4814 21.7355 31.4814C22.6589 31.4814 23.4075 30.7566 23.4075 29.8624C23.4075 28.9683 22.6589 28.2434 21.7355 28.2434Z" fill="url(#paint1_linear_1_21988)"/>
<defs>
<linearGradient id="paint0_linear_1_21988" x1="12.7241" y1="0" x2="12.7241" y2="25.1845" gradientUnits="userSpaceOnUse">
<stop stop-color="#327EBD"/>
<stop offset="1" stop-color="#1565A7"/>
</linearGradient>
<linearGradient id="paint1_linear_1_21988" x1="21.271" y1="8.81543" x2="21.271" y2="33.9999" gradientUnits="userSpaceOnUse">
<stop stop-color="#FFDA4B"/>
<stop offset="1" stop-color="#F9C600"/>
</linearGradient>
</defs>
</svg>
