<svg width="39" height="34" viewBox="0 0 39 34" fill="none" xmlns="http://www.w3.org/2000/svg">
<path d="M29.4389 31.6493C24.8416 34.2312 18.5204 34.4965 12.1607 31.8466C7.01146 29.7166 2.7389 25.9883 0 21.7284C1.31468 22.7933 2.84844 23.6457 4.49174 24.3908C11.0594 27.3836 17.6257 27.1787 22.2467 24.3985C15.6733 19.4988 10.0791 13.1004 5.91616 7.88184C5.03934 7.02967 4.382 5.96451 3.72466 5.00594C8.7642 9.47939 16.7621 15.1241 19.61 16.7225C13.5853 10.5444 8.2166 2.876 8.43529 3.08861C17.9669 12.4617 26.8414 17.7875 26.8414 17.7875C27.1349 17.9484 27.3615 18.0825 27.5437 18.2022C27.7358 17.7272 27.9043 17.2339 28.0461 16.7225C29.5799 11.2904 27.8274 5.11224 23.9926 0C32.8661 5.21903 38.1254 15.0178 35.9336 23.2196C35.8765 23.4409 35.8144 23.6592 35.7474 23.8737C40.1291 29.1995 39.0011 34.9362 38.4534 33.8712C36.0765 29.3489 31.676 30.7318 29.4389 31.6493Z" fill="url(#paint0_linear_1_22053)"/>
<defs>
<linearGradient id="paint0_linear_1_22053" x1="19.5143" y1="0" x2="19.5143" y2="34.0018" gradientUnits="userSpaceOnUse">
<stop stop-color="#F88A36"/>
<stop offset="1" stop-color="#FD2020"/>
</linearGradient>
</defs>
</svg>
