<svg width="34" height="34" viewBox="0 0 34 34" fill="none" xmlns="http://www.w3.org/2000/svg">
<path d="M25.3935 1.3561C25.3935 0.288795 24.2036 0.288782 23.6748 0.422196C24.4152 -0.164825 25.2834 -0.0225034 25.5918 0.155382L32.7415 3.67621C33.4228 4.01169 33.8549 4.70973 33.8549 5.47469V28.6367C33.8549 29.4119 33.4113 30.1173 32.7162 30.4474L25.9885 33.6422C25.5257 33.8423 24.5209 34.336 23.6748 33.6422C24.7325 33.8423 25.3054 33.0863 25.3935 32.5749V1.3561Z" fill="url(#paint0_linear_1_22047)"/>
<path d="M23.7598 0.404629C24.3211 0.293235 25.3928 0.344894 25.3928 1.35778V9.3304L3.7162 25.7995C3.33732 26.0873 2.80409 26.0396 2.48137 25.6889L0.247296 23.261C-0.102694 22.8807 -0.078206 22.2853 0.301814 21.9356L23.674 0.423872L23.7598 0.404629Z" fill="url(#paint1_linear_1_22047)"/>
<path d="M25.3928 24.737L3.71621 8.26792C3.33732 7.98005 2.80409 8.02781 2.48138 8.37852L0.247296 10.8064C-0.102694 11.1867 -0.078206 11.7821 0.301814 12.1318L23.674 33.6435C24.7317 33.8436 25.3046 33.0876 25.3928 32.5762V24.737Z" fill="url(#paint2_linear_1_22047)"/>
<defs>
<linearGradient id="paint0_linear_1_22047" x1="28.7649" y1="0" x2="28.7649" y2="34" gradientUnits="userSpaceOnUse">
<stop stop-color="#32B5F1"/>
<stop offset="1" stop-color="#2B9FED"/>
</linearGradient>
<linearGradient id="paint1_linear_1_22047" x1="25.3928" y1="4.29286" x2="1.14954" y2="24.5552" gradientUnits="userSpaceOnUse">
<stop stop-color="#0F6FB3"/>
<stop offset="0.270551" stop-color="#1279B7"/>
<stop offset="0.421376" stop-color="#1176B5"/>
<stop offset="0.618197" stop-color="#0E69AC"/>
<stop offset="0.855344" stop-color="#0F70AF"/>
<stop offset="1" stop-color="#0F6DAD"/>
</linearGradient>
<linearGradient id="paint2_linear_1_22047" x1="1.39675" y1="9.69576" x2="25.5705" y2="29.6257" gradientUnits="userSpaceOnUse">
<stop stop-color="#1791D2"/>
<stop offset="1" stop-color="#1173C5"/>
</linearGradient>
</defs>
</svg>
